<svg width="23" height="23" viewBox="0 0 23 23" fill="none" xmlns="http://www.w3.org/2000/svg">
<path d="M10 7H12.1053L12.1053 11.5H16.0001V13.5H10.0001L10 7Z" fill="#6A6C6E"/>
<path d="M3 9V4L8 9H3Z" fill="#6A6C6E"/>
<path d="M4.62908 6.49596C5.82266 4.85708 7.56273 3.69882 9.53527 3.23018C11.5078 2.76155 13.5829 3.01342 15.3861 3.94034C17.1892 4.86725 18.6017 6.40817 19.3685 8.28499C20.1354 10.1618 20.2061 12.2509 19.568 14.1753C18.9299 16.0998 17.6249 17.7327 15.8886 18.7795C14.1522 19.8262 12.0989 20.2179 10.0992 19.8838C8.09949 19.5497 6.28505 18.5118 4.98333 16.9574C3.68162 15.403 2.97837 13.4345 3.00051 11.4072L4.74616 11.4263C4.72858 13.0372 5.28739 14.6014 6.32175 15.8365C7.35611 17.0717 8.7979 17.8964 10.3869 18.1619C11.9759 18.4274 13.6075 18.1162 14.9872 17.2844C16.3669 16.4526 17.4039 15.155 17.911 13.6259C18.418 12.0967 18.3618 10.4367 17.7525 8.9453C17.1431 7.45395 16.0207 6.22951 14.5879 5.49297C13.1551 4.75643 11.5062 4.55629 9.9388 4.92867C8.37138 5.30105 6.98869 6.22143 6.04025 7.52371L4.62908 6.49596Z" fill="#6A6C6E"/>
</svg>
