<svg width="24" height="24" viewBox="0 0 24 24" fill="none" xmlns="http://www.w3.org/2000/svg">
<path fill-rule="evenodd" clip-rule="evenodd" d="M11.9824 3.19775C7.02243 3.19775 3 7.21963 3 12.1818C3 16.1502 5.57371 19.5174 9.14339 20.7053C9.59284 20.7875 9.75662 20.5101 9.75662 20.2724C9.75662 20.059 9.7489 19.4943 9.74449 18.7443C7.24577 19.2875 6.71857 17.5404 6.71857 17.5404C6.30993 16.5025 5.72095 16.2263 5.72095 16.2263C4.90533 15.6687 5.78272 15.6803 5.78272 15.6803C6.68437 15.7437 7.15863 16.6057 7.15863 16.6057C7.95992 17.9788 9.2614 17.5823 9.77317 17.3524C9.85478 16.7717 10.087 16.3757 10.3434 16.1513C8.34871 15.9246 6.25147 15.1536 6.25147 11.7114C6.25147 10.7308 6.60166 9.92901 7.17629 9.30088C7.08364 9.07368 6.77536 8.16044 7.26452 6.92349C7.26452 6.92349 8.01838 6.68195 9.73456 7.84445C10.4509 7.64537 11.2197 7.54555 11.9835 7.54224C12.7467 7.54555 13.5149 7.64537 14.2324 7.84445C15.9474 6.68195 16.7002 6.92349 16.7002 6.92349C17.1904 8.16044 16.8822 9.07368 16.7901 9.30088C17.3658 9.92901 17.7132 10.7308 17.7132 11.7114C17.7132 15.1625 15.6127 15.9218 13.612 16.1441C13.934 16.4215 14.2213 16.9696 14.2213 17.8079C14.2213 19.009 14.2103 19.9779 14.2103 20.2724C14.2103 20.5123 14.3724 20.7919 14.8279 20.7042C18.3949 19.5141 20.9664 16.1491 20.9664 12.1818C20.9664 7.21963 16.9439 3.19775 11.9824 3.19775Z" fill="#8E8E8E"/>
</svg>
