<svg width="24" height="24" viewBox="0 0 24 24" fill="none" xmlns="http://www.w3.org/2000/svg">
<path fill-rule="evenodd" clip-rule="evenodd" d="M5.5 6C5.22386 6 5 6.22386 5 6.5V14.4384L5.82556 11.1362C5.9925 10.4684 6.59248 10 7.28078 10H18V8.55025C18 8.27411 17.7761 8.05025 17.5 8.05025H10.1876L9.18757 6H5.5ZM19 10H19.192C20.1805 10 20.8987 10.9394 20.6396 11.8933L19.0094 17.8933C18.8319 18.5466 18.2388 19 17.5619 19H6C4.89543 19 4 18.1046 4 17V6.5C4 5.67157 4.67157 5 5.5 5H9.81243L10.8124 7.05025H17.5C18.3284 7.05025 19 7.72182 19 8.55025V10Z" fill="#8E8E8E"/>
</svg>
