<svg width="40" height="40" viewBox="0 0 40 40" fill="none" xmlns="http://www.w3.org/2000/svg">
<path fill-rule="evenodd" clip-rule="evenodd" d="M24.1982 3.92272C25.284 2.48209 23.6789 0.654061 22.2421 1.05657C21.8621 1.17449 21.7415 1.26831 21.5404 1.44861C21.4666 1.5147 21.4298 1.54826 21.3198 1.68528L18.3292 5.53247C18.0211 5.94097 17.8873 6.46224 17.9718 6.95799C18.2353 8.50233 20.3435 8.8472 21.2076 7.7699L24.1982 3.92272ZM18.2901 10.495C19.1918 10.7492 20.4477 10.4349 21.8427 10.0857C24.123 9.51503 26.7748 8.85134 28.8583 10.4259C32.8906 13.4696 35.2753 18.494 34.7083 23.8814C33.8479 32.0558 26.512 37.9952 18.3366 37.1347C10.1612 36.2742 4.22245 28.9376 5.08285 20.7632C5.69204 14.9755 9.54504 10.311 14.6437 8.38175C15.1995 8.17169 15.5154 8.50609 15.9653 8.98238C16.4417 9.48683 17.0686 10.1505 18.2901 10.495ZM16.6266 27.6176V17.4363C16.6266 16.7162 17.4007 16.2827 17.9863 16.6749L25.2258 21.5231C25.7462 21.8717 25.763 22.6513 25.258 23.0232L18.0185 28.3563C17.4359 28.7855 16.6266 28.356 16.6266 27.6176Z" fill="#6A6C6E"/>
</svg>
