<svg width="24" height="24" viewBox="0 0 24 24" fill="none" xmlns="http://www.w3.org/2000/svg">
<path d="M13.8854 13.8854C14.4063 13.3646 14.6667 12.7361 14.6667 12C14.6667 11.2639 14.4063 10.6354 13.8854 10.1146C13.3646 9.59375 12.7361 9.33333 12 9.33333C11.2639 9.33333 10.6354 9.59375 10.1146 10.1146C9.59375 10.6354 9.33333 11.2639 9.33333 12C9.33333 12.7361 9.59375 13.3646 10.1146 13.8854C10.6354 14.4063 11.2639 14.6667 12 14.6667C12.7361 14.6667 13.3646 14.4063 13.8854 13.8854ZM20 10.8646V13.1771C20 13.2604 19.9722 13.3403 19.9167 13.4167C19.8611 13.4931 19.7917 13.5382 19.7083 13.5521L17.7812 13.8437C17.6493 14.2188 17.5139 14.5347 17.375 14.7917C17.6181 15.1389 17.9896 15.6181 18.4896 16.2292C18.559 16.3125 18.5937 16.3993 18.5937 16.4896C18.5937 16.5799 18.5625 16.6597 18.5 16.7292C18.3125 16.9861 17.9688 17.3611 17.4687 17.8542C16.9687 18.3472 16.6424 18.5937 16.4896 18.5937C16.4062 18.5937 16.316 18.5625 16.2187 18.5L14.7813 17.375C14.4757 17.5347 14.1597 17.6667 13.8333 17.7708C13.7222 18.7153 13.6215 19.3611 13.5312 19.7083C13.4826 19.9028 13.3576 20 13.1562 20H10.8437C10.7465 20 10.6615 19.9705 10.5885 19.9115C10.5156 19.8524 10.4757 19.7778 10.4687 19.6875L10.1771 17.7708C9.8368 17.6597 9.52431 17.5313 9.23958 17.3854L7.77083 18.5C7.70139 18.5625 7.61458 18.5937 7.51042 18.5937C7.41319 18.5937 7.32639 18.5556 7.25 18.4792C6.375 17.6875 5.80208 17.1042 5.53125 16.7292C5.48264 16.6597 5.45833 16.5799 5.45833 16.4896C5.45833 16.4062 5.48611 16.3264 5.54167 16.25C5.64583 16.1042 5.82292 15.8733 6.07292 15.5573C6.32292 15.2413 6.51042 14.9965 6.63542 14.8229C6.44792 14.4757 6.30556 14.1319 6.20833 13.7917L4.30208 13.5104C4.2118 13.4965 4.13889 13.4531 4.08333 13.3802C4.02778 13.3073 4 13.2257 4 13.1354V10.8229C4 10.7396 4.02778 10.6597 4.08333 10.5833C4.13889 10.5069 4.20486 10.4618 4.28125 10.4479L6.21875 10.1563C6.31597 9.8368 6.45139 9.51736 6.625 9.19792C6.34722 8.80208 5.9757 8.32292 5.51042 7.76042C5.44097 7.67708 5.40625 7.59375 5.40625 7.51042C5.40625 7.44097 5.4375 7.36111 5.5 7.27083C5.68056 7.02083 6.02257 6.64757 6.52604 6.15104C7.02952 5.65451 7.35764 5.40625 7.51042 5.40625C7.60069 5.40625 7.69097 5.44097 7.78125 5.51042L9.21875 6.625C9.52431 6.46528 9.84028 6.33333 10.1667 6.22917C10.2778 5.28472 10.3785 4.63889 10.4687 4.29167C10.5174 4.09722 10.6424 4 10.8437 4H13.1562C13.2535 4 13.3385 4.02951 13.4115 4.08854C13.4844 4.14757 13.5243 4.22222 13.5312 4.3125L13.8229 6.22917C14.1632 6.34028 14.4757 6.46875 14.7604 6.61458L16.2396 5.5C16.3021 5.4375 16.3854 5.40625 16.4896 5.40625C16.5799 5.40625 16.6667 5.44097 16.75 5.51042C17.6458 6.33681 18.2187 6.92708 18.4687 7.28125C18.5174 7.33681 18.5417 7.41319 18.5417 7.51042C18.5417 7.59375 18.5139 7.67361 18.4583 7.75C18.3542 7.89583 18.1771 8.12673 17.9271 8.44271C17.6771 8.75868 17.4896 9.00347 17.3646 9.17708C17.5451 9.52431 17.6875 9.86458 17.7917 10.1979L19.6979 10.4896C19.7882 10.5035 19.8611 10.5469 19.9167 10.6198C19.9722 10.6927 20 10.7743 20 10.8646Z" fill="#8E8E8E"/>
</svg>
