<svg width="24" height="24" viewBox="0 0 24 24" fill="none" xmlns="http://www.w3.org/2000/svg">
<path fill-rule="evenodd" clip-rule="evenodd" d="M6.5 5C5.67157 5 5 5.67157 5 6.5V17.5C5 18.3284 5.67157 19 6.5 19H17.5C18.3284 19 19 18.3284 19 17.5V9.03044L15.2164 5H6.5ZM6 6.5C6 6.22386 6.22386 6 6.5 6H8V9.5C8 10.3284 8.67157 11 9.5 11H13.5C14.3284 11 15 10.3284 15 9.5V6.23054L18 9.42627V17.5C18 17.7761 17.7761 18 17.5 18H16.5V14.5C16.5 13.6716 15.8284 13 15 13H9C8.17157 13 7.5 13.6716 7.5 14.5V18H6.5C6.22386 18 6 17.7761 6 17.5V6.5ZM13.5 6.5H11.5V9.5H13.5V6.5Z" fill="#6A6C6E"/>
</svg>
