<svg width="24" height="24" viewBox="0 0 24 24" fill="none" xmlns="http://www.w3.org/2000/svg">
<path d="M13 20V4L7.28571 8.36364H3V15.6364H7.28571L13 20Z" fill="#8E8E8E"/>
<path d="M17.191 18.2304C18.3393 17.6422 19.3028 16.7482 19.975 15.6469C20.6471 14.5456 21.0019 13.28 21 11.9898C20.9981 10.6996 20.6397 9.43502 19.9643 8.33571C19.2889 7.2364 18.3229 6.34514 17.1728 5.76034L16.4758 7.13098C17.3733 7.58732 18.1271 8.2828 18.6542 9.14063C19.1812 9.99846 19.4609 10.9853 19.4623 11.992C19.4638 12.9988 19.187 13.9864 18.6625 14.8458C18.1379 15.7052 17.3861 16.4028 16.49 16.8618L17.191 18.2304Z" fill="#8E8E8E"/>
<path d="M15.8234 15.5602C16.4796 15.2241 17.0302 14.7132 17.4143 14.0839C17.7984 13.4546 18.0011 12.7314 18 11.9942C17.9989 11.2569 17.7941 10.5343 17.4082 9.90612C17.0222 9.27794 16.4702 8.76865 15.813 8.43448L15.0978 9.84111C15.4957 10.0434 15.8299 10.3518 16.0636 10.7322C16.2973 11.1125 16.4213 11.5501 16.422 11.9965C16.4226 12.4429 16.2999 12.8808 16.0673 13.2618C15.8347 13.6428 15.5014 13.9522 15.1041 14.1557L15.8234 15.5602Z" fill="#8E8E8E"/>
</svg>
