<svg width="24" height="24" viewBox="0 0 24 24" fill="none" xmlns="http://www.w3.org/2000/svg">
<path d="M19.0984 12.8037L21.9379 13.1202C21.9649 12.8788 21.9833 12.6349 21.9927 12.3886C21.9976 12.2597 22 12.1301 22 12C22 11.6213 21.979 11.2475 21.9379 10.8798L19.0984 11.1963C19.1277 11.4592 19.1429 11.7273 19.1429 12C19.1429 12.1199 19.14 12.2389 19.1341 12.3569C19.1268 12.5074 19.1148 12.6564 19.0984 12.8037Z" fill="#6A6C6E"/>
<path d="M17.5859 7.54775L19.8187 5.76494C19.3515 5.1799 18.8201 4.64849 18.2351 4.18134L16.4523 6.414C16.8711 6.74842 17.2516 7.12896 17.5859 7.54775Z" fill="#6A6C6E"/>
<path d="M12 2C12.3787 2 12.7524 2.02104 13.1203 2.06205L12.8037 4.90161C12.5408 4.87229 12.2727 4.85714 12 4.85714C11.7273 4.85714 11.4592 4.87229 11.1963 4.90161L10.8797 2.06205C11.2476 2.02104 11.6213 2 12 2Z" fill="#6A6C6E"/>
<path d="M7.54769 6.414L5.76488 4.18134C5.17987 4.64849 4.64846 5.1799 4.18134 5.76494L6.41406 7.54775C6.74842 7.12896 7.12893 6.74842 7.54769 6.414Z" fill="#6A6C6E"/>
<path d="M2 12C2 11.6213 2.02104 11.2475 2.06208 10.8798L4.90155 11.1963C4.87226 11.4592 4.85714 11.7273 4.85714 12C4.85714 12.2727 4.87226 12.5408 4.90155 12.8037L2.06208 13.1202C2.02104 12.7525 2 12.3787 2 12Z" fill="#6A6C6E"/>
<path d="M6.41406 16.4523L4.18134 18.2351C4.64846 18.8201 5.17987 19.3515 5.76488 19.8187L7.54769 17.586C7.12893 17.2516 6.74842 16.871 6.41406 16.4523Z" fill="#6A6C6E"/>
<path d="M11.1963 19.0984L10.8797 21.9379C11.2476 21.979 11.6213 22 12 22C12.3787 22 12.7524 21.979 13.1203 21.9379L12.8037 19.0984C12.5408 19.1277 12.2727 19.1429 12 19.1429C11.7273 19.1429 11.4592 19.1277 11.1963 19.0984Z" fill="#6A6C6E"/>
<path d="M16.4523 17.586L18.2351 19.8187C18.8201 19.3515 19.3515 18.8201 19.8187 18.2351L17.5859 16.4523C17.2516 16.871 16.8711 17.2516 16.4523 17.586Z" fill="#6A6C6E"/>
<path d="M12 18.1905C15.4189 18.1905 18.1905 15.4189 18.1905 12C18.1905 8.5811 15.4189 5.80952 12 5.80952C8.5811 5.80952 5.80952 8.5811 5.80952 12C5.80952 15.4189 8.5811 18.1905 12 18.1905Z" fill="#6A6C6E"/>
</svg>
