<svg width="16" height="16" viewBox="0 0 16 16" fill="none" xmlns="http://www.w3.org/2000/svg">
<path d="M16 8C16 12.4183 12.4183 16 8 16C3.58172 16 0 12.4183 0 8C0 3.58172 3.58172 0 8 0C12.4183 0 16 3.58172 16 8ZM2.4 8C2.4 11.0928 4.90721 13.6 8 13.6C11.0928 13.6 13.6 11.0928 13.6 8C13.6 4.90721 11.0928 2.4 8 2.4C4.90721 2.4 2.4 4.90721 2.4 8Z" fill="#DEDEDE"/>
<path d="M8 0C10.1217 2.53014e-08 12.1566 0.842855 13.6569 2.34315C15.1571 3.84344 16 5.87827 16 8C16 10.1217 15.1571 12.1566 13.6569 13.6569C12.1566 15.1571 10.1217 16 8 16L8 13.6C9.48521 13.6 10.9096 13.01 11.9598 11.9598C13.01 10.9096 13.6 9.48521 13.6 8C13.6 6.51479 13.01 5.09041 11.9598 4.0402C10.9096 2.99 9.48521 2.4 8 2.4L8 0Z" fill="#5069BE"/>
</svg>
