<svg width="16" height="16" viewBox="0 0 16 16" fill="none" xmlns="http://www.w3.org/2000/svg">
<path d="M16 8C16 12.4183 12.4183 16 8 16C3.58172 16 0 12.4183 0 8C0 3.58172 3.58172 0 8 0C12.4183 0 16 3.58172 16 8ZM2.4 8C2.4 11.0928 4.90721 13.6 8 13.6C11.0928 13.6 13.6 11.0928 13.6 8C13.6 4.90721 11.0928 2.4 8 2.4C4.90721 2.4 2.4 4.90721 2.4 8Z" fill="#DEDEDE"/>
<path d="M8 0C9.58225 1.88681e-08 11.129 0.469192 12.4446 1.34824C13.7602 2.22729 14.7855 3.47672 15.391 4.93853C15.9965 6.40034 16.155 8.00887 15.8463 9.56072C15.5376 11.1126 14.7757 12.538 13.6569 13.6569C12.538 14.7757 11.1126 15.5376 9.56072 15.8463C8.00887 16.155 6.40034 15.9965 4.93853 15.391C3.47672 14.7855 2.22729 13.7602 1.34824 12.4446C0.469192 11.129 -3.77363e-08 9.58225 0 8L2.4 8C2.4 9.10758 2.72843 10.1903 3.34377 11.1112C3.95911 12.0321 4.83371 12.7499 5.85697 13.1737C6.88024 13.5976 8.00621 13.7085 9.09251 13.4924C10.1788 13.2763 11.1766 12.743 11.9598 11.9598C12.743 11.1766 13.2763 10.1788 13.4924 9.09251C13.7085 8.00621 13.5976 6.88024 13.1737 5.85697C12.7499 4.83371 12.0321 3.95911 11.1112 3.34377C10.1903 2.72843 9.10758 2.4 8 2.4L8 0Z" fill="#5BB44C"/>
</svg>
