<svg width="16" height="16" viewBox="0 0 16 16" fill="none" xmlns="http://www.w3.org/2000/svg">
<path d="M16 8C16 12.4183 12.4183 16 8 16C3.58172 16 0 12.4183 0 8C0 3.58172 3.58172 0 8 0C12.4183 0 16 3.58172 16 8ZM2.4 8C2.4 11.0928 4.90721 13.6 8 13.6C11.0928 13.6 13.6 11.0928 13.6 8C13.6 4.90721 11.0928 2.4 8 2.4C4.90721 2.4 2.4 4.90721 2.4 8Z" fill="#DEDEDE"/>
<path d="M8 0C9.76122 2.10023e-08 11.4732 0.581194 12.8704 1.65343C14.2676 2.72566 15.272 4.229 15.7276 5.93026C16.1833 7.63151 16.0648 9.43558 15.3906 11.0626C14.7163 12.6897 13.524 14.0488 11.9985 14.929L10.799 12.8503C11.8668 12.2341 12.7014 11.2828 13.1734 10.1438C13.6454 9.00491 13.7283 7.74206 13.4093 6.55118C13.0904 5.3603 12.3873 4.30796 11.4093 3.5574C10.4312 2.80684 9.23285 2.4 8 2.4L8 0Z" fill="#5BB44C"/>
</svg>
