<svg width="16" height="16" viewBox="0 0 16 16" fill="none" xmlns="http://www.w3.org/2000/svg">
<path d="M16 8C16 12.4183 12.4183 16 8 16C3.58172 16 0 12.4183 0 8C0 3.58172 3.58172 0 8 0C12.4183 0 16 3.58172 16 8ZM2.4 8C2.4 11.0928 4.90721 13.6 8 13.6C11.0928 13.6 13.6 11.0928 13.6 8C13.6 4.90721 11.0928 2.4 8 2.4C4.90721 2.4 2.4 4.90721 2.4 8Z" fill="#DEDEDE"/>
<path d="M8 0C9.94094 2.31455e-08 11.8157 0.705632 13.2749 1.98542C14.7342 3.26521 15.6784 5.03186 15.9316 6.95621C16.1849 8.88055 15.7299 10.8313 14.6514 12.4451C13.573 14.0588 11.9446 15.2255 10.0697 15.7276C8.19489 16.2298 6.20141 16.0332 4.46075 15.1745C2.72009 14.3158 1.35097 12.8536 0.608483 11.0603C-0.134 9.267 -0.1992 7.26491 0.425031 5.42709C1.04926 3.58928 2.32035 2.04108 4.00145 1.07096L5.20102 3.14967C4.02424 3.82875 3.13448 4.91249 2.69752 6.19897C2.26056 7.48544 2.3062 8.8869 2.82594 10.1422C3.34568 11.3975 4.30406 12.4211 5.52253 13.0222C6.74099 13.6232 8.13642 13.7608 9.44882 13.4093C10.7612 13.0578 11.9011 12.2412 12.656 11.1116C13.4109 9.98194 13.7294 8.61639 13.5521 7.26934C13.3749 5.9223 12.7139 4.68565 11.6924 3.78979C10.671 2.89394 9.35866 2.4 8 2.4L8 0Z" fill="#5BB44C"/>
</svg>
