<svg width="16" height="16" viewBox="0 0 16 16" fill="none" xmlns="http://www.w3.org/2000/svg">
<path d="M16 8C16 12.4183 12.4183 16 8 16C3.58172 16 0 12.4183 0 8C0 3.58172 3.58172 0 8 0C12.4183 0 16 3.58172 16 8ZM2.4 8C2.4 11.0928 4.90721 13.6 8 13.6C11.0928 13.6 13.6 11.0928 13.6 8C13.6 4.90721 11.0928 2.4 8 2.4C4.90721 2.4 2.4 4.90721 2.4 8Z" fill="#DEDEDE"/>
<path d="M8 0C9.40423 1.67453e-08 10.7837 0.369619 11.9998 1.07171C13.216 1.7738 14.2259 2.78362 14.928 3.99969C15.6302 5.21577 15.9999 6.59524 16 7.99947C16.0001 9.4037 15.6306 10.7832 14.9286 11.9994L12.85 10.7996C13.3414 9.94826 13.6001 8.98259 13.6 7.99963C13.5999 7.01667 13.3411 6.05104 12.8496 5.19979C12.3581 4.34854 11.6512 3.64166 10.7999 3.1502C9.94861 2.65873 8.98296 2.4 8 2.4L8 0Z" fill="#C23E3E"/>
</svg>
