<svg width="16" height="16" viewBox="0 0 16 16" fill="none" xmlns="http://www.w3.org/2000/svg">
<path d="M16 8C16 12.4183 12.4183 16 8 16C3.58172 16 0 12.4183 0 8C0 3.58172 3.58172 0 8 0C12.4183 0 16 3.58172 16 8ZM2.4 8C2.4 11.0928 4.90721 13.6 8 13.6C11.0928 13.6 13.6 11.0928 13.6 8C13.6 4.90721 11.0928 2.4 8 2.4C4.90721 2.4 2.4 4.90721 2.4 8Z" fill="#DEDEDE"/>
<path d="M8 0C9.761 2.09997e-08 11.4728 0.581052 12.8699 1.65305C14.2671 2.72504 15.2714 4.22807 15.7273 5.92904C16.1832 7.63002 16.0651 9.43388 15.3913 11.0609C14.7175 12.6879 13.5257 14.0471 12.0007 14.9278C10.4757 15.8084 8.70279 16.1613 6.95683 15.9317C5.21086 15.7021 3.58944 14.9028 2.34403 13.6577C1.09862 12.4127 0.298808 10.7916 0.0686321 9.04566C-0.161544 7.29976 0.190779 5.5267 1.07096 4.00145L3.14967 5.20101C2.53355 6.26869 2.28692 7.50984 2.44804 8.73196C2.60917 9.95409 3.16903 11.0889 4.04082 11.9604C4.91261 12.8319 6.0476 13.3914 7.26978 13.5522C8.49195 13.7129 9.73302 13.4659 10.8005 12.8494C11.868 12.233 12.7022 11.2815 13.1739 10.1426C13.6455 9.00372 13.7282 7.74101 13.4091 6.55033C13.09 5.35965 12.3869 4.30753 11.4089 3.55713C10.431 2.80674 9.2327 2.4 8 2.4L8 0Z" fill="#C23E3E"/>
</svg>
