<svg width="16" height="16" viewBox="0 0 16 16" fill="none" xmlns="http://www.w3.org/2000/svg">
<path fill-rule="evenodd" clip-rule="evenodd" d="M9.4363 0.0249911C10.0711 -0.152827 10.7801 0.654747 10.3005 1.29118L8.97929 2.99076C8.59756 3.46669 7.66621 3.31433 7.54981 2.63208C7.51246 2.41307 7.57157 2.18279 7.70771 2.00232L9.02888 0.302738C9.07747 0.242207 9.09371 0.227382 9.12631 0.198184C9.21515 0.118533 9.26842 0.0770847 9.4363 0.0249911Z" fill="#4F5655"/>
<path d="M7.22521 4.19463C8.27466 4.49054 10.4104 3.04298 11.894 4.16413C13.6753 5.50874 14.7288 7.72841 14.4783 10.1084C14.0982 13.7197 10.8574 16.3435 7.24576 15.9634C3.6341 15.5832 1.0105 12.3421 1.39061 8.73087C1.65973 6.17402 3.36188 4.11336 5.61435 3.26108C6.11996 3.06999 6.17608 3.89876 7.22521 4.19463Z" fill="#4F5655"/>
</svg>
