<svg width="16" height="16" viewBox="0 0 16 16" fill="none" xmlns="http://www.w3.org/2000/svg">
<path d="M8 0C9.19182 1.42123e-08 10.3686 0.26629 11.4443 0.779408C12.52 1.29253 13.4674 2.03951 14.2174 2.96576C14.9674 3.89202 15.501 4.97414 15.7791 6.13305C16.0572 7.29196 16.0729 8.49837 15.825 9.66411C15.5771 10.8299 15.0718 11.9255 14.3462 12.8709C13.6205 13.8164 12.6928 14.5877 11.6308 15.1286C10.5688 15.6695 9.39936 15.9663 8.20795 15.9973C7.01653 16.0283 5.83325 15.7927 4.74457 15.3077L5.7212 13.1154C6.48328 13.4549 7.31157 13.6198 8.14556 13.5981C8.97955 13.5764 9.79816 13.3687 10.5416 12.99C11.285 12.6114 11.9344 12.0715 12.4423 11.4096C12.9503 10.7478 13.304 9.9809 13.4775 9.16488C13.651 8.34886 13.6401 7.50437 13.4454 6.69313C13.2507 5.8819 12.8772 5.12441 12.3522 4.47603C11.8272 3.82766 11.164 3.30477 10.411 2.94559C9.658 2.5864 8.83427 2.4 8 2.4L8 0Z" fill="#878681"/>
</svg>
