<svg width="16" height="16" viewBox="0 0 16 16" fill="none" xmlns="http://www.w3.org/2000/svg">
<path d="M16 8C16 12.4183 12.4183 16 8 16C3.58172 16 0 12.4183 0 8C0 3.58172 3.58172 0 8 0C12.4183 0 16 3.58172 16 8ZM2.4 8C2.4 11.0928 4.90721 13.6 8 13.6C11.0928 13.6 13.6 11.0928 13.6 8C13.6 4.90721 11.0928 2.4 8 2.4C4.90721 2.4 2.4 4.90721 2.4 8Z" fill="#DEDEDE"/>
<path d="M8 0C9.22703 1.46322e-08 10.4376 0.282253 11.5381 0.824925C12.6386 1.3676 13.5996 2.15615 14.3466 3.12958C15.0936 4.10301 15.6067 5.23523 15.8462 6.43866C16.0856 7.6421 16.0451 8.88449 15.7276 10.0697C15.4102 11.255 14.8243 12.3513 14.0154 13.274C13.2065 14.1966 12.1962 14.9208 11.0626 15.3906C9.92907 15.8603 8.70266 16.063 7.47824 15.983C6.25382 15.9029 5.06422 15.5423 4.00145 14.929L5.20102 12.8503C5.94495 13.2796 6.77767 13.5321 7.63477 13.5881C8.49186 13.6441 9.35035 13.5022 10.1438 13.1734C10.9373 12.8446 11.6445 12.3376 12.2108 11.6918C12.777 11.0459 13.1871 10.2785 13.4093 9.44882C13.6316 8.61914 13.6599 7.74947 13.4923 6.90706C13.3247 6.06466 12.9655 5.2721 12.4426 4.5907C11.9197 3.9093 11.247 3.35732 10.4767 2.97745C9.70633 2.59758 8.85892 2.4 8 2.4L8 0Z" fill="#282828"/>
</svg>
