<svg width="16" height="16" viewBox="0 0 16 16" fill="none" xmlns="http://www.w3.org/2000/svg">
<path d="M8 0C10.0493 2.44379e-08 12.0205 0.78645 13.507 2.19715C14.9935 3.60785 15.8819 5.53521 15.9891 7.58173C16.0962 9.62825 15.4139 11.6379 14.0828 13.1961C12.7518 14.7543 10.8735 15.7423 8.83539 15.9563C6.79727 16.1703 4.75475 15.5939 3.12908 14.3462C1.5034 13.0984 0.418563 11.2744 0.0982965 9.25023C-0.22197 7.22609 0.246763 5.15623 1.40782 3.46754C2.56888 1.77885 4.33372 0.600128 6.33835 0.17447L6.83684 2.52213C5.4336 2.82009 4.19822 3.6452 3.38548 4.82728C2.57273 6.00936 2.24462 7.45826 2.46881 8.87516C2.69299 10.2921 3.45238 11.5689 4.59035 12.4423C5.72832 13.3158 7.15809 13.7192 8.58478 13.5694C10.0115 13.4196 11.3263 12.728 12.258 11.6372C13.1897 10.5465 13.6673 9.13978 13.5923 7.70721C13.5173 6.27465 12.8954 4.92549 11.8549 3.938C10.8143 2.95052 9.43453 2.4 8 2.4L8 0Z" fill="#878681"/>
</svg>
