<svg width="16" height="16" viewBox="0 0 16 16" fill="none" xmlns="http://www.w3.org/2000/svg">
<path d="M8 0C9.05058 1.2528e-08 10.0909 0.206926 11.0615 0.608964C12.0321 1.011 12.914 1.60028 13.6569 2.34315C14.3997 3.08602 14.989 3.96793 15.391 4.93853C15.7931 5.90914 16 6.94943 16 8C16 9.05058 15.7931 10.0909 15.391 11.0615C14.989 12.0321 14.3997 12.914 13.6569 13.6569C12.914 14.3997 12.0321 14.989 11.0615 15.391C10.0909 15.7931 9.05057 16 8 16L8 13.6C8.7354 13.6 9.4636 13.4552 10.143 13.1737C10.8224 12.8923 11.4398 12.4798 11.9598 11.9598C12.4798 11.4398 12.8923 10.8225 13.1737 10.143C13.4552 9.46361 13.6 8.7354 13.6 8C13.6 7.2646 13.4552 6.5364 13.1737 5.85697C12.8923 5.17755 12.4798 4.56021 11.9598 4.0402C11.4398 3.52019 10.8225 3.1077 10.143 2.82627C9.4636 2.54485 8.7354 2.4 8 2.4L8 0Z" fill="#878681"/>
</svg>
