<svg width="16" height="16" viewBox="0 0 16 16" fill="none" xmlns="http://www.w3.org/2000/svg">
<path d="M8 0C9.33347 1.59015e-08 10.6458 0.333324 11.8176 0.969663C12.9895 1.606 13.9837 2.52517 14.7098 3.64359C15.436 4.76201 15.871 6.0442 15.9754 7.37358C16.0799 8.70296 15.8503 10.0374 15.3077 11.2554C14.7651 12.4735 13.9266 13.5366 12.8684 14.3481C11.8103 15.1596 10.5661 15.6937 9.24899 15.9019C7.93187 16.1101 6.5836 15.9857 5.32678 15.5402C4.06996 15.0946 2.94445 14.3419 2.0526 13.3506L3.83682 11.7454C4.46112 12.4393 5.24897 12.9662 6.12875 13.2781C7.00852 13.59 7.95231 13.6771 8.87429 13.5313C9.79628 13.3856 10.6672 13.0117 11.4079 12.4437C12.1486 11.8756 12.7355 11.1314 13.1154 10.2788C13.4952 9.42615 13.6559 8.49207 13.5828 7.56151C13.5097 6.63094 13.2052 5.73341 12.6969 4.95051C12.1886 4.16762 11.4926 3.5242 10.6723 3.07876C9.85206 2.63333 8.93343 2.4 8 2.4L8 0Z" fill="#878681"/>
</svg>
