<svg width="16" height="16" viewBox="0 0 16 16" fill="none" xmlns="http://www.w3.org/2000/svg">
<path d="M8 0C9.47538 1.75937e-08 10.922 0.407995 12.18 1.17888C13.438 1.94976 14.4582 3.0535 15.1281 4.36808C15.7979 5.68265 16.0911 7.15684 15.9753 8.62767C15.8596 10.0985 15.3393 11.5087 14.4721 12.7023C13.6049 13.8959 12.4245 14.8264 11.0615 15.391C9.6984 15.9556 8.20574 16.1323 6.74852 15.9015C5.29131 15.6707 3.9263 15.0414 2.80442 14.0832C1.68253 13.1251 0.847465 11.8753 0.391548 10.4721L2.67408 9.7305C2.99323 10.7127 3.57777 11.5875 4.36309 12.2583C5.14841 12.929 6.10392 13.3695 7.12397 13.5311C8.14402 13.6926 9.18888 13.5689 10.143 13.1737C11.0972 12.7785 11.9235 12.1271 12.5305 11.2916C13.1375 10.4561 13.5017 9.46895 13.5827 8.43937C13.6638 7.40979 13.4585 6.37785 12.9896 5.45765C12.5208 4.53745 11.8066 3.76483 10.926 3.22522C10.0454 2.6856 9.03277 2.4 8 2.4L8 0Z" fill="#878681"/>
</svg>
