<svg width="16" height="16" viewBox="0 0 16 16" fill="none" xmlns="http://www.w3.org/2000/svg">
<path d="M8 0C9.97709 2.35766e-08 11.8842 0.732111 13.3534 2.05512C14.8226 3.37813 15.7498 5.19832 15.9563 7.16461C16.1627 9.13089 15.6338 11.104 14.4714 12.7033C13.309 14.3026 11.5956 15.4149 9.66165 15.8255C7.72768 16.2362 5.71014 15.9162 3.99819 14.9272C2.28623 13.9382 1.00114 12.3503 0.390772 10.4697C-0.219593 8.58923 -0.111989 6.5493 0.692829 4.74343C1.49765 2.93756 2.94267 1.49367 4.74917 0.690274L5.72442 2.88319C4.45987 3.44557 3.44835 4.45629 2.88498 5.7204C2.32161 6.98451 2.24628 8.41246 2.67354 9.72882C3.1008 11.0452 4.00036 12.1567 5.19873 12.849C6.3971 13.5413 7.80938 13.7653 9.16316 13.4779C10.5169 13.1904 11.7163 12.4118 12.53 11.2923C13.3436 10.1728 13.7139 8.79162 13.5694 7.41522C13.4249 6.03882 12.7758 4.76469 11.7473 3.83859C10.7189 2.91248 9.38397 2.4 8 2.4L8 0Z" fill="#878681"/>
</svg>
