<svg width="16" height="16" viewBox="0 0 16 16" fill="none" xmlns="http://www.w3.org/2000/svg">
<path d="M8 0C9.12125 1.33708e-08 10.23 0.235698 11.2543 0.691807C12.2786 1.14792 13.1955 1.81425 13.9457 2.64758C14.6959 3.48091 15.2625 4.46263 15.6088 5.52906C15.9552 6.59549 16.0734 7.72281 15.956 8.83789C15.8386 9.95298 15.488 11.0309 14.9272 12.0018C14.3663 12.9727 13.6076 13.8148 12.7002 14.4736C11.7929 15.1324 10.7573 15.5931 9.66043 15.8258C8.56359 16.0585 7.43008 16.0581 6.33343 15.8245L6.8334 13.4771C7.60106 13.6406 8.39451 13.641 9.1623 13.4781C9.93008 13.3151 10.6551 12.9927 11.2902 12.5315C11.9253 12.0704 12.4564 11.4809 12.849 10.8013C13.2416 10.1216 13.487 9.36709 13.5692 8.58653C13.6514 7.80597 13.5686 7.01684 13.3262 6.27034C13.0838 5.52384 12.6871 4.83664 12.162 4.2533C11.6369 3.66997 10.995 3.20354 10.278 2.88426C9.56099 2.56499 8.78488 2.4 8 2.4L8 0Z" fill="#878681"/>
</svg>
