<svg width="16" height="16" viewBox="0 0 16 16" fill="none" xmlns="http://www.w3.org/2000/svg">
<path d="M8 0C9.54674 1.84446e-08 11.0603 0.448383 12.3575 1.29086C13.6546 2.13334 14.6797 3.33379 15.3087 4.74687C15.9377 6.15995 16.1435 7.72506 15.9013 9.25272C15.6591 10.7804 14.9792 12.2051 13.944 13.3543C12.9088 14.5035 11.5627 15.328 10.0685 15.7279C8.5744 16.1279 6.99636 16.0861 5.52548 15.6077C4.05459 15.1292 2.75394 14.2347 1.78099 13.0323C0.808038 11.8299 0.20451 10.3712 0.0434757 8.8329L2.43043 8.58303C2.54316 9.65986 2.96563 10.6809 3.64669 11.5226C4.32776 12.3643 5.23822 12.9905 6.26783 13.3254C7.29745 13.6603 8.40208 13.6895 9.44797 13.4096C10.4939 13.1296 11.4362 12.5525 12.1608 11.748C12.8855 10.9435 13.3614 9.94626 13.5309 8.8769C13.7005 7.80754 13.5564 6.71197 13.1161 5.72281C12.6758 4.73365 11.9582 3.89334 11.0502 3.3036C10.1422 2.71387 9.08271 2.4 8 2.4L8 0Z" fill="#878681"/>
</svg>
