<svg width="16" height="16" viewBox="0 0 16 16" fill="none" xmlns="http://www.w3.org/2000/svg">
<path d="M8 0C9.76122 2.10023e-08 11.4732 0.581194 12.8704 1.65343C14.2676 2.72566 15.272 4.229 15.7276 5.93026C16.1833 7.63151 16.0648 9.43558 15.3906 11.0626C14.7163 12.6897 13.524 14.0488 11.9985 14.929C10.4731 15.8093 8.6998 16.1616 6.95372 15.9313C5.20763 15.7009 3.58635 14.9008 2.34137 13.6551C1.09639 12.4093 0.297305 10.7875 0.0680592 9.0413C-0.161186 7.29507 0.192225 5.52199 1.07347 3.9971L3.15143 5.19797C2.53456 6.26539 2.28717 7.50655 2.44764 8.72891C2.60811 9.95128 3.16747 11.0865 4.03896 11.9586C4.91044 12.8306 6.04534 13.3907 7.2676 13.5519C8.48986 13.7131 9.73117 13.4665 10.799 12.8503C11.8668 12.2341 12.7014 11.2828 13.1734 10.1438C13.6454 9.00491 13.7283 7.74206 13.4093 6.55118C13.0904 5.3603 12.3873 4.30796 11.4093 3.5574C10.4312 2.80684 9.23285 2.4 8 2.4L8 0Z" fill="#878681"/>
</svg>
