<svg width="16" height="16" viewBox="0 0 16 16" fill="none" xmlns="http://www.w3.org/2000/svg">
<path d="M8 0C9.83294 2.18576e-08 11.6103 0.62942 13.0347 1.78296C14.4592 2.93651 15.4443 4.54421 15.8253 6.33712C16.2063 8.13002 15.96 9.99939 15.1278 11.6325C14.2955 13.2656 12.9277 14.5634 11.2531 15.3087C9.57858 16.0541 7.69886 16.2018 5.92844 15.7271C4.15801 15.2525 2.60427 14.1843 1.52713 12.7013C0.449983 11.2182 -0.0852236 9.41026 0.0110406 7.57985C0.107305 5.74944 0.829201 4.00759 2.05596 2.64571L3.83917 4.252C2.98044 5.20532 2.47511 6.42461 2.40773 7.70589C2.34034 8.98718 2.71499 10.2528 3.46899 11.2909C4.22299 12.329 5.31061 13.0768 6.54991 13.409C7.7892 13.7412 9.105 13.6378 10.2772 13.1161C11.4494 12.5943 12.4069 11.6859 12.9894 10.5427C13.572 9.39957 13.7444 8.09102 13.4777 6.83598C13.211 5.58095 12.5214 4.45556 11.5243 3.64808C10.5272 2.84059 9.28306 2.4 8 2.4L8 0Z" fill="#878681"/>
</svg>
