<svg width="16" height="16" viewBox="0 0 16 16" fill="none" xmlns="http://www.w3.org/2000/svg">
<path d="M8 0C9.90483 2.27148e-08 11.7471 0.679668 13.1956 1.91675C14.644 3.15384 15.6035 4.86715 15.9015 6.74853C16.1995 8.6299 15.8164 10.5559 14.8211 12.18C13.8259 13.8041 12.2837 15.0198 10.4721 15.6085C8.66054 16.1971 6.69836 16.12 4.93853 15.391C3.1787 14.6621 1.73672 13.3291 0.871947 11.6319C0.0071747 9.93471 -0.223632 7.98463 0.221041 6.13243C0.665715 4.28024 1.75668 2.64749 3.29772 1.52786L4.7084 3.4695C3.62968 4.25324 2.866 5.39617 2.55473 6.6927C2.24346 7.98924 2.40502 9.3543 3.01036 10.5423C3.6157 11.7304 4.62509 12.6635 5.85697 13.1737C7.08885 13.684 8.46238 13.738 9.73049 13.3259C10.9986 12.9139 12.0781 12.0629 12.7748 10.926C13.4715 9.7891 13.7396 8.44093 13.5311 7.12397C13.3225 5.80701 12.6508 4.60769 11.6369 3.74173C10.623 2.87577 9.33338 2.4 8 2.4L8 0Z" fill="#878681"/>
</svg>
