<svg width="16" height="16" viewBox="0 0 16 16" fill="none" xmlns="http://www.w3.org/2000/svg">
<path d="M8 0C9.68943 2.01463e-08 11.3355 0.53484 12.7023 1.52786C14.0691 2.52089 15.0864 3.92112 15.6085 5.52786C16.1305 7.13461 16.1305 8.86539 15.6085 10.4721C15.0864 12.0789 14.0691 13.4791 12.7023 14.4721C11.3355 15.4652 9.68943 16 8 16C6.31057 16 4.6645 15.4652 3.29772 14.4721C1.93094 13.4791 0.913611 12.0789 0.391548 10.4721C-0.130516 8.86539 -0.130516 7.13461 0.391548 5.52786L2.67408 6.2695C2.30864 7.39423 2.30864 8.60577 2.67408 9.73049C3.03953 10.8552 3.75166 11.8354 4.7084 12.5305C5.66515 13.2256 6.8174 13.6 8 13.6C9.1826 13.6 10.3349 13.2256 11.2916 12.5305C12.2483 11.8354 12.9605 10.8552 13.3259 9.7305C13.6914 8.60577 13.6914 7.39423 13.3259 6.26951C12.9605 5.14478 12.2483 4.16462 11.2916 3.46951C10.3349 2.77439 9.1826 2.4 8 2.4L8 0Z" fill="#878681"/>
</svg>
