<svg width="16" height="16" viewBox="0 0 16 16" fill="none" xmlns="http://www.w3.org/2000/svg">
<path d="M16 8C16 12.4183 12.4183 16 8 16C3.58172 16 0 12.4183 0 8C0 3.58172 3.58172 0 8 0C12.4183 0 16 3.58172 16 8ZM2.4 8C2.4 11.0928 4.90721 13.6 8 13.6C11.0928 13.6 13.6 11.0928 13.6 8C13.6 4.90721 11.0928 2.4 8 2.4C4.90721 2.4 2.4 4.90721 2.4 8Z" fill="#DEDEDE"/>
<path d="M8 0C9.05058 1.2528e-08 10.0909 0.206926 11.0615 0.608964C12.0321 1.011 12.914 1.60028 13.6569 2.34315C14.3997 3.08602 14.989 3.96793 15.391 4.93853C15.7931 5.90914 16 6.94943 16 8L13.6 8C13.6 7.2646 13.4552 6.5364 13.1737 5.85697C12.8923 5.17755 12.4798 4.56021 11.9598 4.0402C11.4398 3.52019 10.8225 3.1077 10.143 2.82627C9.4636 2.54485 8.7354 2.4 8 2.4L8 0Z" fill="#282828"/>
</svg>
