<svg width="16" height="16" viewBox="0 0 16 16" fill="none" xmlns="http://www.w3.org/2000/svg">
<path d="M16 8C16 12.4183 12.4183 16 8 16C3.58172 16 0 12.4183 0 8C0 3.58172 3.58172 0 8 0C12.4183 0 16 3.58172 16 8ZM2.4 8C2.4 11.0928 4.90721 13.6 8 13.6C11.0928 13.6 13.6 11.0928 13.6 8C13.6 4.90721 11.0928 2.4 8 2.4C4.90721 2.4 2.4 4.90721 2.4 8Z" fill="#DEDEDE"/>
<path d="M8 0C9.40373 1.67393e-08 10.7827 0.369351 11.9985 1.07096C13.2144 1.77257 14.2242 2.78173 14.9265 3.9971L12.8486 5.19797C12.3569 4.34721 11.6501 3.6408 10.799 3.14967C9.94792 2.65855 8.98261 2.4 8 2.4L8 0Z" fill="#282828"/>
</svg>
