<svg width="16" height="16" viewBox="0 0 16 16" fill="none" xmlns="http://www.w3.org/2000/svg">
<path d="M8 0C9.26248 1.5055e-08 10.507 0.298792 11.6319 0.871948C12.7568 1.4451 13.7301 2.27635 14.4721 3.29772C15.2142 4.31909 15.704 5.50158 15.9015 6.74852C16.099 7.99546 15.9986 9.27144 15.6085 10.4721C15.2183 11.6728 14.5496 12.7641 13.6569 13.6569C12.7641 14.5496 11.6728 15.2183 10.4721 15.6085C9.27145 15.9986 7.99547 16.099 6.74853 15.9015C5.50159 15.704 4.31909 15.2142 3.29772 14.4721L4.7084 12.5305C5.42336 13.0499 6.25111 13.3928 7.12397 13.5311C7.99683 13.6693 8.89001 13.599 9.7305 13.3259C10.571 13.0528 11.3349 12.5847 11.9598 11.9598C12.5847 11.3349 13.0528 10.571 13.3259 9.73049C13.599 8.89001 13.6693 7.99682 13.5311 7.12397C13.3928 6.25111 13.0499 5.42336 12.5305 4.7084C12.011 3.99344 11.3298 3.41157 10.5423 3.01036C9.75493 2.60915 8.88374 2.4 8 2.4L8 0Z" fill="#878681"/>
</svg>
