<svg width="16" height="16" viewBox="0 0 16 16" fill="none" xmlns="http://www.w3.org/2000/svg">
<path d="M16 8C16 12.4183 12.4183 16 8 16C3.58172 16 0 12.4183 0 8C0 3.58172 3.58172 0 8 0C12.4183 0 16 3.58172 16 8ZM2.4 8C2.4 11.0928 4.90721 13.6 8 13.6C11.0928 13.6 13.6 11.0928 13.6 8C13.6 4.90721 11.0928 2.4 8 2.4C4.90721 2.4 2.4 4.90721 2.4 8Z" fill="#DEDEDE"/>
<path d="M8 0C9.40436 1.67469e-08 10.784 0.369687 12.0002 1.0719C13.2164 1.77412 14.2263 2.78411 14.9284 4.00036C15.6305 5.21661 16.0001 6.59626 16 8.00063C15.9999 9.40499 15.6301 10.7846 14.9278 12.0007C14.2255 13.2169 13.2154 14.2267 11.9991 14.9287C10.7828 15.6307 9.40311 16.0002 7.99875 16C6.59438 15.9998 5.21482 15.6299 3.99873 14.9275C2.78265 14.2251 1.77289 13.2149 1.07096 11.9986L3.14967 10.799C3.64102 11.6504 4.34785 12.3575 5.19911 12.8492C6.05037 13.3409 7.01607 13.5998 7.99912 13.6C8.98218 13.6002 9.94795 13.3415 10.7994 12.8501C11.6508 12.3587 12.3578 11.6518 12.8494 10.8005C13.3411 9.94921 13.5999 8.98349 13.6 8.00044C13.6001 7.01738 13.3414 6.05163 12.8499 5.20025C12.3584 4.34888 11.6515 3.64188 10.8001 3.15033C9.94879 2.65878 8.98305 2.4 8 2.4L8 0Z" fill="#282828"/>
</svg>
