<svg width="16" height="16" viewBox="0 0 16 16" fill="none" xmlns="http://www.w3.org/2000/svg">
<path d="M8 0C9.61801 1.92946e-08 11.198 0.490621 12.5314 1.40711C13.8648 2.3236 14.889 3.62287 15.4688 5.13345C16.0486 6.64402 16.1567 8.29489 15.7788 9.86817C15.401 11.4415 14.555 12.8632 13.3524 13.9457C12.1499 15.0283 10.6474 15.7207 9.04317 15.9317C7.43897 16.1427 5.8085 15.8623 4.36696 15.1275C2.92541 14.3927 1.74055 13.2381 0.968764 11.816C0.196975 10.3939 -0.125465 8.77122 0.044 7.16211L2.4308 7.41348C2.31217 8.53986 2.53788 9.67573 3.07814 10.6712C3.61839 11.6666 4.44779 12.4749 5.45687 12.9892C6.46595 13.5036 7.60728 13.6999 8.73022 13.5522C9.85316 13.4045 10.9049 12.9198 11.7467 12.162C12.5885 11.4042 13.1807 10.409 13.4452 9.30772C13.7097 8.20643 13.634 7.05082 13.2282 5.99341C12.8223 4.93601 12.1054 4.02652 11.172 3.38498C10.2386 2.74343 9.13261 2.4 8 2.4L8 0Z" fill="#878681"/>
</svg>
