<svg width="16" height="16" viewBox="0 0 16 16" fill="none" xmlns="http://www.w3.org/2000/svg">
<path d="M6.95821 12.6442C6.58709 12.7405 6.23962 12.6952 5.9158 12.5082C5.59198 12.3213 5.37723 12.0461 5.27154 11.6826C5.16585 11.3192 5.20856 10.972 5.39967 10.641L7.79096 12.0216C7.59984 12.3526 7.32226 12.5601 6.95821 12.6442ZM11.525 12.0687C11.5663 12.256 11.5445 12.4232 11.4596 12.5704C11.3676 12.7297 11.2319 12.8353 11.0525 12.8871C10.8732 12.9388 10.6964 12.9144 10.522 12.8137L3.34815 8.67186C3.23606 8.60715 3.14924 8.52024 3.08768 8.41114C3.02612 8.30204 2.99698 8.18714 3.00025 8.06642C3.00352 7.94571 3.03346 7.83631 3.09009 7.73823C3.17503 7.59111 3.30894 7.48861 3.49181 7.43073C3.51134 7.42566 3.54418 7.41192 3.59033 7.38953C3.88332 7.31349 4.12522 7.23247 4.31602 7.14647C4.50683 7.06047 4.78306 6.84807 5.14473 6.50926C5.5064 6.17046 5.84296 5.73134 6.1544 5.1919C6.56495 4.48082 7.14658 3.99112 7.89932 3.72281C8.65205 3.45449 9.41607 3.45424 10.1914 3.72206L10.4144 3.33587C10.5064 3.17649 10.6452 3.07272 10.8307 3.02456C11.0163 2.9764 11.19 2.99906 11.3519 3.09254C11.5138 3.18602 11.6203 3.32515 11.6714 3.50993C11.7225 3.69471 11.702 3.86679 11.61 4.02617L11.387 4.41236C11.7983 4.76424 12.1067 5.1793 12.3121 5.65755C12.5176 6.1358 12.6063 6.63653 12.5782 7.15976C12.5501 7.68299 12.4016 8.17753 12.1326 8.64342C11.8212 9.18286 11.6092 9.69388 11.4966 10.1765C11.384 10.6591 11.3382 11.0045 11.3591 11.2128C11.38 11.421 11.4308 11.671 11.5114 11.9628C11.5151 12.0139 11.5196 12.0493 11.525 12.0687Z" fill="#6A6C6E"/>
</svg>
