<svg width="23" height="23" viewBox="0 0 23 23" fill="none" xmlns="http://www.w3.org/2000/svg">
<path d="M12.9697 19.6667V4L7.27273 8.27273H3V15.3939H7.27273L12.9697 19.6667Z" fill="#6A6C6E"/>
<path d="M16.6034 17.5378C17.6548 16.9994 18.5369 16.1808 19.1524 15.1724C19.7678 14.1641 20.0926 13.0054 20.0909 11.8241C20.0892 10.6428 19.761 9.48495 19.1426 8.47844C18.5243 7.47193 17.6397 6.6559 16.5868 6.12047L15.9486 7.37541C16.7703 7.79322 17.4605 8.43 17.9431 9.21541C18.4256 10.0008 18.6817 10.9043 18.683 11.8261C18.6844 12.7479 18.4309 13.6522 17.9507 14.439C17.4704 15.2258 16.7821 15.8646 15.9616 16.2848L16.6034 17.5378Z" fill="#6A6C6E"/>
<path d="M15.3051 15.0024C15.8892 14.7033 16.3792 14.2485 16.7212 13.6883C17.0631 13.1282 17.2435 12.4844 17.2425 11.8281C17.2416 11.1719 17.0593 10.5286 16.7157 9.96944C16.3722 9.41027 15.8808 8.95692 15.2958 8.65946L14.6591 9.91157C15.0133 10.0917 15.3109 10.3662 15.5189 10.7048C15.7269 11.0433 15.8373 11.4328 15.8379 11.8302C15.8384 12.2275 15.7292 12.6173 15.5222 12.9565C15.3151 13.2957 15.0184 13.5711 14.6647 13.7522L15.3051 15.0024Z" fill="#6A6C6E"/>
</svg>
