<svg width="24" height="24" viewBox="0 0 24 24" fill="none" xmlns="http://www.w3.org/2000/svg">
<path d="M18.9534 12.3439L21.9348 12.6762C21.9631 12.4228 21.9824 12.1666 21.9923 11.908C21.9974 11.7726 22 11.6366 22 11.5C22 11.1024 21.9779 10.7099 21.9348 10.3238L18.9534 10.6561C18.9841 10.9321 19 11.2136 19 11.5C19 11.6259 18.9969 11.7508 18.9908 11.8748C18.9832 12.0328 18.9706 12.1892 18.9534 12.3439Z" fill="#D2CDBA"/>
<path d="M17.3652 6.82513L19.7096 4.95319C19.2191 4.3389 18.6611 3.78091 18.0469 3.29041L16.1749 5.6347C16.6146 5.98584 17.0142 6.38541 17.3652 6.82513Z" fill="#D2CDBA"/>
<path d="M11.5 1C11.8976 1 12.29 1.02209 12.6763 1.06516L12.3439 4.04669C12.0679 4.0159 11.7864 4 11.5 4C11.2136 4 10.9321 4.0159 10.6561 4.04669L10.3237 1.06516C10.71 1.02209 11.1024 1 11.5 1Z" fill="#D2CDBA"/>
<path d="M6.82507 5.6347L4.95312 3.29041C4.33887 3.78091 3.78088 4.3389 3.29041 4.95319L5.63477 6.82513C5.98584 6.38541 6.38538 5.98584 6.82507 5.6347Z" fill="#D2CDBA"/>
<path d="M1 11.5C1 11.1024 1.02209 10.7099 1.06519 10.3238L4.04663 10.6561C4.01587 10.9321 4 11.2136 4 11.5C4 11.7864 4.01587 12.0679 4.04663 12.3439L1.06519 12.6762C1.02209 12.2901 1 11.8976 1 11.5Z" fill="#D2CDBA"/>
<path d="M5.63477 16.1749L3.29041 18.0468C3.78088 18.6611 4.33887 19.2191 4.95312 19.7096L6.82507 17.3653C6.38538 17.0142 5.98584 16.6146 5.63477 16.1749Z" fill="#D2CDBA"/>
<path d="M10.6561 18.9533L10.3237 21.9348C10.71 21.9779 11.1024 22 11.5 22C11.8976 22 12.29 21.9779 12.6763 21.9348L12.3439 18.9533C12.0679 18.9841 11.7864 19 11.5 19C11.2136 19 10.9321 18.9841 10.6561 18.9533Z" fill="#D2CDBA"/>
<path d="M16.1749 17.3653L18.0469 19.7096C18.6611 19.2191 19.2191 18.6611 19.7096 18.0468L17.3652 16.1749C17.0142 16.6146 16.6146 17.0142 16.1749 17.3653Z" fill="#D2CDBA"/>
<path d="M11.5 18C15.0898 18 18 15.0898 18 11.5C18 7.91016 15.0898 5 11.5 5C7.91016 5 5 7.91016 5 11.5C5 15.0898 7.91016 18 11.5 18Z" fill="#D2CDBA"/>
</svg>
