<svg width="288" height="288" viewBox="0 0 288 288" fill="none" xmlns="http://www.w3.org/2000/svg">
<circle cx="144" cy="144" r="138" stroke="#616665" stroke-width="12" stroke-dasharray="1.4 3"/>
<path d="M144 0C173.098 3.46996e-07 201.514 8.81556 225.503 25.2851C249.492 41.7547 267.929 65.1055 278.384 92.2609C288.839 119.416 290.822 149.102 284.071 177.406C277.321 205.711 262.154 231.306 240.568 250.82L232.576 241.979C252.374 224.08 266.286 200.603 272.478 174.641C278.67 148.68 276.851 121.451 267.261 96.5432C257.672 71.6354 240.761 50.2173 218.757 35.1109C196.754 20.0044 170.69 11.9185 144 11.9185V0Z" fill="#C23E3E"/>
<circle cx="144" cy="144" r="126.5" stroke="#959C9B" stroke-width="3" stroke-dasharray="2 11"/>
<path d="M115.775 123.535C119.847 123.535 122.792 125.212 124.608 128.567C126.014 131.16 126.718 134.712 126.718 139.224C126.718 143.501 126.08 147.039 124.806 149.836C122.96 153.85 119.943 155.857 115.753 155.857C111.974 155.857 109.161 154.216 107.316 150.935C105.778 148.196 105.009 144.519 105.009 139.905C105.009 136.331 105.47 133.262 106.393 130.698C108.121 125.923 111.249 123.535 115.775 123.535ZM115.731 152.253C117.782 152.253 119.415 151.345 120.631 149.529C121.847 147.712 122.455 144.329 122.455 139.377C122.455 135.803 122.015 132.866 121.137 130.566C120.258 128.252 118.551 127.095 116.017 127.095C113.688 127.095 111.981 128.193 110.897 130.391C109.828 132.573 109.293 135.796 109.293 140.059C109.293 143.267 109.638 145.845 110.326 147.793C111.381 150.767 113.182 152.253 115.731 152.253ZM134.928 147.397C135.045 149.58 135.887 151.089 137.455 151.924C138.26 152.363 139.168 152.583 140.179 152.583C142.069 152.583 143.68 151.799 145.013 150.232C146.346 148.65 147.291 145.449 147.848 140.63C146.969 142.021 145.877 143.003 144.574 143.574C143.285 144.131 141.893 144.409 140.399 144.409C137.367 144.409 134.964 143.464 133.192 141.575C131.434 139.685 130.555 137.253 130.555 134.28C130.555 131.423 131.427 128.911 133.17 126.743C134.913 124.575 137.484 123.491 140.882 123.491C145.467 123.491 148.631 125.557 150.375 129.688C151.341 131.958 151.825 134.8 151.825 138.213C151.825 142.065 151.246 145.479 150.089 148.452C148.17 153.403 144.918 155.879 140.333 155.879C137.257 155.879 134.92 155.073 133.324 153.462C131.727 151.851 130.929 149.829 130.929 147.397H134.928ZM140.926 140.938C142.494 140.938 143.922 140.425 145.211 139.399C146.515 138.359 147.167 136.55 147.167 133.972C147.167 131.658 146.581 129.937 145.409 128.809C144.251 127.666 142.772 127.095 140.97 127.095C139.037 127.095 137.499 127.747 136.356 129.05C135.228 130.339 134.664 132.068 134.664 134.236C134.664 136.287 135.162 137.92 136.158 139.136C137.154 140.337 138.744 140.938 140.926 140.938Z" fill="#E2E6E5"/>
<path d="M162.965 135.723C163.105 136.926 163.664 137.758 164.641 138.219C165.141 138.453 165.719 138.57 166.375 138.57C167.625 138.57 168.551 138.172 169.152 137.375C169.754 136.578 170.055 135.695 170.055 134.727C170.055 133.555 169.695 132.648 168.977 132.008C168.266 131.367 167.41 131.047 166.41 131.047C165.684 131.047 165.059 131.188 164.535 131.469C164.02 131.75 163.578 132.141 163.211 132.641L161.383 132.535L162.66 123.5H171.379V125.539H164.242L163.527 130.203C163.918 129.906 164.289 129.684 164.641 129.535C165.266 129.277 165.988 129.148 166.809 129.148C168.348 129.148 169.652 129.645 170.723 130.637C171.793 131.629 172.328 132.887 172.328 134.41C172.328 135.996 171.836 137.395 170.852 138.605C169.875 139.816 168.312 140.422 166.164 140.422C164.797 140.422 163.586 140.039 162.531 139.273C161.484 138.5 160.898 137.316 160.773 135.723H162.965ZM176.847 135.945C176.909 137.109 177.359 137.914 178.195 138.359C178.624 138.594 179.109 138.711 179.648 138.711C180.655 138.711 181.515 138.293 182.226 137.457C182.937 136.613 183.441 134.906 183.738 132.336C183.269 133.078 182.687 133.602 181.991 133.906C181.304 134.203 180.562 134.352 179.765 134.352C178.148 134.352 176.866 133.848 175.921 132.84C174.984 131.832 174.515 130.535 174.515 128.949C174.515 127.426 174.98 126.086 175.909 124.93C176.839 123.773 178.21 123.195 180.023 123.195C182.468 123.195 184.155 124.297 185.085 126.5C185.601 127.711 185.859 129.227 185.859 131.047C185.859 133.102 185.55 134.922 184.933 136.508C183.909 139.148 182.175 140.469 179.73 140.469C178.089 140.469 176.843 140.039 175.991 139.18C175.14 138.32 174.714 137.242 174.714 135.945H176.847ZM180.046 132.5C180.882 132.5 181.644 132.227 182.331 131.68C183.027 131.125 183.374 130.16 183.374 128.785C183.374 127.551 183.062 126.633 182.437 126.031C181.82 125.422 181.03 125.117 180.07 125.117C179.038 125.117 178.218 125.465 177.609 126.16C177.007 126.848 176.706 127.77 176.706 128.926C176.706 130.02 176.972 130.891 177.503 131.539C178.034 132.18 178.882 132.5 180.046 132.5Z" fill="#E2E6E5"/>
<path d="M132.058 94.5117C133.415 94.5117 134.396 95.0708 135.002 96.189C135.471 97.0532 135.705 98.2373 135.705 99.7412C135.705 101.167 135.493 102.346 135.068 103.279C134.453 104.617 133.447 105.286 132.05 105.286C130.791 105.286 129.853 104.739 129.238 103.645C128.725 102.732 128.469 101.506 128.469 99.9683C128.469 98.7769 128.623 97.7539 128.93 96.8994C129.506 95.3076 130.549 94.5117 132.058 94.5117ZM132.043 104.084C132.727 104.084 133.271 103.782 133.676 103.176C134.082 102.571 134.284 101.443 134.284 99.7925C134.284 98.6011 134.138 97.6221 133.845 96.8555C133.552 96.084 132.983 95.6982 132.138 95.6982C131.362 95.6982 130.793 96.0645 130.432 96.7969C130.075 97.5244 129.897 98.5986 129.897 100.02C129.897 101.089 130.012 101.948 130.241 102.598C130.593 103.589 131.193 104.084 132.043 104.084ZM136.818 105C136.867 104.097 137.053 103.311 137.375 102.642C137.702 101.973 138.337 101.365 139.279 100.818L140.686 100.005C141.315 99.6387 141.757 99.3262 142.011 99.0674C142.412 98.6621 142.612 98.1982 142.612 97.6758C142.612 97.0654 142.429 96.582 142.062 96.2256C141.696 95.8643 141.208 95.6836 140.598 95.6836C139.694 95.6836 139.069 96.0254 138.723 96.709C138.537 97.0752 138.435 97.583 138.415 98.2324H137.075C137.089 97.3193 137.258 96.5747 137.58 95.9985C138.151 94.9829 139.16 94.4751 140.605 94.4751C141.806 94.4751 142.683 94.7998 143.234 95.4492C143.791 96.0986 144.069 96.8213 144.069 97.6172C144.069 98.457 143.774 99.1748 143.183 99.7705C142.841 100.117 142.229 100.537 141.345 101.03L140.341 101.587C139.863 101.851 139.487 102.102 139.213 102.341C138.725 102.766 138.417 103.237 138.291 103.755H144.018V105H136.818ZM146.362 97.2583H147.893V98.855H146.362V97.2583ZM146.362 103.403H147.893V105H146.362V103.403ZM152.771 105.286C151.53 105.286 150.629 104.946 150.068 104.268C149.511 103.584 149.233 102.754 149.233 101.777H150.61C150.668 102.456 150.795 102.949 150.991 103.257C151.333 103.809 151.95 104.084 152.844 104.084C153.537 104.084 154.094 103.899 154.514 103.528C154.934 103.157 155.144 102.678 155.144 102.092C155.144 101.37 154.921 100.864 154.477 100.576C154.038 100.288 153.425 100.144 152.639 100.144C152.551 100.144 152.46 100.146 152.368 100.151C152.28 100.151 152.189 100.154 152.097 100.159V98.9941C152.233 99.0088 152.348 99.0186 152.441 99.0234C152.534 99.0283 152.634 99.0308 152.741 99.0308C153.234 99.0308 153.64 98.9526 153.957 98.7964C154.514 98.5229 154.792 98.0347 154.792 97.3315C154.792 96.8091 154.606 96.4062 154.235 96.123C153.864 95.8398 153.432 95.6982 152.939 95.6982C152.06 95.6982 151.452 95.9912 151.115 96.5771C150.93 96.8994 150.825 97.3584 150.8 97.9541H149.497C149.497 97.1729 149.653 96.5088 149.965 95.9619C150.502 94.9854 151.447 94.4971 152.8 94.4971C153.869 94.4971 154.697 94.7363 155.283 95.2148C155.869 95.6885 156.162 96.377 156.162 97.2803C156.162 97.9248 155.988 98.4473 155.642 98.8477C155.427 99.0967 155.148 99.292 154.807 99.4336C155.358 99.585 155.788 99.8779 156.096 100.312C156.408 100.742 156.564 101.27 156.564 101.895C156.564 102.896 156.235 103.711 155.576 104.341C154.917 104.971 153.981 105.286 152.771 105.286ZM159.216 102.466C159.255 103.193 159.536 103.696 160.058 103.975C160.327 104.121 160.629 104.194 160.966 104.194C161.596 104.194 162.133 103.933 162.578 103.411C163.022 102.883 163.337 101.816 163.522 100.21C163.229 100.674 162.866 101.001 162.431 101.191C162.001 101.377 161.538 101.47 161.04 101.47C160.029 101.47 159.228 101.155 158.637 100.525C158.051 99.895 157.758 99.0845 157.758 98.0933C157.758 97.1411 158.049 96.3037 158.63 95.5811C159.211 94.8584 160.068 94.4971 161.201 94.4971C162.729 94.4971 163.784 95.1855 164.365 96.5625C164.687 97.3193 164.848 98.2666 164.848 99.4043C164.848 100.688 164.655 101.826 164.27 102.817C163.63 104.468 162.546 105.293 161.018 105.293C159.992 105.293 159.213 105.024 158.681 104.487C158.149 103.95 157.883 103.276 157.883 102.466H159.216ZM161.215 100.312C161.738 100.312 162.214 100.142 162.644 99.7998C163.078 99.4531 163.295 98.8501 163.295 97.9907C163.295 97.2192 163.1 96.6455 162.709 96.2695C162.324 95.8887 161.831 95.6982 161.23 95.6982C160.585 95.6982 160.073 95.9155 159.692 96.3501C159.316 96.7798 159.128 97.356 159.128 98.0786C159.128 98.7622 159.294 99.3066 159.626 99.7119C159.958 100.112 160.488 100.312 161.215 100.312Z" fill="#959C9B"/>
<rect x="101" y="173" width="87" height="34" rx="17" fill="#616665"/>
<path d="M129.145 189.17C129.829 189.17 130.368 189.033 130.764 188.76C131.164 188.486 131.364 187.993 131.364 187.28C131.364 186.514 131.086 185.991 130.529 185.713C130.231 185.566 129.833 185.493 129.335 185.493H125.776V189.17H129.145ZM124.318 184.241H129.299C130.119 184.241 130.795 184.36 131.328 184.6C132.338 185.059 132.844 185.906 132.844 187.141C132.844 187.786 132.709 188.313 132.441 188.723C132.177 189.133 131.806 189.463 131.328 189.712C131.748 189.883 132.062 190.107 132.272 190.386C132.487 190.664 132.607 191.116 132.631 191.741L132.683 193.184C132.697 193.594 132.731 193.899 132.785 194.099C132.873 194.441 133.029 194.661 133.254 194.758V195H131.467C131.418 194.907 131.379 194.788 131.35 194.641C131.32 194.495 131.296 194.211 131.276 193.792L131.188 191.997C131.154 191.294 130.893 190.823 130.405 190.583C130.126 190.452 129.689 190.386 129.094 190.386H125.776V195H124.318V184.241ZM138.873 186.98C139.43 186.98 139.969 187.112 140.492 187.375C141.014 187.634 141.412 187.971 141.686 188.386C141.949 188.782 142.125 189.243 142.213 189.771C142.291 190.132 142.33 190.708 142.33 191.499H136.581C136.605 192.295 136.793 192.935 137.145 193.418C137.496 193.896 138.041 194.136 138.778 194.136C139.467 194.136 140.016 193.909 140.426 193.455C140.66 193.191 140.826 192.886 140.924 192.539H142.22C142.186 192.827 142.071 193.149 141.876 193.506C141.686 193.857 141.471 194.146 141.232 194.37C140.831 194.761 140.336 195.024 139.745 195.161C139.427 195.239 139.069 195.278 138.668 195.278C137.692 195.278 136.864 194.924 136.185 194.216C135.507 193.503 135.167 192.507 135.167 191.228C135.167 189.968 135.509 188.945 136.193 188.159C136.876 187.373 137.77 186.98 138.873 186.98ZM140.975 190.452C140.922 189.88 140.797 189.424 140.602 189.082C140.24 188.447 139.637 188.13 138.793 188.13C138.187 188.13 137.679 188.35 137.269 188.789C136.859 189.224 136.642 189.778 136.617 190.452H140.975ZM145.54 192.539C145.579 192.979 145.689 193.315 145.87 193.55C146.202 193.975 146.778 194.187 147.598 194.187C148.086 194.187 148.516 194.082 148.887 193.872C149.258 193.657 149.444 193.328 149.444 192.883C149.444 192.546 149.295 192.29 148.997 192.114C148.807 192.007 148.431 191.882 147.869 191.741L146.822 191.477C146.153 191.311 145.66 191.125 145.342 190.92C144.776 190.564 144.493 190.071 144.493 189.441C144.493 188.699 144.759 188.098 145.291 187.639C145.828 187.18 146.548 186.951 147.452 186.951C148.633 186.951 149.485 187.297 150.008 187.991C150.335 188.43 150.494 188.904 150.484 189.412H149.239C149.214 189.114 149.109 188.843 148.924 188.599C148.621 188.252 148.096 188.079 147.349 188.079C146.851 188.079 146.473 188.174 146.214 188.364C145.96 188.555 145.833 188.806 145.833 189.119C145.833 189.46 146.001 189.734 146.338 189.939C146.534 190.061 146.822 190.168 147.203 190.261L148.074 190.474C149.021 190.703 149.656 190.925 149.978 191.14C150.491 191.477 150.747 192.007 150.747 192.729C150.747 193.428 150.481 194.031 149.949 194.539C149.422 195.046 148.616 195.3 147.532 195.3C146.365 195.3 145.538 195.037 145.049 194.509C144.566 193.977 144.307 193.32 144.273 192.539H145.54ZM156.323 186.98C156.879 186.98 157.419 187.112 157.942 187.375C158.464 187.634 158.862 187.971 159.135 188.386C159.399 188.782 159.575 189.243 159.663 189.771C159.741 190.132 159.78 190.708 159.78 191.499H154.03C154.055 192.295 154.243 192.935 154.594 193.418C154.946 193.896 155.49 194.136 156.228 194.136C156.916 194.136 157.465 193.909 157.876 193.455C158.11 193.191 158.276 192.886 158.374 192.539H159.67C159.636 192.827 159.521 193.149 159.326 193.506C159.135 193.857 158.921 194.146 158.681 194.37C158.281 194.761 157.785 195.024 157.194 195.161C156.877 195.239 156.518 195.278 156.118 195.278C155.141 195.278 154.314 194.924 153.635 194.216C152.956 193.503 152.617 192.507 152.617 191.228C152.617 189.968 152.959 188.945 153.642 188.159C154.326 187.373 155.219 186.98 156.323 186.98ZM158.425 190.452C158.371 189.88 158.247 189.424 158.051 189.082C157.69 188.447 157.087 188.13 156.242 188.13C155.637 188.13 155.129 188.35 154.719 188.789C154.309 189.224 154.091 189.778 154.067 190.452H158.425ZM162.47 184.966H163.803V187.156H165.055V188.232H163.803V193.352C163.803 193.625 163.895 193.809 164.081 193.901C164.183 193.955 164.354 193.982 164.594 193.982C164.657 193.982 164.725 193.982 164.799 193.982C164.872 193.977 164.957 193.97 165.055 193.96V195C164.904 195.044 164.745 195.076 164.579 195.095C164.418 195.115 164.242 195.125 164.052 195.125C163.436 195.125 163.019 194.968 162.799 194.656C162.579 194.338 162.47 193.928 162.47 193.425V188.232H161.408V187.156H162.47V184.966Z" fill="white"/>
<path d="M115.958 104.644C115.587 104.74 115.24 104.695 114.916 104.508C114.592 104.321 114.377 104.046 114.272 103.683C114.166 103.319 114.209 102.972 114.4 102.641L116.791 104.022C116.6 104.353 116.322 104.56 115.958 104.644ZM120.525 104.069C120.566 104.256 120.545 104.423 120.46 104.57C120.368 104.73 120.232 104.835 120.053 104.887C119.873 104.939 119.696 104.914 119.522 104.814L112.348 100.672C112.236 100.607 112.149 100.52 112.088 100.411C112.026 100.302 111.997 100.187 112 100.066C112.004 99.9457 112.033 99.8363 112.09 99.7382C112.175 99.5911 112.309 99.4886 112.492 99.4307C112.511 99.4257 112.544 99.4119 112.59 99.3895C112.883 99.3135 113.125 99.2325 113.316 99.1465C113.507 99.0605 113.783 98.8481 114.145 98.5093C114.506 98.1705 114.843 97.7313 115.154 97.1919C115.565 96.4808 116.147 95.9911 116.899 95.7228C117.652 95.4545 118.416 95.4542 119.191 95.7221L119.414 95.3359C119.506 95.1765 119.645 95.0727 119.831 95.0246C120.016 94.9764 120.19 94.9991 120.352 95.0925C120.514 95.186 120.62 95.3251 120.671 95.5099C120.722 95.6947 120.702 95.8668 120.61 96.0262L120.387 96.4124C120.798 96.7642 121.107 97.1793 121.312 97.6575C121.518 98.1358 121.606 98.6365 121.578 99.1598C121.55 99.683 121.402 100.178 121.133 100.643C120.821 101.183 120.609 101.694 120.497 102.177C120.384 102.659 120.338 103.005 120.359 103.213C120.38 103.421 120.431 103.671 120.511 103.963C120.515 104.014 120.52 104.049 120.525 104.069Z" fill="#959C9B"/>
</svg>
