<svg width="196" height="51" viewBox="0 0 196 51" fill="none" xmlns="http://www.w3.org/2000/svg">
<g clip-path="url(#clip0)">
<path d="M184.035 -8.08073e-05H11.9718C11.5113 -8.08073e-05 11.0564 -8.08072e-05 10.5972 0.00243201C10.2128 0.00494483 9.83147 0.0122446 9.44338 0.0183884C8.60026 0.0283163 7.75912 0.102538 6.92728 0.240409C6.0966 0.381281 5.29195 0.646865 4.54053 1.02818C3.79003 1.41272 3.10428 1.91239 2.50815 2.50906C1.90889 3.10405 1.40937 3.79179 1.02878 4.54581C0.647137 5.29834 0.382507 6.10474 0.244026 6.93716C0.104229 7.76854 0.0290024 8.6095 0.0190224 9.4525C0.00737038 9.83771 0.00613989 10.2242 0 10.6095V39.6505C0.00613989 40.0406 0.00737038 40.4185 0.0190098 40.8087C0.0289929 41.6517 0.104219 42.4926 0.244014 43.324C0.382112 44.1569 0.646758 44.9637 1.02876 45.7165C1.40918 46.4681 1.90879 47.1531 2.50815 47.7448C3.10202 48.3441 3.78821 48.8441 4.54053 49.2257C5.29194 49.608 6.09651 49.8752 6.92728 50.0182C7.75926 50.155 8.60031 50.2293 9.44338 50.2404C9.83147 50.2489 10.2128 50.2538 10.5972 50.2538C11.0564 50.2563 11.5114 50.2563 11.9718 50.2563H184.035C184.486 50.2563 184.945 50.2563 185.396 50.2538C185.779 50.2538 186.171 50.2489 186.554 50.2404C187.395 50.2298 188.235 50.1556 189.065 50.0182C189.898 49.8742 190.706 49.6071 191.461 49.2257C192.212 48.8439 192.898 48.3439 193.491 47.7448C194.089 47.1508 194.59 46.4663 194.975 45.7165C195.354 44.9632 195.616 44.1564 195.752 43.324C195.892 42.4925 195.97 41.6518 195.985 40.8087C195.99 40.4185 195.99 40.0406 195.99 39.6505C196 39.194 196 38.7401 196 38.2762V11.9812C196 11.5211 196 11.0647 195.99 10.6095C195.99 10.2242 195.99 9.83771 195.985 9.45245C195.97 8.60937 195.892 7.7686 195.752 6.93711C195.616 6.10517 195.354 5.29883 194.975 4.54576C194.2 3.0344 192.971 1.80416 191.461 1.02806C190.706 0.647683 189.898 0.38217 189.065 0.240296C188.235 0.101818 187.395 0.02757 186.554 0.0182125C186.171 0.0120812 185.779 0.00471868 185.396 0.00226868C184.945 -0.000244141 184.486 -0.000244141 184.035 -0.000244141V-8.08073e-05Z" fill="#A6A6A6"/>
<path d="M10.7473 48.9974C10.3654 48.9974 9.99264 48.9926 9.61377 48.9841C8.82879 48.9739 8.04565 48.9058 7.27076 48.7805C6.54822 48.6566 5.84827 48.4261 5.194 48.0967C4.54572 47.7699 3.95445 47.3415 3.44282 46.8278C2.92379 46.3202 2.49167 45.7314 2.16359 45.0848C1.83189 44.434 1.60234 43.7364 1.48292 43.0164C1.35397 42.2427 1.28419 41.4603 1.27421 40.6761C1.26626 40.4129 1.25586 39.5365 1.25586 39.5365V10.7039C1.25586 10.7039 1.26694 9.84092 1.27427 9.58739C1.28383 8.80441 1.3532 8.02329 1.48177 7.25079C1.6014 6.52877 1.83114 5.82919 2.16301 5.17627C2.48989 4.53013 2.91961 3.94091 3.43551 3.43144C3.95084 2.91714 4.54401 2.48651 5.19338 2.15527C5.84615 1.82686 6.54477 1.598 7.26586 1.47636C8.04329 1.34975 8.82916 1.28131 9.61686 1.27159L10.7479 1.25635H185.245L186.389 1.2722C187.17 1.28143 187.949 1.34927 188.719 1.47513C189.447 1.5983 190.153 1.82876 190.813 2.15892C192.114 2.82648 193.173 3.88262 193.841 5.17932C194.167 5.82773 194.394 6.5216 194.512 7.23739C194.642 8.01622 194.715 8.80348 194.729 9.59288C194.733 9.94635 194.733 10.326 194.733 10.7039C194.743 11.1719 194.743 11.6174 194.743 12.0666V38.1884C194.743 38.6418 194.743 39.0843 194.733 39.5303C194.733 39.9362 194.733 40.3081 194.728 40.6907C194.714 41.466 194.642 42.2392 194.514 43.0041C194.397 43.7294 194.169 44.4324 193.837 45.0885C193.507 45.7281 193.077 46.3118 192.564 46.8181C192.052 47.3345 191.46 47.7655 190.81 48.0943C190.151 48.4263 189.447 48.6576 188.719 48.7805C187.944 48.9065 187.161 48.9746 186.376 48.9841C186.009 48.9926 185.624 48.9974 185.251 48.9974L183.892 48.9999L10.7473 48.9974Z" fill="black"/>
<path d="M31.0991 25.5058C31.1126 24.4571 31.3909 23.4289 31.9083 22.5168C32.4256 21.6047 33.1651 20.8384 34.058 20.2891C33.4908 19.4785 32.7425 18.8115 31.8726 18.3409C31.0027 17.8703 30.0351 17.6091 29.0466 17.5782C26.9382 17.3567 24.8941 18.8407 23.8197 18.8407C22.7245 18.8407 21.0702 17.6002 19.2889 17.6369C18.1366 17.6741 17.0137 18.0094 16.0295 18.61C15.0452 19.2107 14.2333 20.0562 13.6727 21.0642C11.2443 25.2712 13.0557 31.454 15.3818 34.8546C16.5456 36.5198 17.9058 38.3799 19.6855 38.3139C21.4271 38.2416 22.0776 37.2026 24.1798 37.2026C26.2626 37.2026 26.8728 38.3139 28.6887 38.272C30.5575 38.2416 31.7349 36.5994 32.8579 34.9184C33.6941 33.7319 34.3376 32.4206 34.7645 31.033C33.6787 30.5735 32.7522 29.8043 32.1004 28.8214C31.4486 27.8386 31.1003 26.6854 31.0991 25.5058V25.5058Z" fill="white"/>
<path d="M27.6682 15.3417C28.6871 14.1177 29.1891 12.5444 29.0676 10.9561C27.5108 11.1197 26.0728 11.8642 25.0401 13.0412C24.5352 13.6162 24.1485 14.2852 23.9021 15.0098C23.6557 15.7345 23.5544 16.5006 23.6041 17.2645C24.3827 17.2725 25.153 17.1036 25.857 16.7706C26.561 16.4375 27.1803 15.949 27.6682 15.3417Z" fill="white"/>
<path d="M57.5361 38.4776V26.9944H57.4601L52.7601 38.3586H50.9662L46.2541 26.9944H46.1792V38.4776H43.9746V22.8755H46.774L51.8196 35.1905H51.9055L56.9414 22.8755H59.7505V38.4776L57.5361 38.4776Z" fill="white"/>
<path d="M61.6133 35.2445C61.6133 33.2556 63.1362 32.0544 65.8387 31.8924L68.9507 31.7193V30.8543C68.9507 29.5893 68.1181 28.8752 66.7019 28.8752C66.1774 28.8054 65.6454 28.9296 65.2059 29.2244C64.7663 29.5192 64.4494 29.9644 64.3146 30.4764H62.132C62.197 28.4213 64.1098 26.9624 66.7669 26.9624C69.4792 26.9624 71.2731 28.4433 71.2731 30.6814V38.4775H69.0366V36.6064H68.9826C68.6244 37.2408 68.1024 37.7673 67.4713 38.1308C66.8401 38.4943 66.123 38.6814 65.3948 38.6726C64.9166 38.7194 64.4338 38.6656 63.9776 38.5147C63.5214 38.3638 63.1017 38.119 62.7456 37.7962C62.3895 37.4734 62.1048 37.0796 61.9098 36.6401C61.7148 36.2007 61.6138 35.7253 61.6133 35.2445V35.2445ZM68.9507 34.2175V33.3414L66.1514 33.5144C64.7572 33.6016 63.9688 34.2064 63.9688 35.1794C63.9688 36.1745 64.7903 36.8236 66.0434 36.8236C66.4064 36.8482 66.7706 36.7999 67.1146 36.6815C67.4585 36.563 67.7753 36.3769 68.0463 36.134C68.3172 35.8911 68.5369 35.5964 68.6922 35.2673C68.8475 34.9381 68.9354 34.5812 68.9507 34.2175H68.9507Z" fill="white"/>
<path d="M81.072 31.0163C80.97 30.3941 80.6378 29.833 80.1415 29.4445C79.6451 29.056 79.0209 28.8686 78.3928 28.9194C76.5989 28.9194 75.4108 30.4224 75.4108 32.7905C75.4108 35.2125 76.61 36.6713 78.4137 36.6713C79.0334 36.7335 79.6535 36.5567 80.1474 36.1771C80.6414 35.7975 80.9721 35.2436 81.072 34.6284H83.3195C83.1797 35.8047 82.5866 36.8799 81.6664 37.6252C80.7462 38.3704 79.5717 38.7268 78.3928 38.6185C75.1508 38.6185 73.0332 36.4014 73.0332 32.7905C73.0332 29.2544 75.1508 26.9624 78.3708 26.9624C79.5583 26.8616 80.7381 27.2291 81.6588 27.9864C82.5794 28.7437 83.1679 29.831 83.2988 31.0163H81.072Z" fill="white"/>
<path d="M98.4816 34.2605H92.5383L91.1111 38.4776H88.5938L94.2231 22.8755H96.8385L102.468 38.4776H99.9076L98.4816 34.2605ZM93.1539 32.3145H97.8649L95.5425 25.4705H95.4775L93.1539 32.3145Z" fill="white"/>
<path d="M114.626 32.7905C114.626 36.3254 112.735 38.5965 109.882 38.5965C109.159 38.6343 108.44 38.4677 107.808 38.1158C107.175 37.7638 106.655 37.2407 106.305 36.6064H106.251V42.2406H103.918V27.1023H106.177V28.9943H106.22C106.585 28.363 107.114 27.8426 107.752 27.4885C108.389 27.1344 109.111 26.9598 109.839 26.9833C112.724 26.9833 114.626 29.2655 114.626 32.7905ZM112.228 32.7905C112.228 30.4875 111.038 28.9734 109.224 28.9734C107.441 28.9734 106.242 30.5194 106.242 32.7905C106.242 35.0825 107.441 36.6174 109.224 36.6174C111.038 36.6174 112.228 35.1144 112.228 32.7905Z" fill="white"/>
<path d="M127.138 32.7905C127.138 36.3254 125.247 38.5965 122.394 38.5965C121.671 38.6343 120.952 38.4677 120.32 38.1158C119.687 37.7638 119.166 37.2407 118.817 36.6064H118.763V42.2406H116.43V27.1023H118.688V28.9943H118.731C119.097 28.363 119.626 27.8426 120.263 27.4885C120.901 27.1344 121.622 26.9598 122.351 26.9833C125.236 26.9833 127.138 29.2655 127.138 32.7905ZM124.74 32.7905C124.74 30.4875 123.55 28.9734 121.735 28.9734C119.953 28.9734 118.753 30.5194 118.753 32.7905C118.753 35.0825 119.953 36.6174 121.735 36.6174C123.55 36.6174 124.74 35.1144 124.74 32.7905H124.74Z" fill="white"/>
<path d="M135.406 34.1303C135.579 35.6776 137.081 36.6934 139.134 36.6934C141.101 36.6934 142.516 35.6775 142.516 34.2824C142.516 33.0714 141.662 32.3463 139.641 31.8494L137.621 31.3623C134.758 30.6703 133.428 29.3304 133.428 27.1562C133.428 24.4643 135.773 22.6152 139.102 22.6152C142.397 22.6152 144.655 24.4643 144.731 27.1562H142.376C142.235 25.5992 140.948 24.6594 139.069 24.6594C137.189 24.6594 135.903 25.6103 135.903 26.9943C135.903 28.0973 136.724 28.7464 138.734 29.2433L140.452 29.6653C143.651 30.4224 144.98 31.7083 144.98 33.9904C144.98 36.9093 142.657 38.7375 138.961 38.7375C135.503 38.7375 133.168 36.9523 133.018 34.1302L135.406 34.1303Z" fill="white"/>
<path d="M150.017 24.4104V27.1024H152.179V28.9514H150.017V35.2224C150.017 36.1966 150.45 36.6506 151.4 36.6506C151.657 36.6461 151.913 36.6281 152.168 36.5966V38.4345C151.74 38.5144 151.306 38.5506 150.872 38.5425C148.57 38.5425 147.672 37.6775 147.672 35.4714V28.9514H146.02V27.1024H147.672V24.4104H150.017Z" fill="white"/>
<path d="M153.43 32.7905C153.43 29.2114 155.536 26.9624 158.821 26.9624C162.117 26.9624 164.214 29.2114 164.214 32.7905C164.214 36.3793 162.128 38.6185 158.821 38.6185C155.515 38.6185 153.43 36.3793 153.43 32.7905ZM161.836 32.7905C161.836 30.3353 160.712 28.8863 158.821 28.8863C156.93 28.8863 155.806 30.3464 155.806 32.7905C155.806 35.2554 156.93 36.6935 158.821 36.6935C160.712 36.6935 161.836 35.2554 161.836 32.7905H161.836Z" fill="white"/>
<path d="M166.139 27.1025H168.364V29.0386H168.418C168.569 28.4339 168.923 27.8995 169.421 27.5252C169.919 27.151 170.53 26.9596 171.153 26.9834C171.421 26.9825 171.69 27.0117 171.952 27.0705V29.2545C171.612 29.1507 171.258 29.1031 170.904 29.1134C170.565 29.0997 170.227 29.1595 169.913 29.2888C169.599 29.418 169.317 29.6137 169.086 29.8623C168.855 30.111 168.681 30.4067 168.575 30.7291C168.469 31.0516 168.434 31.3932 168.472 31.7305V38.4776H166.139V27.1025Z" fill="white"/>
<path d="M182.71 35.1364C182.396 37.2014 180.386 38.6185 177.815 38.6185C174.508 38.6185 172.455 36.4014 172.455 32.8445C172.455 29.2765 174.519 26.9624 177.717 26.9624C180.862 26.9624 182.84 29.1243 182.84 32.5733V33.3733H174.811V33.5144C174.774 33.933 174.826 34.3547 174.964 34.7516C175.103 35.1484 175.324 35.5112 175.613 35.816C175.902 36.1207 176.253 36.3604 176.642 36.5191C177.031 36.6778 177.449 36.7518 177.869 36.7364C178.42 36.7881 178.973 36.6603 179.446 36.372C179.919 36.0837 180.287 35.6504 180.494 35.1364L182.71 35.1364ZM174.822 31.7414H180.505C180.526 31.365 180.469 30.9883 180.337 30.635C180.206 30.2817 180.003 29.9594 179.741 29.6883C179.479 29.4172 179.164 29.2032 178.816 29.0597C178.468 28.9162 178.093 28.8463 177.717 28.8544C177.337 28.8521 176.96 28.9252 176.608 29.0693C176.257 29.2135 175.937 29.4259 175.668 29.6943C175.399 29.9627 175.185 30.2818 175.04 30.6332C174.895 30.9845 174.821 31.3612 174.822 31.7414L174.822 31.7414Z" fill="white"/>
<path d="M46.6808 10.4206C47.17 10.3855 47.6609 10.4594 48.118 10.6371C48.5752 10.8148 48.9873 11.0918 49.3245 11.4482C49.6618 11.8045 49.9158 12.2313 50.0682 12.6978C50.2206 13.1643 50.2677 13.6588 50.206 14.1457C50.206 16.5407 48.9124 17.9174 46.6808 17.9174H43.9746V10.4206H46.6808ZM45.1382 16.8572H46.5508C46.9004 16.8781 47.2502 16.8208 47.5748 16.6893C47.8994 16.5579 48.1907 16.3557 48.4274 16.0974C48.664 15.8391 48.8402 15.5313 48.943 15.1963C49.0457 14.8613 49.0726 14.5076 49.0215 14.1609C49.0689 13.8156 49.0393 13.4641 48.9349 13.1316C48.8306 12.7991 48.654 12.4938 48.4179 12.2376C48.1817 11.9813 47.8919 11.7805 47.5691 11.6496C47.2463 11.5186 46.8986 11.4607 46.5508 11.48H45.1382V16.8572Z" fill="white"/>
<path d="M51.5204 15.0861C51.4849 14.7143 51.5274 14.3392 51.6452 13.9848C51.763 13.6304 51.9536 13.3045 52.2046 13.0281C52.4557 12.7518 52.7617 12.5309 53.103 12.3798C53.4444 12.2287 53.8135 12.1506 54.1867 12.1506C54.56 12.1506 54.9291 12.2287 55.2705 12.3798C55.6118 12.5309 55.9178 12.7518 56.1689 13.0281C56.4199 13.3045 56.6104 13.6304 56.7283 13.9848C56.8461 14.3392 56.8886 14.7143 56.8531 15.0861C56.8893 15.4583 56.8473 15.8339 56.7298 16.1889C56.6122 16.5438 56.4218 16.8703 56.1707 17.1472C55.9196 17.4241 55.6134 17.6454 55.2717 17.7969C54.93 17.9483 54.5604 18.0265 54.1867 18.0265C53.813 18.0265 53.4435 17.9483 53.1018 17.7969C52.7601 17.6454 52.4539 17.4241 52.2028 17.1472C51.9517 16.8703 51.7612 16.5438 51.6437 16.1889C51.5262 15.8339 51.4842 15.4583 51.5204 15.0861V15.0861ZM55.7053 15.0861C55.7053 13.8597 55.1548 13.1426 54.1886 13.1426C53.2187 13.1426 52.6731 13.8597 52.6731 15.0861C52.6731 16.3223 53.2187 17.0339 54.1886 17.0339C55.1548 17.0339 55.7054 16.3173 55.7054 15.0861H55.7053Z" fill="white"/>
<path d="M63.9411 17.9173H62.7836L61.6151 13.7505H61.5268L60.3631 17.9173H59.2167L57.6582 12.2598H58.79L59.8028 16.5768H59.8862L61.0486 12.2598H62.119L63.2814 16.5768H63.3697L64.3776 12.2598H65.4934L63.9411 17.9173Z" fill="white"/>
<path d="M66.8047 12.2598H67.8788V13.1585H67.9622C68.1036 12.8357 68.3422 12.5652 68.6447 12.3845C68.9471 12.2038 69.2983 12.122 69.6494 12.1506C69.9245 12.1299 70.2007 12.1714 70.4576 12.272C70.7145 12.3727 70.9455 12.5298 71.1334 12.7319C71.3214 12.934 71.4615 13.1758 71.5433 13.4394C71.6252 13.7031 71.6468 13.9817 71.6064 14.2548V17.9173H70.4906V14.5352C70.4906 13.626 70.0957 13.1739 69.2705 13.1739C69.0837 13.1652 68.8973 13.197 68.7239 13.2671C68.5506 13.3373 68.3945 13.4441 68.2662 13.5803C68.138 13.7165 68.0407 13.8788 67.981 14.0561C67.9214 14.2334 67.9007 14.4215 67.9205 14.6076V17.9173H66.8047L66.8047 12.2598Z" fill="white"/>
<path d="M73.3848 10.0513H74.5013V17.9173H73.3848V10.0513Z" fill="white"/>
<path d="M76.0517 15.0861C76.0161 14.7143 76.0586 14.3392 76.1765 13.9848C76.2943 13.6304 76.4848 13.3045 76.7359 13.0281C76.9869 12.7518 77.2929 12.5309 77.6343 12.3798C77.9756 12.2287 78.3447 12.1506 78.718 12.1506C79.0912 12.1506 79.4604 12.2287 79.8017 12.3798C80.143 12.5309 80.449 12.7518 80.7001 13.0281C80.9511 13.3045 81.1417 13.6304 81.2595 13.9848C81.3773 14.3392 81.4198 14.7143 81.3843 15.0861C81.4205 15.4583 81.3785 15.8339 81.261 16.1889C81.1435 16.5438 80.9531 16.8703 80.7019 17.1472C80.4508 17.4241 80.1446 17.6454 79.8029 17.7969C79.4612 17.9483 79.0917 18.0265 78.718 18.0265C78.3443 18.0265 77.9747 17.9483 77.633 17.7969C77.2914 17.6454 76.9851 17.4241 76.734 17.1472C76.4829 16.8703 76.2925 16.5438 76.175 16.1889C76.0575 15.8339 76.0155 15.4583 76.0517 15.0861V15.0861ZM80.2366 15.0861C80.2366 13.8597 79.686 13.1426 78.7198 13.1426C77.7499 13.1426 77.2043 13.8597 77.2043 15.0861C77.2043 16.3223 77.75 17.0339 78.7198 17.0339C79.686 17.0339 80.2366 16.3173 80.2366 15.0861H80.2366Z" fill="white"/>
<path d="M82.5586 16.3174C82.5586 15.299 83.3164 14.7119 84.6615 14.6285L86.193 14.5401V14.0518C86.193 13.4543 85.7981 13.1169 85.0355 13.1169C84.4126 13.1169 83.981 13.3457 83.8571 13.7457H82.7769C82.8909 12.7739 83.8044 12.1506 85.087 12.1506C86.5044 12.1506 87.3039 12.8567 87.3039 14.0518V17.9174H86.2298V17.1223H86.1415C85.9623 17.4075 85.7106 17.64 85.4123 17.796C85.1139 17.9521 84.7795 18.0261 84.4432 18.0106C84.2059 18.0353 83.966 18.0099 83.739 17.9362C83.5121 17.8624 83.3031 17.7419 83.1255 17.5824C82.9479 17.4229 82.8057 17.2279 82.7081 17.01C82.6105 16.7921 82.5595 16.5562 82.5586 16.3174V16.3174ZM86.193 15.834V15.361L84.8123 15.4493C84.0337 15.5015 83.6805 15.7665 83.6805 16.2652C83.6805 16.7744 84.1219 17.0707 84.729 17.0707C84.9068 17.0887 85.0865 17.0708 85.2572 17.0179C85.428 16.965 85.5864 16.8783 85.723 16.7629C85.8596 16.6475 85.9716 16.5058 86.0523 16.3462C86.133 16.1866 86.1809 16.0124 86.193 15.834V15.834Z" fill="white"/>
<path d="M88.7695 15.0861C88.7695 13.2984 89.6879 12.166 91.1164 12.166C91.4698 12.1497 91.8205 12.2344 92.1275 12.4101C92.4345 12.5859 92.6852 12.8455 92.8502 13.1585H92.9336V10.0513H94.0494V17.9173H92.9802V17.0235H92.8919C92.7141 17.3344 92.4547 17.5908 92.1417 17.7648C91.8288 17.9388 91.4742 18.0238 91.1164 18.0106C89.6781 18.0106 88.7695 16.8781 88.7695 15.0861ZM89.9222 15.0861C89.9222 16.2861 90.4874 17.0082 91.4328 17.0082C92.3733 17.0082 92.9545 16.2757 92.9545 15.091C92.9545 13.9119 92.3672 13.169 91.4328 13.169C90.4935 13.169 89.9221 13.896 89.9221 15.0861H89.9222Z" fill="white"/>
<path d="M98.6669 15.0862C98.6314 14.7144 98.6739 14.3392 98.7917 13.9848C98.9096 13.6304 99.1002 13.3046 99.3513 13.0282C99.6023 12.7518 99.9084 12.5309 100.25 12.3798C100.591 12.2287 100.96 12.1506 101.333 12.1506C101.707 12.1506 102.076 12.2287 102.417 12.3798C102.759 12.5309 103.065 12.7518 103.316 13.0282C103.567 13.3046 103.757 13.6304 103.875 13.9848C103.993 14.3392 104.036 14.7144 104 15.0862C104.036 15.4584 103.994 15.834 103.877 16.189C103.759 16.544 103.569 16.8704 103.318 17.1473C103.066 17.4242 102.76 17.6455 102.418 17.797C102.077 17.9484 101.707 18.0266 101.333 18.0266C100.96 18.0266 100.59 17.9484 100.249 17.797C99.9068 17.6455 99.6006 17.4242 99.3494 17.1473C99.0983 16.8704 98.9079 16.544 98.7903 16.189C98.6727 15.834 98.6307 15.4584 98.6669 15.0862V15.0862ZM102.852 15.0862C102.852 13.8598 102.301 13.1427 101.335 13.1427C100.365 13.1427 99.8195 13.8598 99.8195 15.0862C99.8195 16.3224 100.365 17.034 101.335 17.034C102.301 17.034 102.852 16.3174 102.852 15.0862H102.852Z" fill="white"/>
<path d="M105.498 12.2598H106.572V13.1585H106.656C106.797 12.8357 107.036 12.5652 107.338 12.3845C107.64 12.2038 107.992 12.122 108.343 12.1506C108.618 12.1299 108.894 12.1714 109.151 12.272C109.408 12.3727 109.639 12.5298 109.827 12.7319C110.015 12.934 110.155 13.1758 110.237 13.4394C110.319 13.7031 110.34 13.9817 110.3 14.2548V17.9173H109.184V14.5352C109.184 13.626 108.789 13.1739 107.964 13.1739C107.777 13.1652 107.591 13.197 107.417 13.2671C107.244 13.3373 107.088 13.4441 106.96 13.5803C106.831 13.7165 106.734 13.8788 106.674 14.0561C106.615 14.2334 106.594 14.4215 106.614 14.6076V17.9173H105.498V12.2598Z" fill="white"/>
<path d="M116.604 10.8513V12.2856H117.829V13.2261H116.604V16.1352C116.604 16.7279 116.848 16.9874 117.404 16.9874C117.546 16.9869 117.688 16.9783 117.829 16.9616V17.8916C117.629 17.9275 117.426 17.9466 117.222 17.9487C115.982 17.9487 115.487 17.5119 115.487 16.4211V13.2261H114.59V12.2856H115.487V10.8513H116.604Z" fill="white"/>
<path d="M119.354 10.0513H120.46V13.169H120.548C120.696 12.8432 120.941 12.571 121.25 12.3897C121.558 12.2083 121.915 12.1266 122.272 12.1555C122.545 12.1406 122.819 12.1863 123.073 12.2894C123.327 12.3925 123.555 12.5504 123.741 12.7518C123.927 12.9533 124.066 13.1933 124.149 13.4548C124.232 13.7163 124.255 13.9929 124.219 14.2647V17.9173H123.102V14.5401C123.102 13.6364 122.681 13.1788 121.893 13.1788C121.701 13.1631 121.508 13.1894 121.328 13.2561C121.147 13.3227 120.983 13.4281 120.848 13.5647C120.712 13.7013 120.608 13.8659 120.543 14.047C120.477 14.2281 120.452 14.4213 120.469 14.6131V17.9173H119.354L119.354 10.0513Z" fill="white"/>
<path d="M130.724 16.3899C130.573 16.9069 130.244 17.3542 129.796 17.6534C129.349 17.9526 128.81 18.0847 128.275 18.0266C127.902 18.0365 127.532 17.9651 127.19 17.8174C126.848 17.6698 126.542 17.4494 126.293 17.1715C126.045 16.8937 125.86 16.5651 125.751 16.2085C125.642 15.8519 125.612 15.4758 125.663 15.1065C125.613 14.736 125.644 14.3591 125.752 14.0015C125.861 13.6438 126.045 13.3137 126.292 13.0334C126.539 12.7531 126.844 12.5293 127.185 12.377C127.526 12.2247 127.896 12.1475 128.27 12.1507C129.843 12.1507 130.792 13.2262 130.792 15.0028V15.3924H126.799V15.4549C126.782 15.6626 126.808 15.8715 126.876 16.0685C126.944 16.2654 127.052 16.446 127.194 16.5986C127.336 16.7512 127.508 16.8725 127.699 16.9546C127.891 17.0368 128.097 17.078 128.305 17.0757C128.572 17.1078 128.842 17.0597 129.082 16.9376C129.322 16.8154 129.519 16.6248 129.65 16.3898L130.724 16.3899ZM126.799 14.5666H129.655C129.669 14.3767 129.643 14.186 129.579 14.0067C129.515 13.8274 129.415 13.6635 129.284 13.5254C129.153 13.3874 128.994 13.2783 128.818 13.2052C128.643 13.1322 128.454 13.0967 128.263 13.101C128.07 13.0986 127.879 13.1348 127.7 13.2076C127.521 13.2804 127.359 13.3883 127.223 13.5249C127.086 13.6615 126.978 13.824 126.906 14.0029C126.833 14.1819 126.797 14.3735 126.799 14.5666H126.799Z" fill="white"/>
</g>
<defs>
<clipPath id="clip0">
<rect width="196" height="50.2564" fill="white"/>
</clipPath>
</defs>
</svg>
