<svg width="20" height="20" viewBox="0 0 20 20" fill="none" xmlns="http://www.w3.org/2000/svg">
<path d="M16.3726 11.6896C16.1457 12.2136 15.8772 12.696 15.566 13.1395C15.1418 13.7441 14.7946 14.1626 14.5269 14.395C14.112 14.7765 13.6675 14.9719 13.1915 14.983C12.8498 14.983 12.4376 14.8858 11.9579 14.6885C11.4766 14.4922 11.0343 14.395 10.6299 14.395C10.2058 14.395 9.75086 14.4922 9.26429 14.6885C8.77698 14.8858 8.38441 14.9885 8.08426 14.9987C7.62779 15.0182 7.1728 14.8172 6.71864 14.395C6.42878 14.1423 6.06621 13.7089 5.63187 13.0951C5.16586 12.4395 4.78274 11.6794 4.48259 10.8127C4.16114 9.87665 4 8.97019 4 8.09263C4 7.08738 4.21726 6.22037 4.65243 5.49382C4.99444 4.91022 5.44943 4.44987 6.01889 4.11191C6.58834 3.77396 7.20364 3.60174 7.86626 3.59073C8.22883 3.59073 8.70428 3.70285 9.29513 3.92322C9.88431 4.14432 10.2626 4.25645 10.4285 4.25645C10.5525 4.25645 10.9728 4.12534 11.6852 3.86396C12.3589 3.62156 12.9276 3.52119 13.3934 3.56073C14.6556 3.66258 15.604 4.16006 16.2346 5.05633C15.1057 5.7402 14.5473 6.69804 14.5584 7.9268C14.5686 8.8839 14.9159 9.68035 15.5984 10.3127C15.9077 10.6063 16.2532 10.8331 16.6375 10.9942C16.5541 11.2359 16.4662 11.4673 16.3726 11.6896ZM13.4777 0.300085C13.4777 1.05026 13.2035 1.75069 12.6571 2.399C11.9978 3.16972 11.2002 3.61508 10.3353 3.5448C10.3243 3.4548 10.3179 3.36009 10.3179 3.26055C10.3179 2.54039 10.6315 1.76967 11.1883 1.1395C11.4664 0.82044 11.8199 0.555142 12.2487 0.34351C12.6766 0.135034 13.0813 0.0197431 13.4619 0C13.473 0.100286 13.4777 0.200588 13.4777 0.300085Z" fill="white"/>
</svg>
