<svg width="604" height="205" viewBox="0 0 604 205" fill="none" xmlns="http://www.w3.org/2000/svg">
<g clip-path="url(#clip0)">
<g filter="url(#filter0_d)">
<path d="M584 46H345C339.477 46 335 50.4772 335 56V100C335 105.523 339.477 110 345 110H584C589.523 110 594 105.523 594 100V56C594 50.4772 589.523 46 584 46Z" fill="#323232"/>
<path d="M584 45.5H345C339.201 45.5 334.5 50.201 334.5 56V100C334.5 105.799 339.201 110.5 345 110.5H584C589.799 110.5 594.5 105.799 594.5 100V56C594.5 50.201 589.799 45.5 584 45.5Z" stroke="#5A5A5A"/>
</g>
<path d="M389.326 69.8027C389.326 69.4277 389.193 69.1387 388.928 68.9355C388.666 68.7324 388.191 68.5273 387.504 68.3203C386.816 68.1133 386.27 67.8828 385.863 67.6289C385.086 67.1406 384.697 66.5039 384.697 65.7188C384.697 65.0312 384.977 64.4648 385.535 64.0195C386.098 63.5742 386.826 63.3516 387.721 63.3516C388.314 63.3516 388.844 63.4609 389.309 63.6797C389.773 63.8984 390.139 64.2109 390.404 64.6172C390.67 65.0195 390.803 65.4668 390.803 65.959H389.326C389.326 65.5137 389.186 65.166 388.904 64.916C388.627 64.6621 388.229 64.5352 387.709 64.5352C387.225 64.5352 386.848 64.6387 386.578 64.8457C386.312 65.0527 386.18 65.3418 386.18 65.7129C386.18 66.0254 386.324 66.2871 386.613 66.498C386.902 66.7051 387.379 66.9082 388.043 67.1074C388.707 67.3027 389.24 67.5273 389.643 67.7812C390.045 68.0312 390.34 68.3203 390.527 68.6484C390.715 68.9727 390.809 69.3535 390.809 69.791C390.809 70.502 390.535 71.0684 389.988 71.4902C389.445 71.9082 388.707 72.1172 387.773 72.1172C387.156 72.1172 386.588 72.0039 386.068 71.7773C385.553 71.5469 385.15 71.2305 384.861 70.8281C384.576 70.4258 384.434 69.957 384.434 69.4219H385.916C385.916 69.9062 386.076 70.2812 386.396 70.5469C386.717 70.8125 387.176 70.9453 387.773 70.9453C388.289 70.9453 388.676 70.8418 388.934 70.6348C389.195 70.4238 389.326 70.1465 389.326 69.8027ZM393.855 66.3516C394.32 65.8125 394.908 65.543 395.619 65.543C396.97 65.543 397.656 66.3145 397.675 67.8574V72H396.251V67.9102C396.251 67.4727 396.156 67.1641 395.964 66.9844C395.777 66.8008 395.5 66.709 395.132 66.709C394.562 66.709 394.136 66.9629 393.855 67.4707V72H392.431V63H393.855V66.3516ZM399.333 68.7715C399.333 68.1504 399.456 67.5918 399.702 67.0957C399.948 66.5957 400.294 66.2129 400.739 65.9473C401.185 65.6777 401.696 65.543 402.274 65.543C403.13 65.543 403.823 65.8184 404.355 66.3691C404.89 66.9199 405.179 67.6504 405.222 68.5605L405.228 68.8945C405.228 69.5195 405.106 70.0781 404.864 70.5703C404.626 71.0625 404.282 71.4434 403.833 71.7129C403.388 71.9824 402.872 72.1172 402.286 72.1172C401.392 72.1172 400.675 71.8203 400.136 71.2266C399.601 70.6289 399.333 69.834 399.333 68.8418V68.7715ZM400.757 68.8945C400.757 69.5469 400.892 70.0586 401.161 70.4297C401.431 70.7969 401.806 70.9805 402.286 70.9805C402.767 70.9805 403.14 70.793 403.405 70.418C403.675 70.043 403.81 69.4941 403.81 68.7715C403.81 68.1309 403.671 67.623 403.394 67.248C403.12 66.873 402.747 66.6855 402.274 66.6855C401.81 66.6855 401.44 66.8711 401.167 67.2422C400.894 67.6094 400.757 68.1602 400.757 68.8945ZM410.231 66.9609C410.044 66.9297 409.85 66.9141 409.651 66.9141C408.999 66.9141 408.559 67.1641 408.333 67.6641V72H406.909V65.6602H408.268L408.303 66.3691C408.647 65.8184 409.124 65.543 409.733 65.543C409.936 65.543 410.104 65.5703 410.237 65.625L410.231 66.9609ZM413.688 64.1191V65.6602H414.807V66.7148H413.688V70.2539C413.688 70.4961 413.734 70.6719 413.828 70.7812C413.926 70.8867 414.098 70.9395 414.344 70.9395C414.508 70.9395 414.674 70.9199 414.842 70.8809V71.9824C414.518 72.0723 414.205 72.1172 413.904 72.1172C412.811 72.1172 412.264 71.5137 412.264 70.3066V66.7148H411.221V65.6602H412.264V64.1191H413.688ZM419.985 72V63.4688H422.909C423.874 63.4688 424.609 63.6621 425.112 64.0488C425.616 64.4355 425.868 65.0117 425.868 65.7773C425.868 66.168 425.763 66.5195 425.552 66.832C425.341 67.1445 425.032 67.3867 424.626 67.5586C425.087 67.6836 425.443 67.9199 425.693 68.2676C425.946 68.6113 426.073 69.0254 426.073 69.5098C426.073 70.3105 425.816 70.9258 425.3 71.3555C424.788 71.7852 424.054 72 423.097 72H419.985ZM421.468 68.1504V70.8164H423.114C423.579 70.8164 423.943 70.7012 424.204 70.4707C424.466 70.2402 424.597 69.9199 424.597 69.5098C424.597 68.623 424.144 68.1699 423.237 68.1504H421.468ZM421.468 67.0605H422.921C423.382 67.0605 423.741 66.957 423.999 66.75C424.261 66.5391 424.392 66.2422 424.392 65.8594C424.392 65.4375 424.271 65.1328 424.028 64.9453C423.79 64.7578 423.417 64.6641 422.909 64.6641H421.468V67.0605ZM431.217 66.9609C431.03 66.9297 430.837 66.9141 430.637 66.9141C429.985 66.9141 429.546 67.1641 429.319 67.6641V72H427.895V65.6602H429.255L429.29 66.3691C429.633 65.8184 430.11 65.543 430.719 65.543C430.923 65.543 431.09 65.5703 431.223 65.625L431.217 66.9609ZM435.272 72.1172C434.369 72.1172 433.637 71.834 433.074 71.2676C432.516 70.6973 432.236 69.9395 432.236 68.9941V68.8184C432.236 68.1855 432.358 67.6211 432.6 67.125C432.846 66.625 433.19 66.2363 433.631 65.959C434.072 65.6816 434.565 65.543 435.108 65.543C435.971 65.543 436.637 65.8184 437.106 66.3691C437.578 66.9199 437.815 67.6992 437.815 68.707V69.2812H433.672C433.715 69.8047 433.889 70.2188 434.194 70.5234C434.502 70.8281 434.889 70.9805 435.354 70.9805C436.006 70.9805 436.537 70.7168 436.947 70.1895L437.715 70.9219C437.461 71.3008 437.121 71.5957 436.695 71.8066C436.274 72.0137 435.799 72.1172 435.272 72.1172ZM435.102 66.6855C434.711 66.6855 434.395 66.8223 434.153 67.0957C433.914 67.3691 433.762 67.75 433.695 68.2383H436.408V68.1328C436.377 67.6562 436.25 67.2969 436.028 67.0547C435.805 66.8086 435.496 66.6855 435.102 66.6855ZM443.193 72C443.131 71.8789 443.076 71.6816 443.029 71.4082C442.576 71.8809 442.021 72.1172 441.365 72.1172C440.728 72.1172 440.209 71.9355 439.806 71.5723C439.404 71.209 439.203 70.7598 439.203 70.2246C439.203 69.5488 439.453 69.0312 439.953 68.6719C440.457 68.3086 441.175 68.127 442.109 68.127H442.982V67.7109C442.982 67.3828 442.89 67.1211 442.707 66.9258C442.523 66.7266 442.244 66.627 441.869 66.627C441.545 66.627 441.279 66.709 441.072 66.873C440.865 67.0332 440.761 67.2383 440.761 67.4883H439.338C439.338 67.1406 439.453 66.8164 439.683 66.5156C439.914 66.2109 440.226 65.9727 440.621 65.8008C441.019 65.6289 441.463 65.543 441.951 65.543C442.693 65.543 443.285 65.7305 443.726 66.1055C444.168 66.4766 444.394 67 444.406 67.6758V70.5352C444.406 71.1055 444.486 71.5605 444.646 71.9004V72H443.193ZM441.629 70.9746C441.91 70.9746 442.174 70.9062 442.42 70.7695C442.67 70.6328 442.857 70.4492 442.982 70.2188V69.0234H442.215C441.687 69.0234 441.291 69.1152 441.025 69.2988C440.759 69.4824 440.627 69.7422 440.627 70.0781C440.627 70.3516 440.716 70.5703 440.896 70.7344C441.08 70.8945 441.324 70.9746 441.629 70.9746ZM448.437 69.2812L447.804 69.9316V72H446.38V63H447.804V68.1914L448.249 67.6348L450.001 65.6602H451.712L449.357 68.3027L451.964 72H450.318L448.437 69.2812ZM460.149 70.2773C460.149 70.0234 460.043 69.8301 459.832 69.6973C459.625 69.5645 459.28 69.4473 458.795 69.3457C458.311 69.2441 457.906 69.1152 457.582 68.959C456.871 68.6152 456.516 68.1172 456.516 67.4648C456.516 66.918 456.746 66.4609 457.207 66.0938C457.668 65.7266 458.254 65.543 458.965 65.543C459.723 65.543 460.334 65.7305 460.799 66.1055C461.268 66.4805 461.502 66.9668 461.502 67.5645H460.078C460.078 67.291 459.977 67.0645 459.774 66.8848C459.571 66.7012 459.301 66.6094 458.965 66.6094C458.653 66.6094 458.397 66.6816 458.198 66.8262C458.002 66.9707 457.905 67.1641 457.905 67.4062C457.905 67.625 457.996 67.7949 458.18 67.916C458.364 68.0371 458.735 68.1602 459.293 68.2852C459.852 68.4062 460.289 68.5527 460.606 68.7246C460.926 68.8926 461.162 69.0957 461.315 69.334C461.471 69.5723 461.549 69.8613 461.549 70.2012C461.549 70.7715 461.313 71.2344 460.84 71.5898C460.367 71.9414 459.748 72.1172 458.983 72.1172C458.463 72.1172 458 72.0234 457.594 71.8359C457.188 71.6484 456.871 71.3906 456.645 71.0625C456.418 70.7344 456.305 70.3809 456.305 70.002H457.688C457.707 70.3379 457.834 70.5977 458.069 70.7812C458.303 70.9609 458.614 71.0508 459 71.0508C459.375 71.0508 459.66 70.9805 459.856 70.8398C460.051 70.6953 460.149 70.5078 460.149 70.2773ZM468.826 68.8945C468.826 69.875 468.603 70.6582 468.158 71.2441C467.713 71.8262 467.115 72.1172 466.365 72.1172C465.67 72.1172 465.113 71.8887 464.695 71.4316V74.4375H463.271V65.6602H464.584L464.642 66.3047C465.06 65.7969 465.629 65.543 466.347 65.543C467.121 65.543 467.726 65.832 468.164 66.4102C468.605 66.9844 468.826 67.7832 468.826 68.8066V68.8945ZM467.408 68.7715C467.408 68.1387 467.281 67.6367 467.027 67.2656C466.777 66.8945 466.418 66.709 465.949 66.709C465.367 66.709 464.949 66.9492 464.695 67.4297V70.2422C464.953 70.7344 465.375 70.9805 465.961 70.9805C466.414 70.9805 466.767 70.7988 467.021 70.4355C467.279 70.0684 467.408 69.5137 467.408 68.7715ZM472.031 72H470.607V63H472.031V72ZM475.581 72H474.157V65.6602H475.581V72ZM474.069 64.0137C474.069 63.7949 474.137 63.6133 474.274 63.4688C474.415 63.3242 474.614 63.252 474.872 63.252C475.13 63.252 475.329 63.3242 475.47 63.4688C475.61 63.6133 475.68 63.7949 475.68 64.0137C475.68 64.2285 475.61 64.4082 475.47 64.5527C475.329 64.6934 475.13 64.7637 474.872 64.7637C474.614 64.7637 474.415 64.6934 474.274 64.5527C474.137 64.4082 474.069 64.2285 474.069 64.0137ZM479.401 64.1191V65.6602H480.52V66.7148H479.401V70.2539C479.401 70.4961 479.448 70.6719 479.541 70.7812C479.639 70.8867 479.811 70.9395 480.057 70.9395C480.221 70.9395 480.387 70.9199 480.555 70.8809V71.9824C480.231 72.0723 479.918 72.1172 479.618 72.1172C478.524 72.1172 477.977 71.5137 477.977 70.3066V66.7148H476.934V65.6602H477.977V64.1191H479.401ZM489.115 70.2773C489.115 70.0234 489.009 69.8301 488.798 69.6973C488.591 69.5645 488.245 69.4473 487.761 69.3457C487.277 69.2441 486.872 69.1152 486.548 68.959C485.837 68.6152 485.482 68.1172 485.482 67.4648C485.482 66.918 485.712 66.4609 486.173 66.0938C486.634 65.7266 487.22 65.543 487.931 65.543C488.689 65.543 489.3 65.7305 489.765 66.1055C490.234 66.4805 490.468 66.9668 490.468 67.5645H489.044C489.044 67.291 488.943 67.0645 488.74 66.8848C488.536 66.7012 488.267 66.6094 487.931 66.6094C487.619 66.6094 487.363 66.6816 487.163 66.8262C486.968 66.9707 486.87 67.1641 486.87 67.4062C486.87 67.625 486.962 67.7949 487.146 67.916C487.329 68.0371 487.701 68.1602 488.259 68.2852C488.818 68.4062 489.255 68.5527 489.572 68.7246C489.892 68.8926 490.128 69.0957 490.281 69.334C490.437 69.5723 490.515 69.8613 490.515 70.2012C490.515 70.7715 490.279 71.2344 489.806 71.5898C489.333 71.9414 488.714 72.1172 487.949 72.1172C487.429 72.1172 486.966 72.0234 486.56 71.8359C486.154 71.6484 485.837 71.3906 485.611 71.0625C485.384 70.7344 485.271 70.3809 485.271 70.002H486.654C486.673 70.3379 486.8 70.5977 487.035 70.7812C487.269 70.9609 487.579 71.0508 487.966 71.0508C488.341 71.0508 488.626 70.9805 488.822 70.8398C489.017 70.6953 489.115 70.5078 489.115 70.2773ZM494.024 64.1191V65.6602H495.143V66.7148H494.024V70.2539C494.024 70.4961 494.071 70.6719 494.165 70.7812C494.263 70.8867 494.434 70.9395 494.681 70.9395C494.845 70.9395 495.011 70.9199 495.179 70.8809V71.9824C494.854 72.0723 494.542 72.1172 494.241 72.1172C493.147 72.1172 492.6 71.5137 492.6 70.3066V66.7148H491.558V65.6602H492.6V64.1191H494.024ZM500.504 72C500.442 71.8789 500.387 71.6816 500.34 71.4082C499.887 71.8809 499.332 72.1172 498.676 72.1172C498.039 72.1172 497.52 71.9355 497.118 71.5723C496.715 71.209 496.514 70.7598 496.514 70.2246C496.514 69.5488 496.764 69.0312 497.264 68.6719C497.768 68.3086 498.487 68.127 499.42 68.127H500.293V67.7109C500.293 67.3828 500.202 67.1211 500.018 66.9258C499.834 66.7266 499.555 66.627 499.18 66.627C498.856 66.627 498.59 66.709 498.383 66.873C498.176 67.0332 498.073 67.2383 498.073 67.4883H496.649C496.649 67.1406 496.764 66.8164 496.995 66.5156C497.225 66.2109 497.537 65.9727 497.932 65.8008C498.33 65.6289 498.774 65.543 499.262 65.543C500.004 65.543 500.596 65.7305 501.037 66.1055C501.479 66.4766 501.705 67 501.717 67.6758V70.5352C501.717 71.1055 501.797 71.5605 501.957 71.9004V72H500.504ZM498.94 70.9746C499.221 70.9746 499.485 70.9062 499.731 70.7695C499.981 70.6328 500.168 70.4492 500.293 70.2188V69.0234H499.526C498.998 69.0234 498.602 69.1152 498.336 69.2988C498.071 69.4824 497.938 69.7422 497.938 70.0781C497.938 70.3516 498.028 70.5703 498.207 70.7344C498.391 70.8945 498.635 70.9746 498.94 70.9746ZM507.008 66.9609C506.82 66.9297 506.627 66.9141 506.428 66.9141C505.775 66.9141 505.336 67.1641 505.109 67.6641V72H503.685V65.6602H505.045L505.08 66.3691C505.424 65.8184 505.9 65.543 506.51 65.543C506.713 65.543 506.881 65.5703 507.014 65.625L507.008 66.9609ZM510.464 64.1191V65.6602H511.583V66.7148H510.464V70.2539C510.464 70.4961 510.511 70.6719 510.605 70.7812C510.703 70.8867 510.874 70.9395 511.121 70.9395C511.285 70.9395 511.451 70.9199 511.619 70.8809V71.9824C511.294 72.0723 510.982 72.1172 510.681 72.1172C509.587 72.1172 509.04 71.5137 509.04 70.3066V66.7148H507.997V65.6602H509.04V64.1191H510.464ZM515.948 72.1172C515.046 72.1172 514.313 71.834 513.751 71.2676C513.192 70.6973 512.913 69.9395 512.913 68.9941V68.8184C512.913 68.1855 513.034 67.6211 513.276 67.125C513.522 66.625 513.866 66.2363 514.308 65.959C514.749 65.6816 515.241 65.543 515.784 65.543C516.647 65.543 517.313 65.8184 517.782 66.3691C518.255 66.9199 518.491 67.6992 518.491 68.707V69.2812H514.349C514.392 69.8047 514.565 70.2188 514.87 70.5234C515.179 70.8281 515.565 70.9805 516.03 70.9805C516.683 70.9805 517.214 70.7168 517.624 70.1895L518.392 70.9219C518.138 71.3008 517.798 71.5957 517.372 71.8066C516.95 72.0137 516.476 72.1172 515.948 72.1172ZM515.778 66.6855C515.388 66.6855 515.071 66.8223 514.829 67.0957C514.591 67.3691 514.438 67.75 514.372 68.2383H517.085V68.1328C517.054 67.6562 516.927 67.2969 516.704 67.0547C516.481 66.8086 516.173 66.6855 515.778 66.6855ZM519.815 68.7832C519.815 67.8066 520.041 67.0234 520.495 66.4336C520.948 65.8398 521.555 65.543 522.317 65.543C522.989 65.543 523.532 65.7773 523.946 66.2461V63H525.37V72H524.081L524.01 71.3438C523.584 71.8594 523.016 72.1172 522.305 72.1172C521.563 72.1172 520.961 71.8184 520.5 71.2207C520.043 70.623 519.815 69.8105 519.815 68.7832ZM521.239 68.9062C521.239 69.5508 521.362 70.0547 521.608 70.418C521.858 70.7773 522.211 70.957 522.668 70.957C523.25 70.957 523.676 70.6973 523.946 70.1777V67.4707C523.684 66.9629 523.262 66.709 522.68 66.709C522.219 66.709 521.864 66.8926 521.614 67.2598C521.364 67.623 521.239 68.1719 521.239 68.9062Z" fill="#E5E5E5"/>
<path d="M384.908 90V82.1797H387.115C387.796 82.1797 388.397 82.3301 388.92 82.6309C389.443 82.9316 389.846 83.3595 390.128 83.9146C390.415 84.4696 390.56 85.1069 390.563 85.8267V86.3262C390.563 87.0638 390.42 87.7101 390.134 88.2651C389.851 88.8201 389.444 89.2463 388.915 89.5435C388.388 89.8407 387.774 89.9928 387.072 90H384.908ZM385.939 83.0283V89.1567H387.024C387.819 89.1567 388.437 88.9097 388.877 88.4155C389.321 87.9214 389.543 87.2178 389.543 86.3047V85.8481C389.543 84.9601 389.333 84.2708 388.915 83.7803C388.499 83.2861 387.908 83.0355 387.142 83.0283H385.939ZM396.054 89.4253C395.667 89.88 395.099 90.1074 394.351 90.1074C393.731 90.1074 393.259 89.9284 392.933 89.5703C392.611 89.2087 392.448 88.6751 392.444 87.9697V84.1885H393.438V87.9429C393.438 88.8237 393.796 89.2642 394.512 89.2642C395.271 89.2642 395.776 88.9813 396.027 88.4155V84.1885H397.02V90H396.075L396.054 89.4253ZM401.839 85.0801C401.689 85.055 401.526 85.0425 401.35 85.0425C400.699 85.0425 400.256 85.32 400.024 85.875V90H399.03V84.1885H399.997L400.013 84.8599C400.339 84.3407 400.801 84.0811 401.399 84.0811C401.592 84.0811 401.739 84.1061 401.839 84.1562V85.0801ZM406.626 90C406.568 89.8854 406.522 89.6813 406.486 89.3877C406.024 89.8675 405.473 90.1074 404.832 90.1074C404.259 90.1074 403.788 89.9463 403.419 89.624C403.054 89.2982 402.871 88.8864 402.871 88.3887C402.871 87.7835 403.1 87.3145 403.559 86.9814C404.021 86.6449 404.669 86.4766 405.503 86.4766H406.47V86.02C406.47 85.6727 406.366 85.397 406.158 85.1929C405.951 84.9852 405.645 84.8813 405.24 84.8813C404.885 84.8813 404.588 84.9709 404.348 85.1499C404.108 85.3289 403.988 85.5456 403.988 85.7998H402.989C402.989 85.5098 403.091 85.2305 403.296 84.9619C403.503 84.6898 403.783 84.4749 404.133 84.3174C404.488 84.1598 404.876 84.0811 405.299 84.0811C405.969 84.0811 406.493 84.2493 406.873 84.5859C407.252 84.9189 407.449 85.3791 407.464 85.9663V88.6411C407.464 89.1746 407.532 89.599 407.668 89.9141V90H406.626ZM404.977 89.2427C405.288 89.2427 405.584 89.1621 405.863 89.001C406.142 88.8398 406.345 88.6304 406.47 88.3726V87.1802H405.691C404.474 87.1802 403.865 87.5365 403.865 88.249C403.865 88.5605 403.969 88.804 404.176 88.9795C404.384 89.1549 404.651 89.2427 404.977 89.2427ZM410.864 82.7812V84.1885H411.949V84.9565H410.864V88.5605C410.864 88.7933 410.913 88.9688 411.009 89.0869C411.106 89.2015 411.271 89.2588 411.503 89.2588C411.618 89.2588 411.776 89.2373 411.976 89.1943V90C411.715 90.0716 411.46 90.1074 411.213 90.1074C410.769 90.1074 410.435 89.9731 410.209 89.7046C409.983 89.436 409.871 89.0547 409.871 88.5605V84.9565H408.813V84.1885H409.871V82.7812H410.864ZM414.689 90H413.696V84.1885H414.689V90ZM413.615 82.647C413.615 82.4858 413.663 82.3498 413.76 82.2388C413.86 82.1278 414.007 82.0723 414.201 82.0723C414.394 82.0723 414.541 82.1278 414.641 82.2388C414.741 82.3498 414.791 82.4858 414.791 82.647C414.791 82.8081 414.741 82.9424 414.641 83.0498C414.541 83.1572 414.394 83.2109 414.201 83.2109C414.007 83.2109 413.86 83.1572 413.76 83.0498C413.663 82.9424 413.615 82.8081 413.615 82.647ZM416.516 87.0405C416.516 86.4712 416.627 85.9591 416.849 85.5044C417.075 85.0496 417.387 84.6987 417.784 84.4517C418.185 84.2046 418.642 84.0811 419.154 84.0811C419.945 84.0811 420.584 84.355 421.071 84.9028C421.562 85.4507 421.807 86.1794 421.807 87.0889V87.1587C421.807 87.7244 421.698 88.2329 421.479 88.6841C421.264 89.1317 420.955 89.4808 420.55 89.7314C420.149 89.9821 419.687 90.1074 419.164 90.1074C418.377 90.1074 417.737 89.8335 417.247 89.2856C416.76 88.7378 416.516 88.0127 416.516 87.1104V87.0405ZM417.515 87.1587C417.515 87.8032 417.664 88.3206 417.961 88.7109C418.262 89.1012 418.663 89.2964 419.164 89.2964C419.669 89.2964 420.07 89.0994 420.367 88.7056C420.665 88.3081 420.813 87.7531 420.813 87.0405C420.813 86.4032 420.661 85.8875 420.357 85.4937C420.056 85.0962 419.655 84.8975 419.154 84.8975C418.663 84.8975 418.267 85.0926 417.967 85.4829C417.666 85.8732 417.515 86.4318 417.515 87.1587ZM424.488 84.1885L424.52 84.9189C424.964 84.3604 425.544 84.0811 426.26 84.0811C427.489 84.0811 428.108 84.7739 428.119 86.1597V90H427.125V86.1543C427.122 85.7354 427.025 85.4256 426.835 85.2251C426.649 85.0246 426.357 84.9243 425.96 84.9243C425.637 84.9243 425.354 85.0103 425.111 85.1821C424.868 85.354 424.678 85.5796 424.542 85.8589V90H423.548V84.1885H424.488ZM430.08 89.479C430.08 89.3071 430.13 89.1639 430.231 89.0493C430.334 88.9347 430.488 88.8774 430.692 88.8774C430.897 88.8774 431.05 88.9347 431.154 89.0493C431.262 89.1639 431.315 89.3071 431.315 89.479C431.315 89.6437 431.262 89.7816 431.154 89.8926C431.05 90.0036 430.897 90.0591 430.692 90.0591C430.488 90.0591 430.334 90.0036 430.231 89.8926C430.13 89.7816 430.08 89.6437 430.08 89.479ZM430.085 84.7363C430.085 84.5645 430.136 84.4212 430.236 84.3066C430.34 84.1921 430.494 84.1348 430.698 84.1348C430.902 84.1348 431.056 84.1921 431.16 84.3066C431.267 84.4212 431.321 84.5645 431.321 84.7363C431.321 84.901 431.267 85.0389 431.16 85.1499C431.056 85.2609 430.902 85.3164 430.698 85.3164C430.494 85.3164 430.34 85.2609 430.236 85.1499C430.136 85.0389 430.085 84.901 430.085 84.7363ZM436.849 86.0791L437.247 82.1797H441.254V83.0981H438.09L437.854 85.2305C438.237 85.0049 438.672 84.8921 439.159 84.8921C439.872 84.8921 440.437 85.1284 440.856 85.6011C441.275 86.0701 441.485 86.7057 441.485 87.5078C441.485 88.3135 441.266 88.9491 440.829 89.4146C440.396 89.8765 439.789 90.1074 439.009 90.1074C438.318 90.1074 437.754 89.9159 437.317 89.5327C436.88 89.1496 436.631 88.6196 436.57 87.9429H437.51C437.571 88.3905 437.73 88.7288 437.988 88.958C438.246 89.1836 438.586 89.2964 439.009 89.2964C439.471 89.2964 439.832 89.1388 440.094 88.8237C440.359 88.5086 440.491 88.0736 440.491 87.5186C440.491 86.9958 440.348 86.5768 440.061 86.2617C439.778 85.943 439.401 85.7837 438.928 85.7837C438.495 85.7837 438.155 85.8786 437.908 86.0684L437.644 86.2832L436.849 86.0791ZM444.101 84.1885L444.128 84.833C444.554 84.3317 445.129 84.0811 445.852 84.0811C446.665 84.0811 447.218 84.3926 447.512 85.0156C447.705 84.7363 447.956 84.5107 448.264 84.3389C448.575 84.167 448.942 84.0811 449.365 84.0811C450.64 84.0811 451.288 84.756 451.309 86.106V90H450.316V86.165C450.316 85.7497 450.221 85.4399 450.031 85.2358C449.841 85.0282 449.522 84.9243 449.075 84.9243C448.706 84.9243 448.4 85.0353 448.156 85.2573C447.913 85.4757 447.771 85.7712 447.732 86.1436V90H446.733V86.1919C446.733 85.3468 446.32 84.9243 445.492 84.9243C444.841 84.9243 444.395 85.2018 444.155 85.7568V90H443.161V84.1885H444.101ZM454.388 90H453.394V84.1885H454.388V90ZM453.314 82.647C453.314 82.4858 453.362 82.3498 453.459 82.2388C453.559 82.1278 453.706 82.0723 453.899 82.0723C454.092 82.0723 454.239 82.1278 454.339 82.2388C454.44 82.3498 454.49 82.4858 454.49 82.647C454.49 82.8081 454.44 82.9424 454.339 83.0498C454.239 83.1572 454.092 83.2109 453.899 83.2109C453.706 83.2109 453.559 83.1572 453.459 83.0498C453.362 82.9424 453.314 82.8081 453.314 82.647ZM457.418 84.1885L457.45 84.9189C457.894 84.3604 458.474 84.0811 459.19 84.0811C460.419 84.0811 461.038 84.7739 461.049 86.1597V90H460.055V86.1543C460.052 85.7354 459.955 85.4256 459.765 85.2251C459.579 85.0246 459.287 84.9243 458.89 84.9243C458.567 84.9243 458.284 85.0103 458.041 85.1821C457.797 85.354 457.608 85.5796 457.472 85.8589V90H456.478V84.1885H457.418ZM463.064 89.479C463.064 89.3071 463.114 89.1639 463.214 89.0493C463.318 88.9347 463.472 88.8774 463.676 88.8774C463.88 88.8774 464.034 88.9347 464.138 89.0493C464.245 89.1639 464.299 89.3071 464.299 89.479C464.299 89.6437 464.245 89.7816 464.138 89.8926C464.034 90.0036 463.88 90.0591 463.676 90.0591C463.472 90.0591 463.318 90.0036 463.214 89.8926C463.114 89.7816 463.064 89.6437 463.064 89.479ZM477.461 86.3853H474.072V89.1567H478.009V90H473.04V82.1797H477.955V83.0283H474.072V85.542H477.461V86.3853ZM480.572 84.1885L480.604 84.9189C481.048 84.3604 481.628 84.0811 482.344 84.0811C483.572 84.0811 484.192 84.7739 484.202 86.1597V90H483.209V86.1543C483.205 85.7354 483.109 85.4256 482.919 85.2251C482.733 85.0246 482.441 84.9243 482.043 84.9243C481.721 84.9243 481.438 85.0103 481.195 85.1821C480.951 85.354 480.761 85.5796 480.625 85.8589V90H479.632V84.1885H480.572ZM485.954 87.0459C485.954 86.1543 486.166 85.4382 486.588 84.8975C487.011 84.3532 487.564 84.0811 488.248 84.0811C488.928 84.0811 489.467 84.3138 489.864 84.7793V81.75H490.858V90H489.945L489.897 89.377C489.499 89.8639 488.946 90.1074 488.237 90.1074C487.564 90.1074 487.014 89.8317 486.588 89.2803C486.166 88.7288 485.954 88.0091 485.954 87.1211V87.0459ZM486.948 87.1587C486.948 87.8175 487.084 88.3332 487.356 88.7056C487.628 89.078 488.004 89.2642 488.484 89.2642C489.114 89.2642 489.574 88.9813 489.864 88.4155V85.7461C489.567 85.1982 489.111 84.9243 488.495 84.9243C488.008 84.9243 487.628 85.1123 487.356 85.4883C487.084 85.8643 486.948 86.4211 486.948 87.1587ZM496.284 88.4585C496.284 88.1899 496.182 87.9823 495.978 87.8354C495.777 87.6851 495.424 87.5562 494.92 87.4487C494.418 87.3413 494.019 87.2124 493.722 87.062C493.428 86.9116 493.21 86.7326 493.067 86.5249C492.927 86.3172 492.857 86.0701 492.857 85.7837C492.857 85.3075 493.058 84.9046 493.459 84.5752C493.863 84.2458 494.379 84.0811 495.005 84.0811C495.664 84.0811 496.198 84.2511 496.606 84.5913C497.018 84.9315 497.224 85.3665 497.224 85.8965H496.225C496.225 85.6243 496.108 85.3898 495.876 85.1929C495.646 84.9959 495.356 84.8975 495.005 84.8975C494.644 84.8975 494.361 84.9762 494.157 85.1338C493.953 85.2913 493.851 85.4972 493.851 85.7515C493.851 85.9914 493.946 86.1722 494.135 86.2939C494.325 86.4157 494.667 86.5321 495.161 86.6431C495.659 86.7541 496.062 86.8866 496.37 87.0405C496.678 87.1945 496.905 87.3807 497.052 87.5991C497.202 87.814 497.277 88.0771 497.277 88.3887C497.277 88.9079 497.07 89.325 496.654 89.6401C496.239 89.9517 495.7 90.1074 495.038 90.1074C494.572 90.1074 494.16 90.0251 493.802 89.8604C493.444 89.6956 493.163 89.4665 492.959 89.1729C492.759 88.8757 492.658 88.5552 492.658 88.2114H493.652C493.67 88.5444 493.802 88.8094 494.049 89.0063C494.3 89.1997 494.629 89.2964 495.038 89.2964C495.414 89.2964 495.714 89.2212 495.94 89.0708C496.169 88.9168 496.284 88.7127 496.284 88.4585ZM505.878 90C505.821 89.8854 505.774 89.6813 505.739 89.3877C505.277 89.8675 504.725 90.1074 504.084 90.1074C503.511 90.1074 503.041 89.9463 502.672 89.624C502.307 89.2982 502.124 88.8864 502.124 88.3887C502.124 87.7835 502.353 87.3145 502.811 86.9814C503.273 86.6449 503.921 86.4766 504.756 86.4766H505.723V86.02C505.723 85.6727 505.619 85.397 505.411 85.1929C505.203 84.9852 504.897 84.8813 504.493 84.8813C504.138 84.8813 503.841 84.9709 503.601 85.1499C503.361 85.3289 503.241 85.5456 503.241 85.7998H502.242C502.242 85.5098 502.344 85.2305 502.548 84.9619C502.756 84.6898 503.035 84.4749 503.386 84.3174C503.741 84.1598 504.129 84.0811 504.552 84.0811C505.221 84.0811 505.746 84.2493 506.125 84.5859C506.505 84.9189 506.702 85.3791 506.716 85.9663V88.6411C506.716 89.1746 506.784 89.599 506.92 89.9141V90H505.878ZM504.229 89.2427C504.541 89.2427 504.836 89.1621 505.116 89.001C505.395 88.8398 505.597 88.6304 505.723 88.3726V87.1802H504.944C503.726 87.1802 503.118 87.5365 503.118 88.249C503.118 88.5605 503.221 88.804 503.429 88.9795C503.637 89.1549 503.904 89.2427 504.229 89.2427ZM510.117 82.7812V84.1885H511.202V84.9565H510.117V88.5605C510.117 88.7933 510.165 88.9688 510.262 89.0869C510.359 89.2015 510.523 89.2588 510.756 89.2588C510.871 89.2588 511.028 89.2373 511.229 89.1943V90C510.967 90.0716 510.713 90.1074 510.466 90.1074C510.022 90.1074 509.687 89.9731 509.462 89.7046C509.236 89.436 509.123 89.0547 509.123 88.5605V84.9565H508.065V84.1885H509.123V82.7812H510.117ZM519.25 90H518.25V83.3774L516.247 84.1133V83.2109L519.094 82.1421H519.25V90ZM527.78 90H522.656V89.2856L525.363 86.2778C525.764 85.8231 526.039 85.4543 526.19 85.1714C526.344 84.8849 526.421 84.5895 526.421 84.2852C526.421 83.877 526.297 83.5422 526.05 83.2808C525.803 83.0194 525.474 82.8887 525.062 82.8887C524.568 82.8887 524.183 83.0301 523.907 83.313C523.635 83.5923 523.499 83.9826 523.499 84.4839H522.505C522.505 83.7642 522.736 83.1823 523.198 82.7383C523.664 82.2943 524.285 82.0723 525.062 82.0723C525.789 82.0723 526.363 82.2638 526.786 82.647C527.209 83.0265 527.42 83.5332 527.42 84.167C527.42 84.9368 526.929 85.8535 525.948 86.917L523.853 89.189H527.78V90ZM529.397 89.479C529.397 89.3071 529.447 89.1639 529.548 89.0493C529.651 88.9347 529.805 88.8774 530.01 88.8774C530.214 88.8774 530.368 88.9347 530.471 89.0493C530.579 89.1639 530.633 89.3071 530.633 89.479C530.633 89.6437 530.579 89.7816 530.471 89.8926C530.368 90.0036 530.214 90.0591 530.01 90.0591C529.805 90.0591 529.651 90.0036 529.548 89.8926C529.447 89.7816 529.397 89.6437 529.397 89.479ZM529.403 84.7363C529.403 84.5645 529.453 84.4212 529.553 84.3066C529.657 84.1921 529.811 84.1348 530.015 84.1348C530.219 84.1348 530.373 84.1921 530.477 84.3066C530.584 84.4212 530.638 84.5645 530.638 84.7363C530.638 84.901 530.584 85.0389 530.477 85.1499C530.373 85.2609 530.219 85.3164 530.015 85.3164C529.811 85.3164 529.657 85.2609 529.553 85.1499C529.453 85.0389 529.403 84.901 529.403 84.7363ZM533.931 85.6064H534.678C535.147 85.5993 535.516 85.4757 535.784 85.2358C536.053 84.9959 536.187 84.6719 536.187 84.2637C536.187 83.347 535.731 82.8887 534.818 82.8887C534.388 82.8887 534.044 83.0122 533.786 83.2593C533.532 83.5028 533.405 83.8268 533.405 84.2314H532.411C532.411 83.612 532.637 83.0981 533.088 82.6899C533.543 82.2782 534.119 82.0723 534.818 82.0723C535.555 82.0723 536.133 82.2674 536.552 82.6577C536.971 83.048 537.181 83.5905 537.181 84.2852C537.181 84.6253 537.07 84.9548 536.848 85.2734C536.629 85.5921 536.33 85.8302 535.951 85.9878C536.381 86.1239 536.712 86.3494 536.944 86.6646C537.181 86.9797 537.299 87.3646 537.299 87.8193C537.299 88.5212 537.07 89.078 536.611 89.4897C536.153 89.9015 535.557 90.1074 534.823 90.1074C534.089 90.1074 533.491 89.9087 533.029 89.5112C532.571 89.1138 532.341 88.5892 532.341 87.9375H533.34C533.34 88.3493 533.475 88.6787 533.743 88.9258C534.012 89.1729 534.372 89.2964 534.823 89.2964C535.303 89.2964 535.67 89.1711 535.924 88.9204C536.178 88.6698 536.305 88.3099 536.305 87.8408C536.305 87.3861 536.166 87.0369 535.886 86.7935C535.607 86.55 535.204 86.4246 534.678 86.4175H533.931V85.6064ZM544.062 86.6646C544.062 87.8283 543.863 88.693 543.466 89.2588C543.068 89.8245 542.447 90.1074 541.602 90.1074C540.768 90.1074 540.15 89.8317 539.749 89.2803C539.348 88.7253 539.14 87.8981 539.126 86.7988V85.4722C539.126 84.3228 539.325 83.4688 539.722 82.9102C540.12 82.3516 540.743 82.0723 541.591 82.0723C542.433 82.0723 543.052 82.3426 543.45 82.8833C543.847 83.4204 544.051 84.2511 544.062 85.3755V86.6646ZM543.068 85.3057C543.068 84.4642 542.95 83.8519 542.714 83.4688C542.478 83.082 542.103 82.8887 541.591 82.8887C541.083 82.8887 540.712 83.0802 540.48 83.4634C540.247 83.8465 540.127 84.4355 540.12 85.2305V86.8203C540.12 87.6654 540.241 88.2902 540.485 88.6948C540.732 89.0959 541.104 89.2964 541.602 89.2964C542.093 89.2964 542.456 89.1066 542.692 88.7271C542.932 88.3475 543.058 87.7495 543.068 86.9331V85.3057Z" fill="#E5E5E5"/>
<path d="M375 78C375 85.732 368.732 92 361 92C353.268 92 347 85.732 347 78C347 70.268 353.268 64 361 64C368.732 64 375 70.268 375 78ZM350.78 78C350.78 83.6444 355.356 88.22 361 88.22C366.644 88.22 371.22 83.6444 371.22 78C371.22 72.3556 366.644 67.78 361 67.78C355.356 67.78 350.78 72.3556 350.78 78Z" fill="#C336E8"/>
<g filter="url(#filter1_d)">
<path d="M132 26H273V172C273 177.523 268.523 182 263 182H142C136.477 182 132 177.523 132 172V26Z" fill="#323232"/>
<path d="M132 25.5H131.5V26V172C131.5 177.799 136.201 182.5 142 182.5H263C268.799 182.5 273.5 177.799 273.5 172V26V25.5H273H132Z" stroke="#5A5A5A"/>
</g>
<path d="M162.595 37.127H159.396V46H158.09V37.127H154.897V36.0469H162.595V37.127ZM165.247 46H163.982V38.6035H165.247V46ZM163.88 36.6416C163.88 36.4365 163.941 36.2633 164.064 36.1221C164.192 35.9808 164.379 35.9102 164.625 35.9102C164.871 35.9102 165.058 35.9808 165.186 36.1221C165.313 36.2633 165.377 36.4365 165.377 36.6416C165.377 36.8467 165.313 37.0176 165.186 37.1543C165.058 37.291 164.871 37.3594 164.625 37.3594C164.379 37.3594 164.192 37.291 164.064 37.1543C163.941 37.0176 163.88 36.8467 163.88 36.6416ZM168.467 38.6035L168.501 39.4238C169.043 38.7858 169.775 38.4668 170.695 38.4668C171.73 38.4668 172.434 38.8633 172.808 39.6562C173.054 39.3008 173.373 39.0137 173.765 38.7949C174.161 38.5762 174.628 38.4668 175.166 38.4668C176.788 38.4668 177.613 39.3258 177.641 41.0439V46H176.376V41.1191C176.376 40.5905 176.255 40.1963 176.014 39.9365C175.772 39.6722 175.367 39.54 174.797 39.54C174.327 39.54 173.938 39.6813 173.628 39.9639C173.318 40.2419 173.138 40.6178 173.088 41.0918V46H171.816V41.1533C171.816 40.0778 171.29 39.54 170.237 39.54C169.408 39.54 168.84 39.8932 168.535 40.5996V46H167.271V38.6035H168.467ZM182.624 46.1367C181.621 46.1367 180.806 45.8086 180.177 45.1523C179.548 44.4915 179.233 43.6097 179.233 42.5068V42.2744C179.233 41.5407 179.372 40.8867 179.65 40.3125C179.933 39.7337 180.325 39.2826 180.826 38.959C181.332 38.6309 181.879 38.4668 182.467 38.4668C183.428 38.4668 184.176 38.7835 184.709 39.417C185.242 40.0505 185.509 40.9574 185.509 42.1377V42.6641H180.498C180.516 43.3932 180.728 43.9834 181.134 44.4346C181.544 44.8812 182.063 45.1045 182.692 45.1045C183.139 45.1045 183.517 45.0133 183.827 44.8311C184.137 44.6488 184.408 44.4072 184.641 44.1064L185.413 44.708C184.793 45.6605 183.864 46.1367 182.624 46.1367ZM182.467 39.5059C181.956 39.5059 181.528 39.6927 181.182 40.0664C180.835 40.4355 180.621 40.9551 180.539 41.625H184.244V41.5293C184.208 40.8867 184.035 40.39 183.725 40.0391C183.415 39.6836 182.995 39.5059 182.467 39.5059ZM191.825 46H190.561V35.5H191.825V46ZM196.925 46.1367C195.922 46.1367 195.106 45.8086 194.478 45.1523C193.849 44.4915 193.534 43.6097 193.534 42.5068V42.2744C193.534 41.5407 193.673 40.8867 193.951 40.3125C194.234 39.7337 194.626 39.2826 195.127 38.959C195.633 38.6309 196.18 38.4668 196.768 38.4668C197.729 38.4668 198.477 38.7835 199.01 39.417C199.543 40.0505 199.81 40.9574 199.81 42.1377V42.6641H194.799C194.817 43.3932 195.029 43.9834 195.435 44.4346C195.845 44.8812 196.364 45.1045 196.993 45.1045C197.44 45.1045 197.818 45.0133 198.128 44.8311C198.438 44.6488 198.709 44.4072 198.941 44.1064L199.714 44.708C199.094 45.6605 198.164 46.1367 196.925 46.1367ZM196.768 39.5059C196.257 39.5059 195.829 39.6927 195.482 40.0664C195.136 40.4355 194.922 40.9551 194.84 41.625H198.545V41.5293C198.508 40.8867 198.335 40.39 198.025 40.0391C197.715 39.6836 197.296 39.5059 196.768 39.5059ZM201.901 46V39.5811H200.732V38.6035H201.901V37.8447C201.901 37.0518 202.113 36.4388 202.537 36.0059C202.961 35.5729 203.56 35.3564 204.335 35.3564C204.627 35.3564 204.916 35.3952 205.203 35.4727L205.135 36.498C204.921 36.457 204.693 36.4365 204.451 36.4365C204.041 36.4365 203.724 36.5573 203.501 36.7988C203.278 37.0358 203.166 37.3776 203.166 37.8242V38.6035H204.745V39.5811H203.166V46H201.901ZM207.862 36.8125V38.6035H209.243V39.5811H207.862V44.168C207.862 44.4642 207.924 44.6875 208.047 44.8379C208.17 44.9837 208.38 45.0566 208.676 45.0566C208.822 45.0566 209.022 45.0293 209.277 44.9746V46C208.945 46.0911 208.621 46.1367 208.307 46.1367C207.742 46.1367 207.315 45.9658 207.028 45.624C206.741 45.2822 206.598 44.7969 206.598 44.168V39.5811H205.251V38.6035H206.598V36.8125H207.862ZM210.686 45.3369C210.686 45.1182 210.749 44.9359 210.877 44.79C211.009 44.6442 211.205 44.5713 211.465 44.5713C211.725 44.5713 211.921 44.6442 212.053 44.79C212.189 44.9359 212.258 45.1182 212.258 45.3369C212.258 45.5465 212.189 45.722 212.053 45.8633C211.921 46.0046 211.725 46.0752 211.465 46.0752C211.205 46.0752 211.009 46.0046 210.877 45.8633C210.749 45.722 210.686 45.5465 210.686 45.3369ZM210.692 39.3008C210.692 39.082 210.756 38.8997 210.884 38.7539C211.016 38.6081 211.212 38.5352 211.472 38.5352C211.731 38.5352 211.927 38.6081 212.06 38.7539C212.196 38.8997 212.265 39.082 212.265 39.3008C212.265 39.5104 212.196 39.6859 212.06 39.8271C211.927 39.9684 211.731 40.0391 211.472 40.0391C211.212 40.0391 211.016 39.9684 210.884 39.8271C210.756 39.6859 210.692 39.5104 210.692 39.3008ZM223.701 41.7549C223.701 43.236 223.448 44.3366 222.942 45.0566C222.437 45.7767 221.646 46.1367 220.57 46.1367C219.508 46.1367 218.722 45.7858 218.212 45.084C217.701 44.3776 217.437 43.3249 217.419 41.9258V40.2373C217.419 38.7744 217.672 37.6875 218.178 36.9766C218.684 36.2656 219.477 35.9102 220.557 35.9102C221.628 35.9102 222.416 36.2542 222.922 36.9424C223.428 37.626 223.688 38.6833 223.701 40.1143V41.7549ZM222.437 40.0254C222.437 38.9544 222.286 38.1751 221.985 37.6875C221.685 37.1953 221.208 36.9492 220.557 36.9492C219.91 36.9492 219.438 37.193 219.142 37.6807C218.845 38.1683 218.693 38.918 218.684 39.9297V41.9531C218.684 43.0286 218.839 43.8239 219.148 44.3389C219.463 44.8493 219.937 45.1045 220.57 45.1045C221.195 45.1045 221.657 44.863 221.958 44.3799C222.263 43.8968 222.423 43.1357 222.437 42.0967V40.0254ZM225.902 41.0098L226.408 36.0469H231.508V37.2158H227.481L227.181 39.9297C227.668 39.6426 228.222 39.499 228.842 39.499C229.749 39.499 230.469 39.7998 231.002 40.4014C231.535 40.9984 231.802 41.8073 231.802 42.8281C231.802 43.8535 231.524 44.6624 230.968 45.2549C230.416 45.8428 229.644 46.1367 228.65 46.1367C227.771 46.1367 227.053 45.8929 226.497 45.4053C225.941 44.9176 225.624 44.2432 225.547 43.3818H226.743C226.821 43.9515 227.023 44.3822 227.352 44.6738C227.68 44.9609 228.113 45.1045 228.65 45.1045C229.238 45.1045 229.699 44.904 230.031 44.5029C230.368 44.1019 230.537 43.5482 230.537 42.8418C230.537 42.1764 230.355 41.6432 229.99 41.2422C229.63 40.8366 229.149 40.6338 228.548 40.6338C227.996 40.6338 227.563 40.7546 227.249 40.9961L226.914 41.2695L225.902 41.0098ZM233.271 45.3369C233.271 45.1182 233.335 44.9359 233.463 44.79C233.595 44.6442 233.791 44.5713 234.051 44.5713C234.311 44.5713 234.507 44.6442 234.639 44.79C234.775 44.9359 234.844 45.1182 234.844 45.3369C234.844 45.5465 234.775 45.722 234.639 45.8633C234.507 46.0046 234.311 46.0752 234.051 46.0752C233.791 46.0752 233.595 46.0046 233.463 45.8633C233.335 45.722 233.271 45.5465 233.271 45.3369ZM233.278 39.3008C233.278 39.082 233.342 38.8997 233.47 38.7539C233.602 38.6081 233.798 38.5352 234.058 38.5352C234.317 38.5352 234.513 38.6081 234.646 38.7539C234.782 38.8997 234.851 39.082 234.851 39.3008C234.851 39.5104 234.782 39.6859 234.646 39.8271C234.513 39.9684 234.317 40.0391 234.058 40.0391C233.798 40.0391 233.602 39.9684 233.47 39.8271C233.342 39.6859 233.278 39.5104 233.278 39.3008ZM240.729 46H239.458V37.5713L236.908 38.5078V37.3594L240.531 35.999H240.729V46ZM245.016 41.0098L245.521 36.0469H250.621V37.2158H246.595L246.294 39.9297C246.782 39.6426 247.335 39.499 247.955 39.499C248.862 39.499 249.582 39.7998 250.115 40.4014C250.648 40.9984 250.915 41.8073 250.915 42.8281C250.915 43.8535 250.637 44.6624 250.081 45.2549C249.53 45.8428 248.757 46.1367 247.764 46.1367C246.884 46.1367 246.166 45.8929 245.61 45.4053C245.054 44.9176 244.738 44.2432 244.66 43.3818H245.856C245.934 43.9515 246.137 44.3822 246.465 44.6738C246.793 44.9609 247.226 45.1045 247.764 45.1045C248.352 45.1045 248.812 44.904 249.145 44.5029C249.482 44.1019 249.65 43.5482 249.65 42.8418C249.65 42.1764 249.468 41.6432 249.104 41.2422C248.743 40.8366 248.263 40.6338 247.661 40.6338C247.11 40.6338 246.677 40.7546 246.362 40.9961L246.027 41.2695L245.016 41.0098Z" fill="#E5E5E5"/>
<path d="M272 55H134V57H272V55Z" fill="#5A5A5A"/>
<path d="M159.642 71.9736H157.304V76H155.984V66.0469H159.279C160.4 66.0469 161.262 66.3021 161.863 66.8125C162.469 67.3229 162.772 68.0658 162.772 69.041C162.772 69.6608 162.604 70.2008 162.267 70.6611C161.934 71.1214 161.469 71.4655 160.872 71.6934L163.21 75.918V76H161.802L159.642 71.9736ZM157.304 70.9004H159.32C159.972 70.9004 160.489 70.7318 160.872 70.3945C161.259 70.0573 161.453 69.6061 161.453 69.041C161.453 68.4258 161.269 67.9541 160.899 67.626C160.535 67.2979 160.006 67.1315 159.313 67.127H157.304V70.9004ZM167.489 76.1367C166.487 76.1367 165.671 75.8086 165.042 75.1523C164.413 74.4915 164.099 73.6097 164.099 72.5068V72.2744C164.099 71.5407 164.238 70.8867 164.516 70.3125C164.798 69.7337 165.19 69.2826 165.691 68.959C166.197 68.6309 166.744 68.4668 167.332 68.4668C168.294 68.4668 169.041 68.7835 169.574 69.417C170.107 70.0505 170.374 70.9574 170.374 72.1377V72.6641H165.363C165.382 73.3932 165.593 73.9834 165.999 74.4346C166.409 74.8812 166.929 75.1045 167.558 75.1045C168.004 75.1045 168.382 75.0133 168.692 74.8311C169.002 74.6488 169.273 74.4072 169.506 74.1064L170.278 74.708C169.659 75.6605 168.729 76.1367 167.489 76.1367ZM167.332 69.5059C166.822 69.5059 166.393 69.6927 166.047 70.0664C165.701 70.4355 165.486 70.9551 165.404 71.625H169.109V71.5293C169.073 70.8867 168.9 70.39 168.59 70.0391C168.28 69.6836 167.861 69.5059 167.332 69.5059ZM176.15 74.0381C176.15 73.6963 176.021 73.432 175.761 73.2451C175.506 73.0537 175.057 72.8896 174.414 72.7529C173.776 72.6162 173.268 72.4521 172.89 72.2607C172.516 72.0693 172.238 71.8415 172.056 71.5771C171.878 71.3128 171.789 70.9984 171.789 70.6338C171.789 70.0277 172.044 69.515 172.555 69.0957C173.07 68.6764 173.726 68.4668 174.523 68.4668C175.362 68.4668 176.041 68.6833 176.561 69.1162C177.085 69.5492 177.347 70.1029 177.347 70.7773H176.075C176.075 70.431 175.927 70.1325 175.631 69.8818C175.339 69.6312 174.97 69.5059 174.523 69.5059C174.063 69.5059 173.703 69.6061 173.443 69.8066C173.184 70.0072 173.054 70.2692 173.054 70.5928C173.054 70.8981 173.174 71.1283 173.416 71.2832C173.658 71.4382 174.093 71.5863 174.722 71.7275C175.355 71.8688 175.868 72.0374 176.26 72.2334C176.652 72.4294 176.941 72.6663 177.128 72.9443C177.319 73.2178 177.415 73.5527 177.415 73.9492C177.415 74.61 177.151 75.141 176.622 75.542C176.093 75.9385 175.408 76.1367 174.564 76.1367C173.972 76.1367 173.448 76.0319 172.992 75.8223C172.536 75.6126 172.179 75.321 171.919 74.9473C171.664 74.569 171.536 74.1611 171.536 73.7236H172.801C172.824 74.1475 172.992 74.4847 173.307 74.7354C173.626 74.9814 174.045 75.1045 174.564 75.1045C175.043 75.1045 175.426 75.0088 175.713 74.8174C176.005 74.6214 176.15 74.3617 176.15 74.0381ZM182.132 76.1367C181.129 76.1367 180.313 75.8086 179.685 75.1523C179.056 74.4915 178.741 73.6097 178.741 72.5068V72.2744C178.741 71.5407 178.88 70.8867 179.158 70.3125C179.441 69.7337 179.833 69.2826 180.334 68.959C180.84 68.6309 181.387 68.4668 181.975 68.4668C182.936 68.4668 183.684 68.7835 184.217 69.417C184.75 70.0505 185.017 70.9574 185.017 72.1377V72.6641H180.006C180.024 73.3932 180.236 73.9834 180.642 74.4346C181.052 74.8812 181.571 75.1045 182.2 75.1045C182.647 75.1045 183.025 75.0133 183.335 74.8311C183.645 74.6488 183.916 74.4072 184.148 74.1064L184.921 74.708C184.301 75.6605 183.371 76.1367 182.132 76.1367ZM181.975 69.5059C181.464 69.5059 181.036 69.6927 180.689 70.0664C180.343 70.4355 180.129 70.9551 180.047 71.625H183.752V71.5293C183.715 70.8867 183.542 70.39 183.232 70.0391C182.923 69.6836 182.503 69.5059 181.975 69.5059ZM188.202 66.8125V68.6035H189.583V69.5811H188.202V74.168C188.202 74.4642 188.264 74.6875 188.387 74.8379C188.51 74.9837 188.719 75.0566 189.016 75.0566C189.161 75.0566 189.362 75.0293 189.617 74.9746V76C189.285 76.0911 188.961 76.1367 188.646 76.1367C188.081 76.1367 187.655 75.9658 187.368 75.624C187.081 75.2822 186.938 74.7969 186.938 74.168V69.5811H185.591V68.6035H186.938V66.8125H188.202ZM201.341 67.127H198.142V76H196.836V67.127H193.644V66.0469H201.341V67.127ZM203.993 76H202.729V68.6035H203.993V76ZM202.626 66.6416C202.626 66.4365 202.688 66.2633 202.811 66.1221C202.938 65.9808 203.125 65.9102 203.371 65.9102C203.617 65.9102 203.804 65.9808 203.932 66.1221C204.059 66.2633 204.123 66.4365 204.123 66.6416C204.123 66.8467 204.059 67.0176 203.932 67.1543C203.804 67.291 203.617 67.3594 203.371 67.3594C203.125 67.3594 202.938 67.291 202.811 67.1543C202.688 67.0176 202.626 66.8467 202.626 66.6416ZM207.213 68.6035L207.247 69.4238C207.789 68.7858 208.521 68.4668 209.441 68.4668C210.476 68.4668 211.18 68.8633 211.554 69.6562C211.8 69.3008 212.119 69.0137 212.511 68.7949C212.907 68.5762 213.374 68.4668 213.912 68.4668C215.535 68.4668 216.359 69.3258 216.387 71.0439V76H215.122V71.1191C215.122 70.5905 215.001 70.1963 214.76 69.9365C214.518 69.6722 214.113 69.54 213.543 69.54C213.074 69.54 212.684 69.6813 212.374 69.9639C212.064 70.2419 211.884 70.6178 211.834 71.0918V76H210.562V71.1533C210.562 70.0778 210.036 69.54 208.983 69.54C208.154 69.54 207.587 69.8932 207.281 70.5996V76H206.017V68.6035H207.213ZM221.37 76.1367C220.368 76.1367 219.552 75.8086 218.923 75.1523C218.294 74.4915 217.979 73.6097 217.979 72.5068V72.2744C217.979 71.5407 218.118 70.8867 218.396 70.3125C218.679 69.7337 219.071 69.2826 219.572 68.959C220.078 68.6309 220.625 68.4668 221.213 68.4668C222.174 68.4668 222.922 68.7835 223.455 69.417C223.988 70.0505 224.255 70.9574 224.255 72.1377V72.6641H219.244C219.262 73.3932 219.474 73.9834 219.88 74.4346C220.29 74.8812 220.81 75.1045 221.438 75.1045C221.885 75.1045 222.263 75.0133 222.573 74.8311C222.883 74.6488 223.154 74.4072 223.387 74.1064L224.159 74.708C223.539 75.6605 222.61 76.1367 221.37 76.1367ZM221.213 69.5059C220.702 69.5059 220.274 69.6927 219.928 70.0664C219.581 70.4355 219.367 70.9551 219.285 71.625H222.99V71.5293C222.954 70.8867 222.781 70.39 222.471 70.0391C222.161 69.6836 221.742 69.5059 221.213 69.5059ZM229.3 69.7383C229.108 69.7064 228.901 69.6904 228.678 69.6904C227.848 69.6904 227.285 70.0436 226.989 70.75V76H225.725V68.6035H226.955L226.976 69.458C227.39 68.7972 227.978 68.4668 228.739 68.4668C228.985 68.4668 229.172 68.4987 229.3 68.5625V69.7383Z" fill="#E5E5E5"/>
<path d="M162.595 89.127H159.396V98H158.09V89.127H154.897V88.0469H162.595V89.127ZM167.783 97.2686C167.291 97.8473 166.569 98.1367 165.616 98.1367C164.828 98.1367 164.226 97.9089 163.812 97.4531C163.401 96.9928 163.194 96.3138 163.189 95.416V90.6035H164.454V95.3818C164.454 96.5029 164.91 97.0635 165.821 97.0635C166.787 97.0635 167.43 96.7035 167.749 95.9834V90.6035H169.014V98H167.811L167.783 97.2686ZM174.517 91.7383C174.325 91.7064 174.118 91.6904 173.895 91.6904C173.065 91.6904 172.502 92.0436 172.206 92.75V98H170.941V90.6035H172.172L172.192 91.458C172.607 90.7972 173.195 90.4668 173.956 90.4668C174.202 90.4668 174.389 90.4987 174.517 90.5625V91.7383ZM176.882 90.6035L176.923 91.5332C177.488 90.8223 178.226 90.4668 179.138 90.4668C180.701 90.4668 181.489 91.3486 181.503 93.1123V98H180.238V93.1055C180.234 92.5723 180.111 92.1781 179.869 91.9229C179.632 91.6676 179.261 91.54 178.755 91.54C178.345 91.54 177.985 91.6494 177.675 91.8682C177.365 92.0869 177.123 92.374 176.95 92.7295V98H175.686V90.6035H176.882ZM191.189 96.0381C191.189 95.6963 191.06 95.432 190.8 95.2451C190.545 95.0537 190.096 94.8896 189.453 94.7529C188.815 94.6162 188.307 94.4521 187.929 94.2607C187.555 94.0693 187.277 93.8415 187.095 93.5771C186.917 93.3128 186.828 92.9984 186.828 92.6338C186.828 92.0277 187.083 91.515 187.594 91.0957C188.109 90.6764 188.765 90.4668 189.562 90.4668C190.401 90.4668 191.08 90.6833 191.6 91.1162C192.124 91.5492 192.386 92.1029 192.386 92.7773H191.114C191.114 92.431 190.966 92.1325 190.67 91.8818C190.378 91.6312 190.009 91.5059 189.562 91.5059C189.102 91.5059 188.742 91.6061 188.482 91.8066C188.223 92.0072 188.093 92.2692 188.093 92.5928C188.093 92.8981 188.214 93.1283 188.455 93.2832C188.697 93.4382 189.132 93.5863 189.761 93.7275C190.394 93.8688 190.907 94.0374 191.299 94.2334C191.691 94.4294 191.98 94.6663 192.167 94.9443C192.358 95.2178 192.454 95.5527 192.454 95.9492C192.454 96.61 192.19 97.141 191.661 97.542C191.132 97.9385 190.447 98.1367 189.604 98.1367C189.011 98.1367 188.487 98.0319 188.031 97.8223C187.576 97.6126 187.218 97.321 186.958 96.9473C186.703 96.569 186.575 96.1611 186.575 95.7236H187.84C187.863 96.1475 188.031 96.4847 188.346 96.7354C188.665 96.9814 189.084 97.1045 189.604 97.1045C190.082 97.1045 190.465 97.0088 190.752 96.8174C191.044 96.6214 191.189 96.3617 191.189 96.0381ZM193.767 94.2334C193.767 93.5088 193.908 92.8571 194.19 92.2783C194.478 91.6995 194.874 91.2529 195.38 90.9385C195.89 90.624 196.471 90.4668 197.123 90.4668C198.13 90.4668 198.944 90.8154 199.563 91.5127C200.188 92.21 200.5 93.1374 200.5 94.2949V94.3838C200.5 95.1038 200.361 95.751 200.083 96.3252C199.81 96.8949 199.415 97.3392 198.9 97.6582C198.39 97.9772 197.802 98.1367 197.137 98.1367C196.134 98.1367 195.321 97.7881 194.696 97.0908C194.076 96.3936 193.767 95.4707 193.767 94.3223V94.2334ZM195.038 94.3838C195.038 95.2041 195.227 95.8626 195.605 96.3594C195.988 96.8561 196.499 97.1045 197.137 97.1045C197.779 97.1045 198.29 96.8538 198.668 96.3525C199.046 95.8467 199.235 95.1403 199.235 94.2334C199.235 93.4222 199.042 92.766 198.654 92.2646C198.271 91.7588 197.761 91.5059 197.123 91.5059C196.499 91.5059 195.995 91.7542 195.612 92.251C195.229 92.7477 195.038 93.4587 195.038 94.3838ZM206.652 97.2686C206.16 97.8473 205.438 98.1367 204.485 98.1367C203.697 98.1367 203.095 97.9089 202.681 97.4531C202.271 96.9928 202.063 96.3138 202.059 95.416V90.6035H203.323V95.3818C203.323 96.5029 203.779 97.0635 204.69 97.0635C205.657 97.0635 206.299 96.7035 206.618 95.9834V90.6035H207.883V98H206.68L206.652 97.2686ZM211.007 90.6035L211.048 91.5332C211.613 90.8223 212.351 90.4668 213.263 90.4668C214.826 90.4668 215.614 91.3486 215.628 93.1123V98H214.363V93.1055C214.359 92.5723 214.236 92.1781 213.994 91.9229C213.757 91.6676 213.386 91.54 212.88 91.54C212.47 91.54 212.11 91.6494 211.8 91.8682C211.49 92.0869 211.248 92.374 211.075 92.7295V98H209.811V90.6035H211.007ZM217.228 94.2402C217.228 93.1055 217.496 92.194 218.034 91.5059C218.572 90.8132 219.276 90.4668 220.146 90.4668C221.012 90.4668 221.698 90.763 222.204 91.3555V87.5H223.469V98H222.307L222.245 97.207C221.739 97.8268 221.035 98.1367 220.133 98.1367C219.276 98.1367 218.576 97.7858 218.034 97.084C217.496 96.3822 217.228 95.4661 217.228 94.3359V94.2402ZM218.492 94.3838C218.492 95.2223 218.665 95.8786 219.012 96.3525C219.358 96.8265 219.837 97.0635 220.447 97.0635C221.249 97.0635 221.835 96.7035 222.204 95.9834V92.5859C221.826 91.8887 221.245 91.54 220.461 91.54C219.841 91.54 219.358 91.7793 219.012 92.2578C218.665 92.7363 218.492 93.445 218.492 94.3838ZM228.575 94.2334C228.575 93.5088 228.716 92.8571 228.999 92.2783C229.286 91.6995 229.683 91.2529 230.188 90.9385C230.699 90.624 231.28 90.4668 231.932 90.4668C232.939 90.4668 233.752 90.8154 234.372 91.5127C234.996 92.21 235.309 93.1374 235.309 94.2949V94.3838C235.309 95.1038 235.17 95.751 234.892 96.3252C234.618 96.8949 234.224 97.3392 233.709 97.6582C233.199 97.9772 232.611 98.1367 231.945 98.1367C230.943 98.1367 230.129 97.7881 229.505 97.0908C228.885 96.3936 228.575 95.4707 228.575 94.3223V94.2334ZM229.847 94.3838C229.847 95.2041 230.036 95.8626 230.414 96.3594C230.797 96.8561 231.307 97.1045 231.945 97.1045C232.588 97.1045 233.098 96.8538 233.477 96.3525C233.855 95.8467 234.044 95.1403 234.044 94.2334C234.044 93.4222 233.85 92.766 233.463 92.2646C233.08 91.7588 232.57 91.5059 231.932 91.5059C231.307 91.5059 230.804 91.7542 230.421 92.251C230.038 92.7477 229.847 93.4587 229.847 94.3838ZM237.517 98V91.5811H236.348V90.6035H237.517V89.8447C237.517 89.0518 237.729 88.4388 238.152 88.0059C238.576 87.5729 239.175 87.3564 239.95 87.3564C240.242 87.3564 240.531 87.3952 240.818 87.4727L240.75 88.498C240.536 88.457 240.308 88.4365 240.066 88.4365C239.656 88.4365 239.34 88.5573 239.116 88.7988C238.893 89.0358 238.781 89.3776 238.781 89.8242V90.6035H240.36V91.5811H238.781V98H237.517ZM242.384 98V91.5811H241.215V90.6035H242.384V89.8447C242.384 89.0518 242.596 88.4388 243.02 88.0059C243.443 87.5729 244.043 87.3564 244.817 87.3564C245.109 87.3564 245.398 87.3952 245.686 87.4727L245.617 88.498C245.403 88.457 245.175 88.4365 244.934 88.4365C244.523 88.4365 244.207 88.5573 243.983 88.7988C243.76 89.0358 243.648 89.3776 243.648 89.8242V90.6035H245.228V91.5811H243.648V98H242.384Z" fill="#E5E5E5"/>
<path d="M158.924 115.563C157.798 115.24 156.978 114.843 156.463 114.374C155.952 113.9 155.697 113.317 155.697 112.624C155.697 111.84 156.009 111.193 156.634 110.683C157.263 110.168 158.078 109.91 159.081 109.91C159.765 109.91 160.373 110.042 160.906 110.307C161.444 110.571 161.859 110.936 162.15 111.4C162.447 111.865 162.595 112.373 162.595 112.925H161.275C161.275 112.323 161.084 111.852 160.701 111.51C160.318 111.163 159.778 110.99 159.081 110.99C158.434 110.99 157.928 111.134 157.563 111.421C157.203 111.703 157.023 112.098 157.023 112.604C157.023 113.009 157.194 113.353 157.536 113.636C157.882 113.914 158.468 114.169 159.293 114.401C160.122 114.634 160.77 114.891 161.234 115.174C161.704 115.452 162.05 115.778 162.273 116.151C162.501 116.525 162.615 116.965 162.615 117.471C162.615 118.277 162.301 118.924 161.672 119.412C161.043 119.895 160.202 120.137 159.149 120.137C158.466 120.137 157.828 120.007 157.235 119.747C156.643 119.483 156.185 119.123 155.861 118.667C155.542 118.211 155.383 117.694 155.383 117.115H156.702C156.702 117.717 156.923 118.193 157.365 118.544C157.812 118.89 158.407 119.063 159.149 119.063C159.842 119.063 160.373 118.922 160.742 118.64C161.111 118.357 161.296 117.972 161.296 117.484C161.296 116.997 161.125 116.621 160.783 116.356C160.441 116.088 159.822 115.823 158.924 115.563ZM167.175 120.137C166.172 120.137 165.356 119.809 164.728 119.152C164.099 118.492 163.784 117.61 163.784 116.507V116.274C163.784 115.541 163.923 114.887 164.201 114.312C164.484 113.734 164.876 113.283 165.377 112.959C165.883 112.631 166.43 112.467 167.018 112.467C167.979 112.467 168.727 112.784 169.26 113.417C169.793 114.05 170.06 114.957 170.06 116.138V116.664H165.049C165.067 117.393 165.279 117.983 165.685 118.435C166.095 118.881 166.614 119.104 167.243 119.104C167.69 119.104 168.068 119.013 168.378 118.831C168.688 118.649 168.959 118.407 169.191 118.106L169.964 118.708C169.344 119.66 168.414 120.137 167.175 120.137ZM167.018 113.506C166.507 113.506 166.079 113.693 165.732 114.066C165.386 114.436 165.172 114.955 165.09 115.625H168.795V115.529C168.758 114.887 168.585 114.39 168.275 114.039C167.965 113.684 167.546 113.506 167.018 113.506ZM173.245 110.812V112.604H174.626V113.581H173.245V118.168C173.245 118.464 173.307 118.688 173.43 118.838C173.553 118.984 173.762 119.057 174.059 119.057C174.204 119.057 174.405 119.029 174.66 118.975V120C174.327 120.091 174.004 120.137 173.689 120.137C173.124 120.137 172.698 119.966 172.411 119.624C172.124 119.282 171.98 118.797 171.98 118.168V113.581H170.634V112.604H171.98V110.812H173.245ZM177.825 110.812V112.604H179.206V113.581H177.825V118.168C177.825 118.464 177.887 118.688 178.01 118.838C178.133 118.984 178.342 119.057 178.639 119.057C178.785 119.057 178.985 119.029 179.24 118.975V120C178.908 120.091 178.584 120.137 178.27 120.137C177.704 120.137 177.278 119.966 176.991 119.624C176.704 119.282 176.561 118.797 176.561 118.168V113.581H175.214V112.604H176.561V110.812H177.825ZM182.063 120H180.799V112.604H182.063V120ZM180.696 110.642C180.696 110.437 180.758 110.263 180.881 110.122C181.008 109.981 181.195 109.91 181.441 109.91C181.688 109.91 181.874 109.981 182.002 110.122C182.13 110.263 182.193 110.437 182.193 110.642C182.193 110.847 182.13 111.018 182.002 111.154C181.874 111.291 181.688 111.359 181.441 111.359C181.195 111.359 181.008 111.291 180.881 111.154C180.758 111.018 180.696 110.847 180.696 110.642ZM185.29 112.604L185.331 113.533C185.896 112.822 186.634 112.467 187.546 112.467C189.109 112.467 189.897 113.349 189.911 115.112V120H188.646V115.105C188.642 114.572 188.519 114.178 188.277 113.923C188.04 113.668 187.669 113.54 187.163 113.54C186.753 113.54 186.393 113.649 186.083 113.868C185.773 114.087 185.532 114.374 185.358 114.729V120H184.094V112.604H185.29ZM191.518 116.24C191.518 115.087 191.784 114.171 192.317 113.492C192.851 112.809 193.557 112.467 194.437 112.467C195.339 112.467 196.043 112.786 196.549 113.424L196.61 112.604H197.766V119.822C197.766 120.779 197.481 121.534 196.911 122.085C196.346 122.636 195.585 122.912 194.628 122.912C194.095 122.912 193.573 122.798 193.062 122.57C192.552 122.342 192.162 122.03 191.894 121.634L192.55 120.875C193.092 121.545 193.755 121.88 194.539 121.88C195.154 121.88 195.633 121.707 195.975 121.36C196.321 121.014 196.494 120.526 196.494 119.897V119.262C195.988 119.845 195.298 120.137 194.423 120.137C193.557 120.137 192.855 119.788 192.317 119.091C191.784 118.394 191.518 117.443 191.518 116.24ZM192.789 116.384C192.789 117.218 192.96 117.874 193.302 118.353C193.644 118.826 194.122 119.063 194.737 119.063C195.535 119.063 196.12 118.701 196.494 117.977V114.6C196.107 113.893 195.526 113.54 194.751 113.54C194.136 113.54 193.655 113.779 193.309 114.258C192.962 114.736 192.789 115.445 192.789 116.384ZM203.986 118.038C203.986 117.696 203.856 117.432 203.597 117.245C203.341 117.054 202.893 116.89 202.25 116.753C201.612 116.616 201.104 116.452 200.726 116.261C200.352 116.069 200.074 115.841 199.892 115.577C199.714 115.313 199.625 114.998 199.625 114.634C199.625 114.028 199.88 113.515 200.391 113.096C200.906 112.676 201.562 112.467 202.359 112.467C203.198 112.467 203.877 112.683 204.396 113.116C204.921 113.549 205.183 114.103 205.183 114.777H203.911C203.911 114.431 203.763 114.132 203.467 113.882C203.175 113.631 202.806 113.506 202.359 113.506C201.899 113.506 201.539 113.606 201.279 113.807C201.02 114.007 200.89 114.269 200.89 114.593C200.89 114.898 201.01 115.128 201.252 115.283C201.493 115.438 201.929 115.586 202.558 115.728C203.191 115.869 203.704 116.037 204.096 116.233C204.488 116.429 204.777 116.666 204.964 116.944C205.155 117.218 205.251 117.553 205.251 117.949C205.251 118.61 204.987 119.141 204.458 119.542C203.929 119.938 203.243 120.137 202.4 120.137C201.808 120.137 201.284 120.032 200.828 119.822C200.372 119.613 200.015 119.321 199.755 118.947C199.5 118.569 199.372 118.161 199.372 117.724H200.637C200.66 118.147 200.828 118.485 201.143 118.735C201.462 118.981 201.881 119.104 202.4 119.104C202.879 119.104 203.262 119.009 203.549 118.817C203.84 118.621 203.986 118.362 203.986 118.038Z" fill="#E5E5E5"/>
<path d="M272 129H134V131H272V129Z" fill="#5A5A5A"/>
<path d="M158.924 145.563C157.798 145.24 156.978 144.843 156.463 144.374C155.952 143.9 155.697 143.317 155.697 142.624C155.697 141.84 156.009 141.193 156.634 140.683C157.263 140.168 158.078 139.91 159.081 139.91C159.765 139.91 160.373 140.042 160.906 140.307C161.444 140.571 161.859 140.936 162.15 141.4C162.447 141.865 162.595 142.373 162.595 142.925H161.275C161.275 142.323 161.084 141.852 160.701 141.51C160.318 141.163 159.778 140.99 159.081 140.99C158.434 140.99 157.928 141.134 157.563 141.421C157.203 141.703 157.023 142.098 157.023 142.604C157.023 143.009 157.194 143.353 157.536 143.636C157.882 143.914 158.468 144.169 159.293 144.401C160.122 144.634 160.77 144.891 161.234 145.174C161.704 145.452 162.05 145.778 162.273 146.151C162.501 146.525 162.615 146.965 162.615 147.471C162.615 148.277 162.301 148.924 161.672 149.412C161.043 149.895 160.202 150.137 159.149 150.137C158.466 150.137 157.828 150.007 157.235 149.747C156.643 149.483 156.185 149.123 155.861 148.667C155.542 148.211 155.383 147.694 155.383 147.115H156.702C156.702 147.717 156.923 148.193 157.365 148.544C157.812 148.89 158.407 149.063 159.149 149.063C159.842 149.063 160.373 148.922 160.742 148.64C161.111 148.357 161.296 147.972 161.296 147.484C161.296 146.997 161.125 146.621 160.783 146.356C160.441 146.088 159.822 145.823 158.924 145.563ZM165.37 143.499C165.931 142.811 166.66 142.467 167.558 142.467C169.121 142.467 169.909 143.349 169.923 145.112V150H168.658V145.105C168.654 144.572 168.531 144.178 168.289 143.923C168.052 143.668 167.681 143.54 167.175 143.54C166.765 143.54 166.405 143.649 166.095 143.868C165.785 144.087 165.543 144.374 165.37 144.729V150H164.105V139.5H165.37V143.499ZM171.481 146.233C171.481 145.509 171.623 144.857 171.905 144.278C172.192 143.7 172.589 143.253 173.095 142.938C173.605 142.624 174.186 142.467 174.838 142.467C175.845 142.467 176.659 142.815 177.278 143.513C177.903 144.21 178.215 145.137 178.215 146.295V146.384C178.215 147.104 178.076 147.751 177.798 148.325C177.524 148.895 177.13 149.339 176.615 149.658C176.105 149.977 175.517 150.137 174.852 150.137C173.849 150.137 173.035 149.788 172.411 149.091C171.791 148.394 171.481 147.471 171.481 146.322V146.233ZM172.753 146.384C172.753 147.204 172.942 147.863 173.32 148.359C173.703 148.856 174.214 149.104 174.852 149.104C175.494 149.104 176.005 148.854 176.383 148.353C176.761 147.847 176.95 147.14 176.95 146.233C176.95 145.422 176.757 144.766 176.369 144.265C175.986 143.759 175.476 143.506 174.838 143.506C174.214 143.506 173.71 143.754 173.327 144.251C172.944 144.748 172.753 145.459 172.753 146.384ZM186.35 148.257L187.771 142.604H189.036L186.883 150H185.857L184.06 144.395L182.31 150H181.284L179.138 142.604H180.396L181.852 148.141L183.574 142.604H184.593L186.35 148.257ZM195.312 146.104V150H193.999V140.047H197.67C198.759 140.047 199.611 140.325 200.227 140.881C200.846 141.437 201.156 142.173 201.156 143.089C201.156 144.055 200.853 144.8 200.247 145.324C199.646 145.844 198.782 146.104 197.656 146.104H195.312ZM195.312 145.03H197.67C198.372 145.03 198.91 144.866 199.283 144.538C199.657 144.205 199.844 143.727 199.844 143.103C199.844 142.51 199.657 142.036 199.283 141.681C198.91 141.325 198.397 141.141 197.745 141.127H195.312V145.03ZM204.007 150H202.742V142.604H204.007V150ZM202.64 140.642C202.64 140.437 202.701 140.263 202.824 140.122C202.952 139.981 203.139 139.91 203.385 139.91C203.631 139.91 203.818 139.981 203.945 140.122C204.073 140.263 204.137 140.437 204.137 140.642C204.137 140.847 204.073 141.018 203.945 141.154C203.818 141.291 203.631 141.359 203.385 141.359C203.139 141.359 202.952 141.291 202.824 141.154C202.701 141.018 202.64 140.847 202.64 140.642ZM207.411 150H206.146V139.5H207.411V150ZM209.106 146.233C209.106 145.509 209.248 144.857 209.53 144.278C209.817 143.7 210.214 143.253 210.72 142.938C211.23 142.624 211.811 142.467 212.463 142.467C213.47 142.467 214.284 142.815 214.903 143.513C215.528 144.21 215.84 145.137 215.84 146.295V146.384C215.84 147.104 215.701 147.751 215.423 148.325C215.149 148.895 214.755 149.339 214.24 149.658C213.73 149.977 213.142 150.137 212.477 150.137C211.474 150.137 210.66 149.788 210.036 149.091C209.416 148.394 209.106 147.471 209.106 146.322V146.233ZM210.378 146.384C210.378 147.204 210.567 147.863 210.945 148.359C211.328 148.856 211.839 149.104 212.477 149.104C213.119 149.104 213.63 148.854 214.008 148.353C214.386 147.847 214.575 147.14 214.575 146.233C214.575 145.422 214.382 144.766 213.994 144.265C213.611 143.759 213.101 143.506 212.463 143.506C211.839 143.506 211.335 143.754 210.952 144.251C210.569 144.748 210.378 145.459 210.378 146.384ZM221.001 143.738C220.81 143.706 220.602 143.69 220.379 143.69C219.549 143.69 218.987 144.044 218.69 144.75V150H217.426V142.604H218.656L218.677 143.458C219.091 142.797 219.679 142.467 220.44 142.467C220.687 142.467 220.873 142.499 221.001 142.562V143.738ZM226.463 150C226.39 149.854 226.331 149.594 226.285 149.221C225.697 149.831 224.995 150.137 224.18 150.137C223.451 150.137 222.851 149.932 222.382 149.521C221.917 149.107 221.685 148.583 221.685 147.949C221.685 147.179 221.976 146.582 222.56 146.158C223.147 145.73 223.972 145.516 225.034 145.516H226.265V144.935C226.265 144.493 226.132 144.142 225.868 143.882C225.604 143.618 225.214 143.485 224.699 143.485C224.248 143.485 223.87 143.599 223.564 143.827C223.259 144.055 223.106 144.331 223.106 144.654H221.835C221.835 144.285 221.965 143.93 222.225 143.588C222.489 143.242 222.844 142.968 223.291 142.768C223.742 142.567 224.237 142.467 224.774 142.467C225.627 142.467 226.294 142.681 226.777 143.109C227.26 143.533 227.511 144.119 227.529 144.866V148.271C227.529 148.95 227.616 149.49 227.789 149.891V150H226.463ZM224.364 149.036C224.761 149.036 225.137 148.934 225.492 148.729C225.848 148.523 226.105 148.257 226.265 147.929V146.411H225.273C223.724 146.411 222.949 146.865 222.949 147.771C222.949 148.168 223.081 148.478 223.346 148.701C223.61 148.924 223.95 149.036 224.364 149.036ZM230.701 142.604L230.735 143.424C231.278 142.786 232.009 142.467 232.93 142.467C233.964 142.467 234.668 142.863 235.042 143.656C235.288 143.301 235.607 143.014 235.999 142.795C236.396 142.576 236.863 142.467 237.4 142.467C239.023 142.467 239.848 143.326 239.875 145.044V150H238.61V145.119C238.61 144.59 238.49 144.196 238.248 143.937C238.007 143.672 237.601 143.54 237.031 143.54C236.562 143.54 236.172 143.681 235.862 143.964C235.552 144.242 235.372 144.618 235.322 145.092V150H234.051V145.153C234.051 144.078 233.524 143.54 232.472 143.54C231.642 143.54 231.075 143.893 230.77 144.6V150H229.505V142.604H230.701ZM246.355 150C246.283 149.854 246.223 149.594 246.178 149.221C245.59 149.831 244.888 150.137 244.072 150.137C243.343 150.137 242.744 149.932 242.274 149.521C241.81 149.107 241.577 148.583 241.577 147.949C241.577 147.179 241.869 146.582 242.452 146.158C243.04 145.73 243.865 145.516 244.927 145.516H246.157V144.935C246.157 144.493 246.025 144.142 245.761 143.882C245.496 143.618 245.107 143.485 244.592 143.485C244.141 143.485 243.762 143.599 243.457 143.827C243.152 144.055 242.999 144.331 242.999 144.654H241.728C241.728 144.285 241.857 143.93 242.117 143.588C242.382 143.242 242.737 142.968 243.184 142.768C243.635 142.567 244.129 142.467 244.667 142.467C245.519 142.467 246.187 142.681 246.67 143.109C247.153 143.533 247.404 144.119 247.422 144.866V148.271C247.422 148.95 247.508 149.49 247.682 149.891V150H246.355ZM244.257 149.036C244.653 149.036 245.029 148.934 245.385 148.729C245.74 148.523 245.998 148.257 246.157 147.929V146.411H245.166C243.617 146.411 242.842 146.865 242.842 147.771C242.842 148.168 242.974 148.478 243.238 148.701C243.503 148.924 243.842 149.036 244.257 149.036Z" fill="#E5E5E5"/>
<path d="M163.593 167.345C163.593 168.306 163.44 169.136 163.135 169.833C162.829 170.526 162.401 171.068 161.85 171.46L163.627 172.854L162.731 173.682L160.633 172.014C160.305 172.096 159.958 172.137 159.594 172.137C158.81 172.137 158.115 171.945 157.509 171.562C156.903 171.175 156.431 170.626 156.094 169.915C155.761 169.2 155.59 168.372 155.581 167.434V166.716C155.581 165.759 155.747 164.913 156.08 164.18C156.413 163.446 156.882 162.885 157.488 162.498C158.099 162.106 158.796 161.91 159.58 161.91C160.382 161.91 161.086 162.104 161.692 162.491C162.303 162.879 162.772 163.437 163.101 164.166C163.429 164.891 163.593 165.738 163.593 166.709V167.345ZM162.28 166.702C162.28 165.531 162.046 164.629 161.576 163.995C161.111 163.357 160.446 163.038 159.58 163.038C158.755 163.038 158.104 163.355 157.625 163.988C157.151 164.617 156.907 165.492 156.894 166.613V167.345C156.894 168.484 157.131 169.382 157.604 170.038C158.083 170.694 158.746 171.022 159.594 171.022C160.441 171.022 161.098 170.715 161.562 170.1C162.027 169.48 162.267 168.593 162.28 167.44V166.702ZM169.984 171.269C169.492 171.847 168.77 172.137 167.817 172.137C167.029 172.137 166.427 171.909 166.013 171.453C165.603 170.993 165.395 170.314 165.391 169.416V164.604H166.655V169.382C166.655 170.503 167.111 171.063 168.022 171.063C168.989 171.063 169.631 170.703 169.95 169.983V164.604H171.215V172H170.012L169.984 171.269ZM174.517 172H173.252V164.604H174.517V172ZM173.149 162.642C173.149 162.437 173.211 162.263 173.334 162.122C173.462 161.981 173.648 161.91 173.895 161.91C174.141 161.91 174.327 161.981 174.455 162.122C174.583 162.263 174.646 162.437 174.646 162.642C174.646 162.847 174.583 163.018 174.455 163.154C174.327 163.291 174.141 163.359 173.895 163.359C173.648 163.359 173.462 163.291 173.334 163.154C173.211 163.018 173.149 162.847 173.149 162.642ZM178.263 162.812V164.604H179.644V165.581H178.263V170.168C178.263 170.464 178.324 170.688 178.447 170.838C178.57 170.984 178.78 171.057 179.076 171.057C179.222 171.057 179.423 171.029 179.678 170.975V172C179.345 172.091 179.021 172.137 178.707 172.137C178.142 172.137 177.716 171.966 177.429 171.624C177.142 171.282 176.998 170.797 176.998 170.168V165.581H175.651V164.604H176.998V162.812H178.263Z" fill="#E5E5E5"/>
<path d="M369.5 0.5H0.5V25.5H369.5V0.5Z" fill="#232323"/>
<path d="M170 13C170 17.9706 165.971 22 161 22C156.029 22 152 17.9706 152 13C152 8.02944 156.029 4 161 4C165.971 4 170 8.02944 170 13ZM154.746 13C154.746 16.4541 157.546 19.2542 161 19.2542C164.454 19.2542 167.254 16.4541 167.254 13C167.254 9.54592 164.454 6.74584 161 6.74584C157.546 6.74584 154.746 9.54592 154.746 13Z" fill="#DCDCDC"/>
<path d="M161 4C162.48 4 163.937 4.36501 165.243 5.06271C166.548 5.7604 167.661 6.76924 168.483 7.99987C169.306 9.23049 169.812 10.6449 169.957 12.1178C170.102 13.5908 169.881 15.0768 169.315 16.4441C168.749 17.8115 167.854 19.0182 166.71 19.9571C165.565 20.896 164.207 21.5383 162.756 21.8271C161.304 22.1158 159.804 22.0421 158.387 21.6125C156.971 21.1828 155.683 20.4105 154.636 19.364L156.578 17.4224C157.305 18.1496 158.2 18.6863 159.185 18.9849C160.169 19.2834 161.211 19.3346 162.22 19.134C163.229 18.9333 164.173 18.487 164.968 17.8345C165.763 17.1821 166.384 16.3436 166.778 15.3934C167.172 14.4431 167.325 13.4105 167.224 12.387C167.123 11.3634 166.772 10.3805 166.2 9.52538C165.629 8.67021 164.855 7.96916 163.948 7.48432C163.041 6.99949 162.029 6.74584 161 6.74584V4Z" fill="#6387FF"/>
<path d="M189.633 9.66016H185.789C184.389 9.66016 183 11.0898 183 12.8477C183 14.6172 184.43 16 185.789 16H189.633V9.66016ZM189.604 9.66016V16H196.248V9.66016H189.604ZM196.219 16H200.033C201.434 16 202.822 14.5703 202.822 12.8125C202.822 11.043 201.393 9.66016 200.033 9.66016H196.219V16ZM216.492 9.66016H212.648C211.248 9.66016 209.859 11.0898 209.859 12.8477C209.859 14.6172 211.289 16 212.648 16H216.492V9.66016ZM216.463 9.66016V16H223.107V9.66016H216.463ZM223.078 16H226.893C228.293 16 229.682 14.5703 229.682 12.8125C229.682 11.043 228.252 9.66016 226.893 9.66016H223.078V16ZM243.352 9.66016H239.508C238.107 9.66016 236.719 11.0898 236.719 12.8477C236.719 14.6172 238.148 16 239.508 16H243.352V9.66016ZM243.352 16H247.166C248.566 16 249.955 14.5703 249.955 12.8125C249.955 11.043 248.525 9.66016 247.166 9.66016H243.352V16ZM263.625 9.66016H259.781C258.381 9.66016 256.992 11.0898 256.992 12.8477C256.992 14.6172 258.422 16 259.781 16H263.625V9.66016ZM263.625 16H267.439C268.84 16 270.229 14.5703 270.229 12.8125C270.229 11.043 268.799 9.66016 267.439 9.66016H263.625V16ZM283.898 9.66016H280.055C278.654 9.66016 277.266 11.0898 277.266 12.8477C277.266 14.6172 278.695 16 280.055 16H283.898V9.66016ZM283.898 16H287.713C289.113 16 290.502 14.5703 290.502 12.8125C290.502 11.043 289.072 9.66016 287.713 9.66016H283.898V16Z" fill="#575555"/>
</g>
<defs>
<filter id="filter0_d" x="324" y="40" width="281" height="86" filterUnits="userSpaceOnUse" color-interpolation-filters="sRGB">
<feFlood flood-opacity="0" result="BackgroundImageFix"/>
<feColorMatrix in="SourceAlpha" type="matrix" values="0 0 0 0 0 0 0 0 0 0 0 0 0 0 0 0 0 0 127 0"/>
<feOffset dy="5"/>
<feGaussianBlur stdDeviation="5"/>
<feColorMatrix type="matrix" values="0 0 0 0 0 0 0 0 0 0 0 0 0 0 0 0 0 0 0.5 0"/>
<feBlend mode="normal" in2="BackgroundImageFix" result="effect1_dropShadow"/>
<feBlend mode="normal" in="SourceGraphic" in2="effect1_dropShadow" result="shape"/>
</filter>
<filter id="filter1_d" x="121" y="20" width="163" height="178" filterUnits="userSpaceOnUse" color-interpolation-filters="sRGB">
<feFlood flood-opacity="0" result="BackgroundImageFix"/>
<feColorMatrix in="SourceAlpha" type="matrix" values="0 0 0 0 0 0 0 0 0 0 0 0 0 0 0 0 0 0 127 0"/>
<feOffset dy="5"/>
<feGaussianBlur stdDeviation="5"/>
<feColorMatrix type="matrix" values="0 0 0 0 0 0 0 0 0 0 0 0 0 0 0 0 0 0 0.5 0"/>
<feBlend mode="normal" in2="BackgroundImageFix" result="effect1_dropShadow"/>
<feBlend mode="normal" in="SourceGraphic" in2="effect1_dropShadow" result="shape"/>
</filter>
<clipPath id="clip0">
<rect width="604" height="205" fill="white"/>
</clipPath>
</defs>
</svg>
