<svg width="288" height="288" viewBox="0 0 288 288" fill="none" xmlns="http://www.w3.org/2000/svg">
<circle cx="144" cy="144" r="113" stroke="#616665" stroke-width="12" stroke-dasharray="1.4 3"/>
<path d="M144 25C164.617 25 184.881 30.3567 202.805 40.5451C220.73 50.7335 235.699 65.4041 246.247 83.1191L235.962 89.2431C226.475 73.31 213.011 60.1152 196.89 50.9516C180.769 41.7881 162.544 36.9702 144 36.9702V25Z" fill="#5275E9"/>
<path d="M246.206 83.0505C256.945 101.058 262.735 121.583 262.991 142.547L251.022 142.693C250.792 123.838 245.584 105.377 235.926 89.1814L246.206 83.0505Z" fill="#339BA7"/>
<path d="M262.992 142.6C263.235 163.305 258.072 183.715 248.012 201.814L237.55 195.998C246.598 179.72 251.241 161.363 251.022 142.741L262.992 142.6Z" fill="#C8AC4B"/>
<path d="M248.113 201.633C239.266 217.615 226.858 231.346 211.85 241.762C196.843 252.177 179.64 258.998 161.572 261.695C143.505 264.393 125.059 262.895 107.664 257.317C90.2692 251.739 74.3918 242.231 61.2622 229.53C48.1325 216.829 38.1032 201.276 31.9512 184.076C25.7993 166.875 23.6898 148.49 25.7863 130.343C27.8828 112.196 34.129 94.7754 44.0409 79.4309C53.9528 64.0863 67.2643 51.2297 82.9441 41.8571L89.0857 52.1316C74.9831 60.5614 63.0106 72.1248 54.0957 85.9259C45.1809 99.7269 39.563 115.395 37.6774 131.717C35.7918 148.038 37.6891 164.574 43.2222 180.045C48.7554 195.515 57.7758 209.504 69.5848 220.927C81.3937 232.35 95.674 240.902 111.319 245.918C126.965 250.935 143.555 252.283 159.805 249.856C176.055 247.43 191.528 241.296 205.025 231.928C218.523 222.56 229.683 210.21 237.64 195.836L248.113 201.633Z" fill="#C23E3E"/>
<circle cx="144" cy="144" r="101.5" stroke="#959C9B" stroke-width="3" stroke-dasharray="2 11"/>
<circle cx="144" cy="144" r="143" stroke="#454747" stroke-width="2"/>
<circle cx="144" cy="144" r="138" stroke="#454747" stroke-width="2"/>
<circle cx="144" cy="144" r="133" stroke="#454747" stroke-width="2"/>
<path d="M144 16C174.97 16 204.889 27.2284 228.213 47.6037C251.536 67.9791 266.681 96.1195 270.84 126.809C275 157.498 267.892 188.654 250.833 214.503C233.775 240.351 207.924 259.139 178.071 267.382C148.219 275.626 116.39 272.766 88.4844 259.334C60.5791 245.902 38.49 222.808 26.3117 194.334C14.1334 165.859 12.6919 133.934 22.2544 104.478C31.8169 75.0212 51.7348 50.0305 78.316 34.1382L80.2832 37.4284C54.498 52.8448 35.1766 77.087 25.9005 105.661C16.6244 134.236 18.0228 165.204 29.8363 192.826C41.6499 220.448 63.0775 242.85 90.1471 255.88C117.217 268.91 148.092 271.684 177.051 263.687C206.009 255.69 231.086 237.466 247.634 212.391C264.181 187.317 271.076 157.094 267.042 127.324C263.007 97.5534 248.315 70.2558 225.69 50.4907C203.066 30.7255 174.042 19.8334 144 19.8334V16Z" fill="#959C9B"/>
<path d="M95.1186 155.857C91.3979 155.857 88.6952 154.839 87.0106 152.803C85.3407 150.752 84.5058 148.262 84.5058 145.332H88.6366C88.8124 147.368 89.1933 148.848 89.7792 149.771C90.8046 151.426 92.6576 152.253 95.3383 152.253C97.4184 152.253 99.0883 151.697 100.348 150.583C101.608 149.47 102.238 148.035 102.238 146.277C102.238 144.109 101.571 142.593 100.238 141.729C98.9198 140.864 97.0814 140.432 94.723 140.432C94.4594 140.432 94.1884 140.439 93.9101 140.454C93.6464 140.454 93.3754 140.461 93.0971 140.476V136.982C93.5072 137.026 93.8515 137.056 94.1298 137.07C94.4081 137.085 94.7084 137.092 95.0307 137.092C96.5102 137.092 97.726 136.858 98.6781 136.389C100.348 135.569 101.183 134.104 101.183 131.995C101.183 130.427 100.626 129.219 99.5131 128.369C98.3998 127.52 97.1034 127.095 95.6239 127.095C92.9872 127.095 91.1635 127.974 90.1527 129.731C89.5961 130.698 89.2812 132.075 89.2079 133.862H85.2968C85.2968 131.519 85.7655 129.526 86.703 127.886C88.3144 124.956 91.1488 123.491 95.2064 123.491C98.4145 123.491 100.897 124.209 102.655 125.645C104.413 127.065 105.292 129.131 105.292 131.841C105.292 133.774 104.772 135.342 103.732 136.543C103.087 137.29 102.252 137.876 101.227 138.301C102.882 138.755 104.171 139.634 105.094 140.938C106.032 142.227 106.5 143.809 106.5 145.684C106.5 148.687 105.512 151.133 103.534 153.022C101.557 154.912 98.7514 155.857 95.1186 155.857ZM113.766 131.775H118.358V136.565H113.766V131.775ZM113.766 150.21H118.358V155H113.766V150.21ZM127.161 146.98C127.425 149.236 128.472 150.796 130.304 151.66C131.241 152.1 132.325 152.319 133.555 152.319C135.899 152.319 137.635 151.572 138.763 150.078C139.891 148.584 140.455 146.929 140.455 145.112C140.455 142.915 139.781 141.216 138.433 140.015C137.1 138.813 135.496 138.213 133.621 138.213C132.259 138.213 131.087 138.477 130.106 139.004C129.139 139.531 128.311 140.264 127.623 141.201L124.195 141.003L126.59 124.062H142.938V127.886H129.556L128.216 136.631C128.949 136.074 129.644 135.657 130.304 135.378C131.475 134.895 132.83 134.653 134.368 134.653C137.254 134.653 139.7 135.583 141.707 137.444C143.714 139.304 144.718 141.663 144.718 144.519C144.718 147.493 143.795 150.115 141.949 152.385C140.118 154.656 137.188 155.791 133.16 155.791C130.596 155.791 128.326 155.073 126.348 153.638C124.386 152.188 123.287 149.968 123.053 146.98H127.161ZM161.827 143.86V129.6L151.741 143.86H161.827ZM161.893 155V147.31H148.094V143.442L162.508 123.447H165.848V143.86H170.484V147.31H165.848V155H161.893Z" fill="#E2E6E5"/>
<path d="M180.965 135.723C181.105 136.926 181.664 137.758 182.641 138.219C183.141 138.453 183.719 138.57 184.375 138.57C185.625 138.57 186.551 138.172 187.152 137.375C187.754 136.578 188.055 135.695 188.055 134.727C188.055 133.555 187.695 132.648 186.977 132.008C186.266 131.367 185.41 131.047 184.41 131.047C183.684 131.047 183.059 131.188 182.535 131.469C182.02 131.75 181.578 132.141 181.211 132.641L179.383 132.535L180.66 123.5H189.379V125.539H182.242L181.527 130.203C181.918 129.906 182.289 129.684 182.641 129.535C183.266 129.277 183.988 129.148 184.809 129.148C186.348 129.148 187.652 129.645 188.723 130.637C189.793 131.629 190.328 132.887 190.328 134.41C190.328 135.996 189.836 137.395 188.852 138.605C187.875 139.816 186.312 140.422 184.164 140.422C182.797 140.422 181.586 140.039 180.531 139.273C179.484 138.5 178.898 137.316 178.773 135.723H180.965ZM197.894 140.457C195.909 140.457 194.468 139.914 193.57 138.828C192.679 137.734 192.234 136.406 192.234 134.844H194.437C194.53 135.93 194.734 136.719 195.046 137.211C195.593 138.094 196.581 138.535 198.011 138.535C199.12 138.535 200.011 138.238 200.683 137.645C201.355 137.051 201.691 136.285 201.691 135.348C201.691 134.191 201.335 133.383 200.624 132.922C199.921 132.461 198.941 132.23 197.683 132.23C197.542 132.23 197.398 132.234 197.249 132.242C197.109 132.242 196.964 132.246 196.816 132.254V130.391C197.034 130.414 197.218 130.43 197.366 130.438C197.515 130.445 197.675 130.449 197.847 130.449C198.636 130.449 199.284 130.324 199.792 130.074C200.683 129.637 201.128 128.855 201.128 127.73C201.128 126.895 200.831 126.25 200.238 125.797C199.644 125.344 198.952 125.117 198.163 125.117C196.757 125.117 195.784 125.586 195.245 126.523C194.948 127.039 194.78 127.773 194.741 128.727H192.655C192.655 127.477 192.905 126.414 193.405 125.539C194.265 123.977 195.777 123.195 197.941 123.195C199.652 123.195 200.976 123.578 201.913 124.344C202.851 125.102 203.32 126.203 203.32 127.648C203.32 128.68 203.042 129.516 202.488 130.156C202.144 130.555 201.698 130.867 201.152 131.094C202.034 131.336 202.722 131.805 203.214 132.5C203.714 133.188 203.964 134.031 203.964 135.031C203.964 136.633 203.437 137.938 202.382 138.945C201.327 139.953 199.831 140.457 197.894 140.457Z" fill="#E2E6E5"/>
<path d="M132.058 94.5117C133.415 94.5117 134.396 95.0708 135.002 96.189C135.471 97.0532 135.705 98.2373 135.705 99.7412C135.705 101.167 135.493 102.346 135.068 103.279C134.453 104.617 133.447 105.286 132.05 105.286C130.791 105.286 129.853 104.739 129.238 103.645C128.725 102.732 128.469 101.506 128.469 99.9683C128.469 98.7769 128.623 97.7539 128.93 96.8994C129.506 95.3076 130.549 94.5117 132.058 94.5117ZM132.043 104.084C132.727 104.084 133.271 103.782 133.676 103.176C134.082 102.571 134.284 101.443 134.284 99.7925C134.284 98.6011 134.138 97.6221 133.845 96.8555C133.552 96.084 132.983 95.6982 132.138 95.6982C131.362 95.6982 130.793 96.0645 130.432 96.7969C130.075 97.5244 129.897 98.5986 129.897 100.02C129.897 101.089 130.012 101.948 130.241 102.598C130.593 103.589 131.193 104.084 132.043 104.084ZM144.194 94.6875V95.8374C143.857 96.1646 143.408 96.7334 142.846 97.5439C142.29 98.3545 141.796 99.2285 141.367 100.166C140.942 101.079 140.62 101.912 140.4 102.664C140.258 103.147 140.075 103.926 139.851 105H138.393C138.725 102.998 139.458 101.006 140.59 99.0234C141.259 97.8613 141.962 96.8579 142.7 96.0132H136.899V94.6875H144.194ZM146.362 97.2583H147.893V98.855H146.362V97.2583ZM146.362 103.403H147.893V105H146.362V103.403ZM150.727 102.327C150.815 103.079 151.164 103.599 151.774 103.887C152.087 104.033 152.448 104.106 152.858 104.106C153.64 104.106 154.218 103.857 154.594 103.359C154.97 102.861 155.158 102.31 155.158 101.704C155.158 100.972 154.934 100.405 154.484 100.005C154.04 99.6045 153.505 99.4043 152.88 99.4043C152.426 99.4043 152.036 99.4922 151.708 99.668C151.386 99.8438 151.11 100.088 150.881 100.4L149.738 100.334L150.537 94.6875H155.986V95.9619H151.525L151.079 98.877C151.323 98.6914 151.555 98.5522 151.774 98.4595C152.165 98.2983 152.617 98.2178 153.129 98.2178C154.091 98.2178 154.907 98.5278 155.576 99.1479C156.245 99.7681 156.579 100.554 156.579 101.506C156.579 102.498 156.271 103.372 155.656 104.128C155.046 104.885 154.069 105.264 152.727 105.264C151.872 105.264 151.115 105.024 150.456 104.546C149.802 104.062 149.436 103.323 149.357 102.327H150.727ZM157.692 105C157.741 104.097 157.927 103.311 158.249 102.642C158.576 101.973 159.211 101.365 160.153 100.818L161.56 100.005C162.189 99.6387 162.631 99.3262 162.885 99.0674C163.286 98.6621 163.486 98.1982 163.486 97.6758C163.486 97.0654 163.303 96.582 162.937 96.2256C162.57 95.8643 162.082 95.6836 161.472 95.6836C160.568 95.6836 159.943 96.0254 159.597 96.709C159.411 97.0752 159.309 97.583 159.289 98.2324H157.949C157.963 97.3193 158.132 96.5747 158.454 95.9985C159.025 94.9829 160.034 94.4751 161.479 94.4751C162.68 94.4751 163.557 94.7998 164.108 95.4492C164.665 96.0986 164.943 96.8213 164.943 97.6172C164.943 98.457 164.648 99.1748 164.057 99.7705C163.715 100.117 163.103 100.537 162.219 101.03L161.215 101.587C160.737 101.851 160.361 102.102 160.087 102.341C159.599 102.766 159.292 103.237 159.165 103.755H164.892V105H157.692Z" fill="#959C9B"/>
<rect x="101" y="173" width="87" height="34" rx="17" fill="#616665"/>
<path d="M129.145 189.17C129.829 189.17 130.368 189.033 130.764 188.76C131.164 188.486 131.364 187.993 131.364 187.28C131.364 186.514 131.086 185.991 130.529 185.713C130.231 185.566 129.833 185.493 129.335 185.493H125.776V189.17H129.145ZM124.318 184.241H129.299C130.119 184.241 130.795 184.36 131.328 184.6C132.338 185.059 132.844 185.906 132.844 187.141C132.844 187.786 132.709 188.313 132.441 188.723C132.177 189.133 131.806 189.463 131.328 189.712C131.748 189.883 132.062 190.107 132.272 190.386C132.487 190.664 132.607 191.116 132.631 191.741L132.683 193.184C132.697 193.594 132.731 193.899 132.785 194.099C132.873 194.441 133.029 194.661 133.254 194.758V195H131.467C131.418 194.907 131.379 194.788 131.35 194.641C131.32 194.495 131.296 194.211 131.276 193.792L131.188 191.997C131.154 191.294 130.893 190.823 130.405 190.583C130.126 190.452 129.689 190.386 129.094 190.386H125.776V195H124.318V184.241ZM138.873 186.98C139.43 186.98 139.969 187.112 140.492 187.375C141.014 187.634 141.412 187.971 141.686 188.386C141.949 188.782 142.125 189.243 142.213 189.771C142.291 190.132 142.33 190.708 142.33 191.499H136.581C136.605 192.295 136.793 192.935 137.145 193.418C137.496 193.896 138.041 194.136 138.778 194.136C139.467 194.136 140.016 193.909 140.426 193.455C140.66 193.191 140.826 192.886 140.924 192.539H142.22C142.186 192.827 142.071 193.149 141.876 193.506C141.686 193.857 141.471 194.146 141.232 194.37C140.831 194.761 140.336 195.024 139.745 195.161C139.427 195.239 139.069 195.278 138.668 195.278C137.692 195.278 136.864 194.924 136.185 194.216C135.507 193.503 135.167 192.507 135.167 191.228C135.167 189.968 135.509 188.945 136.193 188.159C136.876 187.373 137.77 186.98 138.873 186.98ZM140.975 190.452C140.922 189.88 140.797 189.424 140.602 189.082C140.24 188.447 139.637 188.13 138.793 188.13C138.187 188.13 137.679 188.35 137.269 188.789C136.859 189.224 136.642 189.778 136.617 190.452H140.975ZM145.54 192.539C145.579 192.979 145.689 193.315 145.87 193.55C146.202 193.975 146.778 194.187 147.598 194.187C148.086 194.187 148.516 194.082 148.887 193.872C149.258 193.657 149.444 193.328 149.444 192.883C149.444 192.546 149.295 192.29 148.997 192.114C148.807 192.007 148.431 191.882 147.869 191.741L146.822 191.477C146.153 191.311 145.66 191.125 145.342 190.92C144.776 190.564 144.493 190.071 144.493 189.441C144.493 188.699 144.759 188.098 145.291 187.639C145.828 187.18 146.548 186.951 147.452 186.951C148.633 186.951 149.485 187.297 150.008 187.991C150.335 188.43 150.494 188.904 150.484 189.412H149.239C149.214 189.114 149.109 188.843 148.924 188.599C148.621 188.252 148.096 188.079 147.349 188.079C146.851 188.079 146.473 188.174 146.214 188.364C145.96 188.555 145.833 188.806 145.833 189.119C145.833 189.46 146.001 189.734 146.338 189.939C146.534 190.061 146.822 190.168 147.203 190.261L148.074 190.474C149.021 190.703 149.656 190.925 149.978 191.14C150.491 191.477 150.747 192.007 150.747 192.729C150.747 193.428 150.481 194.031 149.949 194.539C149.422 195.046 148.616 195.3 147.532 195.3C146.365 195.3 145.538 195.037 145.049 194.509C144.566 193.977 144.307 193.32 144.273 192.539H145.54ZM156.323 186.98C156.879 186.98 157.419 187.112 157.942 187.375C158.464 187.634 158.862 187.971 159.135 188.386C159.399 188.782 159.575 189.243 159.663 189.771C159.741 190.132 159.78 190.708 159.78 191.499H154.03C154.055 192.295 154.243 192.935 154.594 193.418C154.946 193.896 155.49 194.136 156.228 194.136C156.916 194.136 157.465 193.909 157.876 193.455C158.11 193.191 158.276 192.886 158.374 192.539H159.67C159.636 192.827 159.521 193.149 159.326 193.506C159.135 193.857 158.921 194.146 158.681 194.37C158.281 194.761 157.785 195.024 157.194 195.161C156.877 195.239 156.518 195.278 156.118 195.278C155.141 195.278 154.314 194.924 153.635 194.216C152.956 193.503 152.617 192.507 152.617 191.228C152.617 189.968 152.959 188.945 153.642 188.159C154.326 187.373 155.219 186.98 156.323 186.98ZM158.425 190.452C158.371 189.88 158.247 189.424 158.051 189.082C157.69 188.447 157.087 188.13 156.242 188.13C155.637 188.13 155.129 188.35 154.719 188.789C154.309 189.224 154.091 189.778 154.067 190.452H158.425ZM162.47 184.966H163.803V187.156H165.055V188.232H163.803V193.352C163.803 193.625 163.895 193.809 164.081 193.901C164.183 193.955 164.354 193.982 164.594 193.982C164.657 193.982 164.725 193.982 164.799 193.982C164.872 193.977 164.957 193.97 165.055 193.96V195C164.904 195.044 164.745 195.076 164.579 195.095C164.418 195.115 164.242 195.125 164.052 195.125C163.436 195.125 163.019 194.968 162.799 194.656C162.579 194.338 162.47 193.928 162.47 193.425V188.232H161.408V187.156H162.47V184.966Z" fill="#282828"/>
<path d="M115.958 104.644C115.587 104.74 115.24 104.695 114.916 104.508C114.592 104.321 114.377 104.046 114.272 103.683C114.166 103.319 114.209 102.972 114.4 102.641L116.791 104.022C116.6 104.353 116.322 104.56 115.958 104.644ZM120.525 104.069C120.566 104.256 120.545 104.423 120.46 104.57C120.368 104.73 120.232 104.835 120.053 104.887C119.873 104.939 119.696 104.914 119.522 104.814L112.348 100.672C112.236 100.607 112.149 100.52 112.088 100.411C112.026 100.302 111.997 100.187 112 100.066C112.004 99.9457 112.033 99.8363 112.09 99.7382C112.175 99.5911 112.309 99.4886 112.492 99.4307C112.511 99.4257 112.544 99.4119 112.59 99.3895C112.883 99.3135 113.125 99.2325 113.316 99.1465C113.507 99.0605 113.783 98.8481 114.145 98.5093C114.506 98.1705 114.843 97.7313 115.154 97.1919C115.565 96.4808 116.147 95.9911 116.899 95.7228C117.652 95.4545 118.416 95.4542 119.191 95.7221L119.414 95.3359C119.506 95.1765 119.645 95.0727 119.831 95.0246C120.016 94.9764 120.19 94.9991 120.352 95.0925C120.514 95.186 120.62 95.3251 120.671 95.5099C120.722 95.6947 120.702 95.8668 120.61 96.0262L120.387 96.4124C120.798 96.7642 121.107 97.1793 121.312 97.6575C121.518 98.1358 121.606 98.6365 121.578 99.1598C121.55 99.683 121.402 100.178 121.133 100.643C120.821 101.183 120.609 101.694 120.497 102.177C120.384 102.659 120.338 103.005 120.359 103.213C120.38 103.421 120.431 103.671 120.511 103.963C120.515 104.014 120.52 104.049 120.525 104.069Z" fill="#959C9B"/>
</svg>
