<svg width="108" height="20" viewBox="0 0 108 20" fill="none" xmlns="http://www.w3.org/2000/svg">
<path d="M28.8787 8.30901L28.1326 0L24.8557 2.35038L28.8787 8.30901Z" fill="#E2E6E5"/>
<path d="M60.0304 19.6416H64.1781L64.1786 19.6406H69.6815L71.1448 16.44H65.8501L69.125 10.1691L73.1658 19.6416L78.4493 19.6422L80.5714 9.56857L82.5506 17.9041L88.3571 10.1169L86.3385 19.6422H89.8992L93.3028 3.48574H89.7625L89.626 3.48607L83.8273 10.8413L82.4326 3.48607L78.3126 3.48574L75.6022 16.275L69.3983 2.51794L60.0304 19.6416Z" fill="#E2E6E5"/>
<path d="M90.91 19.6416H95.0577L95.0582 19.6406H100.617L102.08 16.44H96.7906L100.011 10.491L104.045 19.6416H108L100.385 2.51794L90.91 19.6416Z" fill="#E2E6E5"/>
<path d="M14.3446 19.6422H17.9053L21.3089 3.48574H17.7686L14.3446 19.6422Z" fill="#E2E6E5"/>
<path fill-rule="evenodd" clip-rule="evenodd" d="M50.6501 19.6417H47.0894L50.3182 4.40677L50.3168 4.40555C56.2246 1.52603 62.4526 3.48179 62.0228 8.47542C61.6907 12.3382 58.7461 13.9936 55.9525 14.3521C57.9314 17.3671 60.7184 16.1709 60.7184 16.1709L60.9046 16.3309L58.9526 19.6404C56.4828 20.0269 54.2719 17.7962 53.1868 16.3982L51.7481 14.4278L50.6501 19.6417ZM53.626 11.3892L51.9008 13.703L53.3148 6.98903C55.0146 5.53005 58.9298 6.18472 58.5281 8.67601C58.2625 10.3181 56.5994 11.8294 53.6663 11.3953L53.6436 11.366L53.626 11.3892Z" fill="#E2E6E5"/>
<path fill-rule="evenodd" clip-rule="evenodd" d="M0 19.6417H3.56071L4.70262 14.2196C5.23087 14.3282 6.60762 14.5507 8.45539 14.3954C11.3629 14.15 14.5851 12.5268 14.9335 8.47542C15.3633 3.48179 9.13519 1.52603 3.22741 4.40555L3.22883 4.40677L0 19.6417ZM6.53668 11.3892L4.81141 13.703L6.2254 6.98904C7.92524 5.53005 11.8404 6.18472 11.4387 8.67601C11.1719 10.3256 9.49478 11.8432 6.53668 11.3892Z" fill="#E2E6E5"/>
<path d="M24.6978 19.6416H21.1371L24.1975 5.19434L26.8622 9.36494L25.3721 16.44H33.0323L31.5691 19.6406L24.6978 19.6416Z" fill="#E2E6E5"/>
<path fill-rule="evenodd" clip-rule="evenodd" d="M33.1582 18.1209L33.7369 16.7244C33.7369 16.7244 30.0823 14.2695 31.073 9.27379C31.8842 5.19084 35.6941 2.9648 39.3127 2.9648C43.982 2.9648 47.9054 6.6501 47.7176 11.5655C47.543 16.1368 43.8535 20 39.1665 20C35.9464 20 34.0383 18.8019 33.1582 18.1209ZM38.7915 16.467C41.615 16.467 43.9908 14.1932 44.098 11.3882C44.2052 8.58333 42.0032 6.30951 39.1797 6.30951C36.3562 6.30951 33.9804 8.58333 33.8732 11.3882C33.766 14.1932 35.968 16.467 38.7915 16.467Z" fill="#E2E6E5"/>
</svg>
